<svg xmlns="http://www.w3.org/2000/svg" xmlns:xlink="http://www.w3.org/1999/xlink" id="Layer_1" width="480.5" height="350" x="0" y="0" enable-background="new 0 0 480.5 350" version="1.1" viewBox="0 0 480.5 350" xml:space="preserve"><rect width="112.332" height="105.548" x="4.815" y="5.979" fill="#C7D468" stroke="#4D4D4D" stroke-miterlimit="10"/><g><path fill="#4D4D4D" d="M15.271,11.884c2.109,0,3.164,0.82,3.164,2.461c0,0.688-0.212,1.27-0.637,1.743s-1.023,0.781-1.794,0.923 v0.073c0.562,0.156,0.992,0.426,1.293,0.81c0.3,0.383,0.45,0.843,0.45,1.38c0,1.035-0.371,1.847-1.113,2.435 c-0.742,0.589-1.736,0.883-2.981,0.883h-3.391l2.263-10.708H15.271z M11.734,21.53h1.948c0.884,0,1.562-0.196,2.036-0.589 s0.71-0.949,0.71-1.667c0-0.566-0.182-1-0.546-1.3c-0.364-0.3-0.887-0.45-1.571-0.45h-1.729L11.734,21.53z M12.811,16.469h1.816 c0.762,0,1.37-0.178,1.824-0.535s0.681-0.842,0.681-1.458c0-0.508-0.163-0.887-0.487-1.139s-0.836-0.377-1.534-0.377h-1.545 L12.811,16.469z"/><path fill="#4D4D4D" d="M23.313,14.462c0.928,0,1.66,0.274,2.197,0.824c0.537,0.549,0.806,1.305,0.806,2.267 c0,0.918-0.176,1.785-0.527,2.6s-0.828,1.445-1.428,1.89s-1.279,0.667-2.036,0.667c-0.938,0-1.672-0.276-2.205-0.828 s-0.798-1.306-0.798-2.263c0-0.928,0.178-1.8,0.535-2.618s0.837-1.445,1.443-1.883C21.905,14.681,22.576,14.462,23.313,14.462z M25.042,17.385c0-0.562-0.153-1.017-0.458-1.366c-0.306-0.349-0.719-0.524-1.242-0.524c-0.532,0-1.01,0.181-1.432,0.542 s-0.75,0.863-0.981,1.505s-0.348,1.356-0.348,2.142c0,0.64,0.155,1.134,0.465,1.483c0.31,0.35,0.756,0.524,1.337,0.524 c0.508,0,0.964-0.178,1.37-0.535s0.721-0.863,0.949-1.52C24.928,18.98,25.042,18.229,25.042,17.385z"/><path fill="#4D4D4D" d="M31.011,22.739c-0.474,0-0.89-0.125-1.249-0.374c-0.359-0.249-0.629-0.588-0.81-1.018H28.88l-0.513,1.245 h-0.916l2.417-11.396h1.23c-0.249,1.182-0.441,2.086-0.575,2.714c-0.135,0.627-0.319,1.361-0.553,2.201h0.066 c0.454-0.576,0.902-1,1.344-1.271c0.442-0.271,0.897-0.406,1.366-0.406c0.688,0,1.226,0.242,1.611,0.725s0.579,1.147,0.579,1.992 c0,1.021-0.167,1.964-0.501,2.831c-0.335,0.867-0.801,1.543-1.399,2.029S31.763,22.739,31.011,22.739z M32.374,15.451 c-0.469,0-0.946,0.232-1.432,0.696s-0.871,1.047-1.157,1.75c-0.285,0.703-0.428,1.423-0.428,2.161c0,0.537,0.135,0.948,0.407,1.234 c0.271,0.285,0.663,0.428,1.175,0.428c0.483,0,0.934-0.198,1.351-0.593c0.418-0.396,0.753-0.958,1.007-1.688 c0.254-0.729,0.381-1.505,0.381-2.325C33.677,16.005,33.243,15.451,32.374,15.451z"/><path fill="#4D4D4D" d="M39.456,11.884l0.059,0.161c-0.195,0.444-0.466,0.978-0.813,1.601c-0.347,0.622-0.735,1.258-1.165,1.908 h-0.945c0.654-1.455,1.15-2.678,1.487-3.669H39.456z"/><path fill="#4D4D4D" d="M43.609,20.314c0,0.762-0.27,1.356-0.809,1.784c-0.54,0.427-1.3,0.641-2.282,0.641 c-0.825,0-1.57-0.168-2.234-0.505v-1.157c0.342,0.205,0.71,0.364,1.106,0.476s0.762,0.168,1.099,0.168 c0.615,0,1.079-0.122,1.392-0.366s0.469-0.557,0.469-0.938c0-0.278-0.085-0.513-0.256-0.703s-0.54-0.452-1.106-0.784 c-0.635-0.356-1.084-0.706-1.348-1.047s-0.396-0.747-0.396-1.216c0-0.674,0.247-1.217,0.74-1.629s1.143-0.619,1.948-0.619 c0.835,0,1.641,0.181,2.417,0.542l-0.396,1.003l-0.41-0.183c-0.493-0.21-1.03-0.315-1.611-0.315c-0.454,0-0.811,0.106-1.069,0.319 c-0.259,0.212-0.388,0.487-0.388,0.824c0,0.273,0.086,0.508,0.26,0.703c0.173,0.195,0.531,0.447,1.073,0.754 c0.522,0.293,0.897,0.544,1.125,0.754c0.227,0.21,0.396,0.436,0.509,0.677C43.553,19.74,43.609,20.012,43.609,20.314z"/><path fill="#4D4D4D" d="M50.179,22.592l-0.916-8.027h1.23l0.469,4.49c0.117,1.26,0.176,2.144,0.176,2.651h0.044 c0.62-1.343,1.057-2.249,1.311-2.717l2.38-4.424h1.304l-4.329,8.027H50.179z"/><path fill="#4D4D4D" d="M60.154,14.418c0.449,0,0.85,0.121,1.201,0.362c0.352,0.242,0.625,0.59,0.82,1.044h0.081l0.491-1.26h0.93 l-1.707,8.027h-0.974l0.19-1.531h-0.059c-0.874,1.118-1.794,1.677-2.761,1.677c-0.679,0-1.211-0.242-1.597-0.725 s-0.579-1.145-0.579-1.985c0-1.016,0.173-1.958,0.52-2.827s0.825-1.55,1.436-2.043S59.427,14.418,60.154,14.418z M58.763,21.721 c0.474,0,0.945-0.226,1.414-0.677s0.85-1.04,1.143-1.766c0.293-0.725,0.439-1.451,0.439-2.179c0-0.503-0.137-0.903-0.41-1.201 s-0.632-0.447-1.077-0.447c-0.508,0-0.98,0.21-1.417,0.63s-0.78,0.989-1.029,1.707s-0.374,1.475-0.374,2.271 c0,0.557,0.115,0.973,0.344,1.249S58.348,21.721,58.763,21.721z"/><path fill="#4D4D4D" d="M67.251,14.565l-1.099,5.09c-0.088,0.435-0.132,0.774-0.132,1.018c0,0.698,0.359,1.047,1.077,1.047 c0.43,0,0.852-0.146,1.267-0.439s0.781-0.713,1.099-1.26s0.559-1.206,0.725-1.978l0.732-3.479h1.216l-1.692,8.027h-1.018 l0.161-1.487H69.5c-0.479,0.61-0.935,1.035-1.37,1.274s-0.884,0.359-1.348,0.359c-0.625,0-1.116-0.169-1.472-0.509 s-0.535-0.824-0.535-1.454c0-0.303,0.054-0.723,0.161-1.26l1.069-4.951H67.251z"/><path fill="#4D4D4D" d="M74.253,22.592h-1.23l2.432-11.396h1.23L74.253,22.592z"/><path fill="#4D4D4D" d="M79.307,21.735c0.269,0,0.62-0.063,1.055-0.19v0.945c-0.166,0.068-0.371,0.127-0.615,0.176 s-0.439,0.073-0.586,0.073c-0.61,0-1.078-0.146-1.403-0.436c-0.325-0.291-0.487-0.724-0.487-1.3c0-0.322,0.044-0.688,0.132-1.099 l0.93-4.409h-1.26l0.103-0.535l1.355-0.571l0.916-1.67h0.718l-0.403,1.846h2.007l-0.19,0.93h-2l-0.945,4.424 c-0.088,0.425-0.132,0.747-0.132,0.967c0,0.273,0.071,0.483,0.212,0.63S79.053,21.735,79.307,21.735z"/></g><g><rect width="41.129" height="38.646" x="65.632" y="47.323" fill="#2E58A6"/><g><path fill="#FFF" d="M73.089,54.532h2.42c1.137,0,1.959,0.17,2.467,0.51s0.762,0.877,0.762,1.611 c0,0.508-0.142,0.927-0.425,1.257s-0.696,0.544-1.239,0.642v0.059c1.301,0.223,1.951,0.906,1.951,2.051 c0,0.766-0.259,1.363-0.776,1.793s-1.241,0.645-2.171,0.645h-2.988V54.532z M74.085,58.2h1.641c0.703,0,1.209-0.11,1.518-0.331 s0.463-0.593,0.463-1.116c0-0.48-0.172-0.827-0.516-1.04s-0.891-0.319-1.641-0.319h-1.465V58.2z M74.085,59.044v3.205h1.787 c0.691,0,1.212-0.134,1.562-0.401s0.524-0.687,0.524-1.257c0-0.531-0.179-0.922-0.536-1.172s-0.901-0.375-1.632-0.375H74.085z"/><path fill="#FFF" d="M86.261,59.882c0,1.047-0.264,1.864-0.791,2.452s-1.256,0.882-2.186,0.882 c-0.574,0-1.084-0.135-1.529-0.404s-0.789-0.656-1.031-1.16s-0.363-1.094-0.363-1.77c0-1.047,0.262-1.862,0.785-2.446 s1.25-0.876,2.18-0.876c0.898,0,1.612,0.299,2.142,0.896S86.261,58.862,86.261,59.882z M81.368,59.882 c0,0.82,0.164,1.445,0.492,1.875s0.811,0.645,1.447,0.645s1.12-0.214,1.45-0.642s0.495-1.054,0.495-1.878 c0-0.816-0.165-1.437-0.495-1.86s-0.817-0.636-1.462-0.636c-0.637,0-1.117,0.209-1.441,0.627S81.368,59.054,81.368,59.882z"/><path fill="#FFF" d="M93.509,59.882c0,1.047-0.264,1.864-0.791,2.452s-1.256,0.882-2.186,0.882 c-0.574,0-1.084-0.135-1.529-0.404s-0.789-0.656-1.031-1.16s-0.363-1.094-0.363-1.77c0-1.047,0.262-1.862,0.785-2.446 s1.25-0.876,2.18-0.876c0.898,0,1.612,0.299,2.142,0.896S93.509,58.862,93.509,59.882z M88.616,59.882 c0,0.82,0.164,1.445,0.492,1.875s0.811,0.645,1.447,0.645s1.12-0.214,1.45-0.642s0.495-1.054,0.495-1.878 c0-0.816-0.165-1.437-0.495-1.86s-0.817-0.636-1.462-0.636c-0.637,0-1.117,0.209-1.441,0.627S88.616,59.054,88.616,59.882z"/><path fill="#FFF" d="M96.175,59.812c0.168-0.238,0.424-0.551,0.768-0.938l2.074-2.197h1.154l-2.602,2.736l2.783,3.686h-1.178 l-2.268-3.035l-0.732,0.633v2.402h-0.961v-9.117h0.961v4.834c0,0.215-0.016,0.547-0.047,0.996H96.175z"/><path fill="#FFF" d="M74.39,75.747c0,0.598-0.223,1.059-0.668,1.383s-1.07,0.486-1.875,0.486c-0.852,0-1.516-0.135-1.992-0.404 v-0.902c0.309,0.156,0.64,0.279,0.993,0.369s0.694,0.135,1.022,0.135c0.508,0,0.898-0.081,1.172-0.243s0.41-0.409,0.41-0.741 c0-0.25-0.108-0.464-0.325-0.642s-0.64-0.388-1.269-0.63c-0.598-0.223-1.022-0.417-1.274-0.583s-0.439-0.354-0.562-0.565 s-0.185-0.463-0.185-0.756c0-0.523,0.213-0.937,0.639-1.239s1.01-0.454,1.752-0.454c0.691,0,1.367,0.141,2.027,0.422l-0.346,0.791 c-0.645-0.266-1.229-0.398-1.752-0.398c-0.461,0-0.809,0.072-1.043,0.217s-0.352,0.344-0.352,0.598 c0,0.172,0.044,0.318,0.132,0.439s0.229,0.236,0.425,0.346s0.57,0.268,1.125,0.475c0.762,0.277,1.276,0.557,1.544,0.838 S74.39,75.321,74.39,75.747z"/><path fill="#FFF" d="M78.046,76.813c0.172,0,0.338-0.013,0.498-0.038s0.287-0.052,0.381-0.079v0.744 c-0.105,0.051-0.261,0.093-0.466,0.126s-0.39,0.05-0.554,0.05c-1.242,0-1.863-0.654-1.863-1.963v-3.82h-0.92v-0.469l0.92-0.404 l0.41-1.371h0.562v1.488h1.863v0.756h-1.863v3.779c0,0.387,0.092,0.684,0.275,0.891S77.726,76.813,78.046,76.813z"/><path fill="#FFF" d="M84.157,77.499l-0.193-0.914h-0.047c-0.32,0.402-0.64,0.675-0.958,0.817s-0.716,0.214-1.192,0.214 c-0.637,0-1.136-0.164-1.497-0.492s-0.542-0.795-0.542-1.4c0-1.297,1.037-1.977,3.111-2.039l1.09-0.035V73.25 c0-0.504-0.108-0.876-0.325-1.116s-0.563-0.36-1.04-0.36c-0.535,0-1.141,0.164-1.816,0.492l-0.299-0.744 c0.316-0.172,0.663-0.307,1.04-0.404s0.755-0.146,1.134-0.146c0.766,0,1.333,0.17,1.702,0.51s0.554,0.885,0.554,1.635v4.383 H84.157z M81.96,76.813c0.605,0,1.081-0.166,1.427-0.498s0.519-0.797,0.519-1.395v-0.58l-0.973,0.041 c-0.773,0.027-1.331,0.147-1.673,0.36s-0.513,0.544-0.513,0.993c0,0.352,0.106,0.619,0.319,0.803S81.577,76.813,81.96,76.813z"/><path fill="#FFF" d="M88.956,76.813c0.172,0,0.338-0.013,0.498-0.038s0.287-0.052,0.381-0.079v0.744 c-0.105,0.051-0.261,0.093-0.466,0.126s-0.39,0.05-0.554,0.05c-1.242,0-1.863-0.654-1.863-1.963v-3.82h-0.92v-0.469l0.92-0.404 l0.41-1.371h0.562v1.488h1.863v0.756h-1.863v3.779c0,0.387,0.092,0.684,0.275,0.891S88.636,76.813,88.956,76.813z"/><path fill="#FFF" d="M92.032,71.077v4.166c0,0.523,0.119,0.914,0.357,1.172s0.611,0.387,1.119,0.387 c0.672,0,1.163-0.184,1.474-0.551s0.466-0.967,0.466-1.799v-3.375h0.973v6.422h-0.803l-0.141-0.861h-0.053 c-0.199,0.316-0.476,0.559-0.829,0.727s-0.757,0.252-1.21,0.252c-0.781,0-1.366-0.186-1.755-0.557s-0.583-0.965-0.583-1.781 v-4.201H92.032z"/><path fill="#FFF" d="M102.626,75.747c0,0.598-0.223,1.059-0.668,1.383s-1.07,0.486-1.875,0.486 c-0.852,0-1.516-0.135-1.992-0.404v-0.902c0.309,0.156,0.64,0.279,0.993,0.369s0.694,0.135,1.022,0.135 c0.508,0,0.898-0.081,1.172-0.243s0.41-0.409,0.41-0.741c0-0.25-0.108-0.464-0.325-0.642s-0.64-0.388-1.269-0.63 c-0.598-0.223-1.022-0.417-1.274-0.583s-0.439-0.354-0.562-0.565s-0.185-0.463-0.185-0.756c0-0.523,0.213-0.937,0.639-1.239 s1.01-0.454,1.752-0.454c0.691,0,1.367,0.141,2.027,0.422l-0.346,0.791c-0.645-0.266-1.229-0.398-1.752-0.398 c-0.461,0-0.809,0.072-1.043,0.217s-0.352,0.344-0.352,0.598c0,0.172,0.044,0.318,0.132,0.439s0.229,0.236,0.425,0.346 s0.57,0.268,1.125,0.475c0.762,0.277,1.276,0.557,1.544,0.838S102.626,75.321,102.626,75.747z"/></g></g><rect width="41.129" height="38.646" x="8.632" y="28" fill="#2E58A6"/><rect width="41.129" height="38.646" x="19.852" y="70.334" fill="#2E58A6"/><rect width="112.332" height="105.548" x="242.168" y="5.979" fill="#C7D468" stroke="#4D4D4D" stroke-miterlimit="10"/><g><path fill="#4D4D4D" d="M252.939,19.187h-3.633l-1.794,3.406h-1.384l5.852-10.708h1.274l1.348,10.708h-1.245L252.939,19.187z M252.807,18.044l-0.256-2.19c-0.117-0.874-0.188-1.729-0.212-2.563c-0.181,0.43-0.377,0.857-0.589,1.282 c-0.213,0.425-0.822,1.582-1.828,3.472H252.807z"/><path fill="#4D4D4D" d="M256.96,22.592h-1.23l2.432-11.396h1.23L256.96,22.592z"/><path fill="#4D4D4D" d="M260.783,22.592h-1.23l1.714-8.027h1.23L260.783,22.592z M261.611,12.514c0-0.273,0.078-0.497,0.234-0.67 s0.359-0.26,0.608-0.26c0.43,0,0.645,0.22,0.645,0.659c0,0.269-0.082,0.496-0.246,0.681s-0.353,0.278-0.567,0.278 c-0.195,0-0.356-0.06-0.483-0.18C261.674,12.904,261.611,12.734,261.611,12.514z"/><path fill="#4D4D4D" d="M266.635,22.739c-0.947,0-1.682-0.261-2.205-0.784s-0.784-1.26-0.784-2.212 c0-0.977,0.181-1.877,0.542-2.703s0.86-1.469,1.498-1.93c0.637-0.462,1.354-0.692,2.149-0.692c0.669,0,1.323,0.125,1.963,0.374 l-0.344,1.033c-0.586-0.249-1.121-0.374-1.604-0.374c-0.547,0-1.046,0.187-1.498,0.56c-0.452,0.374-0.806,0.894-1.062,1.561 c-0.257,0.666-0.385,1.39-0.385,2.171c0,0.625,0.162,1.111,0.487,1.458c0.324,0.347,0.772,0.52,1.344,0.52 c0.352,0,0.684-0.049,0.996-0.146s0.62-0.212,0.923-0.344v1.047C268.051,22.585,267.377,22.739,266.635,22.739z"/><path fill="#4D4D4D" d="M273.286,22.739c-0.898,0-1.604-0.266-2.117-0.798s-0.769-1.27-0.769-2.212c0-0.918,0.182-1.798,0.546-2.64 c0.363-0.843,0.846-1.498,1.446-1.967s1.262-0.703,1.985-0.703c0.747,0,1.309,0.163,1.685,0.487s0.564,0.777,0.564,1.358 c0,0.879-0.405,1.569-1.216,2.069s-1.97,0.75-3.479,0.75h-0.242l-0.029,0.586c0,0.64,0.15,1.139,0.45,1.498 c0.301,0.359,0.766,0.539,1.396,0.539c0.308,0,0.624-0.044,0.948-0.132s0.729-0.249,1.212-0.483v1.069 c-0.459,0.215-0.864,0.365-1.216,0.451C274.099,22.696,273.71,22.739,273.286,22.739z M274.304,15.466 c-0.503,0-0.976,0.229-1.417,0.688s-0.78,1.096-1.014,1.912h0.088c1.113,0,1.966-0.145,2.56-0.436 c0.593-0.291,0.89-0.712,0.89-1.264c0-0.259-0.089-0.474-0.268-0.645S274.685,15.466,274.304,15.466z"/><path fill="#4D4D4D" d="M280.859,11.884l0.059,0.161c-0.195,0.444-0.466,0.978-0.813,1.601c-0.347,0.622-0.735,1.258-1.165,1.908 h-0.945c0.654-1.455,1.15-2.678,1.487-3.669H280.859z"/><path fill="#4D4D4D" d="M285.012,20.314c0,0.762-0.27,1.356-0.809,1.784c-0.54,0.427-1.3,0.641-2.282,0.641 c-0.825,0-1.57-0.168-2.234-0.505v-1.157c0.342,0.205,0.71,0.364,1.106,0.476s0.762,0.168,1.099,0.168 c0.615,0,1.079-0.122,1.392-0.366s0.469-0.557,0.469-0.938c0-0.278-0.085-0.513-0.256-0.703s-0.54-0.452-1.106-0.784 c-0.635-0.356-1.084-0.706-1.348-1.047s-0.396-0.747-0.396-1.216c0-0.674,0.247-1.217,0.74-1.629s1.143-0.619,1.948-0.619 c0.835,0,1.641,0.181,2.417,0.542l-0.396,1.003l-0.41-0.183c-0.493-0.21-1.03-0.315-1.611-0.315c-0.454,0-0.811,0.106-1.069,0.319 c-0.259,0.212-0.388,0.487-0.388,0.824c0,0.273,0.086,0.508,0.26,0.703c0.173,0.195,0.531,0.447,1.073,0.754 c0.522,0.293,0.897,0.544,1.125,0.754c0.227,0.21,0.396,0.436,0.509,0.677C284.956,19.74,285.012,20.012,285.012,20.314z"/><path fill="#4D4D4D" d="M291.582,22.592l-0.916-8.027h1.23l0.469,4.49c0.117,1.26,0.176,2.144,0.176,2.651h0.044 c0.62-1.343,1.057-2.249,1.311-2.717l2.38-4.424h1.304l-4.329,8.027H291.582z"/><path fill="#4D4D4D" d="M301.557,14.418c0.449,0,0.85,0.121,1.201,0.362c0.352,0.242,0.625,0.59,0.82,1.044h0.081l0.491-1.26h0.93 l-1.707,8.027h-0.974l0.19-1.531h-0.059c-0.874,1.118-1.794,1.677-2.761,1.677c-0.679,0-1.211-0.242-1.597-0.725 s-0.579-1.145-0.579-1.985c0-1.016,0.173-1.958,0.52-2.827s0.825-1.55,1.436-2.043S300.83,14.418,301.557,14.418z M300.166,21.721 c0.474,0,0.945-0.226,1.414-0.677s0.85-1.04,1.143-1.766c0.293-0.725,0.439-1.451,0.439-2.179c0-0.503-0.137-0.903-0.41-1.201 s-0.632-0.447-1.077-0.447c-0.508,0-0.98,0.21-1.417,0.63s-0.78,0.989-1.029,1.707s-0.374,1.475-0.374,2.271 c0,0.557,0.115,0.973,0.344,1.249S299.75,21.721,300.166,21.721z"/><path fill="#4D4D4D" d="M308.654,14.565l-1.099,5.09c-0.088,0.435-0.132,0.774-0.132,1.018c0,0.698,0.359,1.047,1.077,1.047 c0.43,0,0.852-0.146,1.267-0.439s0.781-0.713,1.099-1.26s0.559-1.206,0.725-1.978l0.732-3.479h1.216l-1.692,8.027h-1.018 l0.161-1.487h-0.088c-0.479,0.61-0.935,1.035-1.37,1.274s-0.884,0.359-1.348,0.359c-0.625,0-1.116-0.169-1.472-0.509 s-0.535-0.824-0.535-1.454c0-0.303,0.054-0.723,0.161-1.26l1.069-4.951H308.654z"/><path fill="#4D4D4D" d="M315.656,22.592h-1.23l2.432-11.396h1.23L315.656,22.592z"/><path fill="#4D4D4D" d="M320.71,21.735c0.269,0,0.62-0.063,1.055-0.19v0.945c-0.166,0.068-0.371,0.127-0.615,0.176 s-0.439,0.073-0.586,0.073c-0.61,0-1.078-0.146-1.403-0.436c-0.325-0.291-0.487-0.724-0.487-1.3c0-0.322,0.044-0.688,0.132-1.099 l0.93-4.409h-1.26l0.103-0.535l1.355-0.571l0.916-1.67h0.718l-0.403,1.846h2.007l-0.19,0.93h-2l-0.945,4.424 c-0.088,0.425-0.132,0.747-0.132,0.967c0,0.273,0.071,0.483,0.212,0.63S320.456,21.735,320.71,21.735z"/></g><g><rect width="41.129" height="38.646" x="277.77" y="29.323" fill="#2E58A6"/><g><path fill="#FFF" d="M285.227,36.532h2.42c1.137,0,1.959,0.17,2.467,0.51s0.762,0.877,0.762,1.611 c0,0.508-0.142,0.927-0.425,1.257s-0.696,0.544-1.239,0.642v0.059c1.301,0.223,1.951,0.906,1.951,2.051 c0,0.766-0.259,1.363-0.776,1.793s-1.241,0.645-2.171,0.645h-2.988V36.532z M286.223,40.2h1.641c0.703,0,1.209-0.11,1.518-0.331 s0.463-0.593,0.463-1.116c0-0.48-0.172-0.827-0.516-1.04s-0.891-0.319-1.641-0.319h-1.465V40.2z M286.223,41.044v3.205h1.787 c0.691,0,1.212-0.134,1.562-0.401s0.524-0.687,0.524-1.257c0-0.531-0.179-0.922-0.536-1.172s-0.901-0.375-1.632-0.375H286.223z"/><path fill="#FFF" d="M298.398,41.882c0,1.047-0.264,1.864-0.791,2.452s-1.256,0.882-2.186,0.882 c-0.574,0-1.084-0.135-1.529-0.404s-0.789-0.656-1.031-1.16s-0.363-1.094-0.363-1.77c0-1.047,0.262-1.862,0.785-2.446 s1.25-0.876,2.18-0.876c0.898,0,1.612,0.299,2.142,0.896S298.398,40.862,298.398,41.882z M293.506,41.882 c0,0.82,0.164,1.445,0.492,1.875s0.811,0.645,1.447,0.645s1.12-0.214,1.45-0.642s0.495-1.054,0.495-1.878 c0-0.816-0.165-1.437-0.495-1.86s-0.817-0.636-1.462-0.636c-0.637,0-1.117,0.209-1.441,0.627S293.506,41.054,293.506,41.882z"/><path fill="#FFF" d="M305.646,41.882c0,1.047-0.264,1.864-0.791,2.452s-1.256,0.882-2.186,0.882 c-0.574,0-1.084-0.135-1.529-0.404s-0.789-0.656-1.031-1.16s-0.363-1.094-0.363-1.77c0-1.047,0.262-1.862,0.785-2.446 s1.25-0.876,2.18-0.876c0.898,0,1.612,0.299,2.142,0.896S305.646,40.862,305.646,41.882z M300.754,41.882 c0,0.82,0.164,1.445,0.492,1.875s0.811,0.645,1.447,0.645s1.12-0.214,1.45-0.642s0.495-1.054,0.495-1.878 c0-0.816-0.165-1.437-0.495-1.86s-0.817-0.636-1.462-0.636c-0.637,0-1.117,0.209-1.441,0.627S300.754,41.054,300.754,41.882z"/><path fill="#FFF" d="M308.312,41.812c0.168-0.238,0.424-0.551,0.768-0.938l2.074-2.197h1.154l-2.602,2.736l2.783,3.686h-1.178 l-2.268-3.035l-0.732,0.633v2.402h-0.961v-9.117h0.961v4.834c0,0.215-0.016,0.547-0.047,0.996H308.312z"/><path fill="#FFF" d="M286.527,57.747c0,0.598-0.223,1.059-0.668,1.383s-1.07,0.486-1.875,0.486 c-0.852,0-1.516-0.135-1.992-0.404v-0.902c0.309,0.156,0.64,0.279,0.993,0.369s0.694,0.135,1.022,0.135 c0.508,0,0.898-0.081,1.172-0.243s0.41-0.409,0.41-0.741c0-0.25-0.108-0.464-0.325-0.642s-0.64-0.388-1.269-0.63 c-0.598-0.223-1.022-0.417-1.274-0.583s-0.439-0.354-0.562-0.565s-0.185-0.463-0.185-0.756c0-0.523,0.213-0.937,0.639-1.239 s1.01-0.454,1.752-0.454c0.691,0,1.367,0.141,2.027,0.422l-0.346,0.791c-0.645-0.266-1.229-0.398-1.752-0.398 c-0.461,0-0.809,0.072-1.043,0.217s-0.352,0.344-0.352,0.598c0,0.172,0.044,0.318,0.132,0.439s0.229,0.236,0.425,0.346 s0.57,0.268,1.125,0.475c0.762,0.277,1.276,0.557,1.544,0.838S286.527,57.321,286.527,57.747z"/><path fill="#FFF" d="M290.184,58.813c0.172,0,0.338-0.013,0.498-0.038s0.287-0.052,0.381-0.079v0.744 c-0.105,0.051-0.261,0.093-0.466,0.126s-0.39,0.05-0.554,0.05c-1.242,0-1.863-0.654-1.863-1.963v-3.82h-0.92v-0.469l0.92-0.404 l0.41-1.371h0.562v1.488h1.863v0.756h-1.863v3.779c0,0.387,0.092,0.684,0.275,0.891S289.863,58.813,290.184,58.813z"/><path fill="#FFF" d="M296.295,59.499l-0.193-0.914h-0.047c-0.32,0.402-0.64,0.675-0.958,0.817s-0.716,0.214-1.192,0.214 c-0.637,0-1.136-0.164-1.497-0.492s-0.542-0.795-0.542-1.4c0-1.297,1.037-1.977,3.111-2.039l1.09-0.035V55.25 c0-0.504-0.108-0.876-0.325-1.116s-0.563-0.36-1.04-0.36c-0.535,0-1.141,0.164-1.816,0.492l-0.299-0.744 c0.316-0.172,0.663-0.307,1.04-0.404s0.755-0.146,1.134-0.146c0.766,0,1.333,0.17,1.702,0.51s0.554,0.885,0.554,1.635v4.383 H296.295z M294.098,58.813c0.605,0,1.081-0.166,1.427-0.498s0.519-0.797,0.519-1.395v-0.58l-0.973,0.041 c-0.773,0.027-1.331,0.147-1.673,0.36s-0.513,0.544-0.513,0.993c0,0.352,0.106,0.619,0.319,0.803S293.715,58.813,294.098,58.813z"/><path fill="#FFF" d="M301.094,58.813c0.172,0,0.338-0.013,0.498-0.038s0.287-0.052,0.381-0.079v0.744 c-0.105,0.051-0.261,0.093-0.466,0.126s-0.39,0.05-0.554,0.05c-1.242,0-1.863-0.654-1.863-1.963v-3.82h-0.92v-0.469l0.92-0.404 l0.41-1.371h0.562v1.488h1.863v0.756h-1.863v3.779c0,0.387,0.092,0.684,0.275,0.891S300.773,58.813,301.094,58.813z"/><path fill="#FFF" d="M304.17,53.077v4.166c0,0.523,0.119,0.914,0.357,1.172s0.611,0.387,1.119,0.387 c0.672,0,1.163-0.184,1.474-0.551s0.466-0.967,0.466-1.799v-3.375h0.973v6.422h-0.803l-0.141-0.861h-0.053 c-0.199,0.316-0.476,0.559-0.829,0.727s-0.757,0.252-1.21,0.252c-0.781,0-1.366-0.186-1.755-0.557s-0.583-0.965-0.583-1.781 v-4.201H304.17z"/><path fill="#FFF" d="M314.764,57.747c0,0.598-0.223,1.059-0.668,1.383s-1.07,0.486-1.875,0.486 c-0.852,0-1.516-0.135-1.992-0.404v-0.902c0.309,0.156,0.64,0.279,0.993,0.369s0.694,0.135,1.022,0.135 c0.508,0,0.898-0.081,1.172-0.243s0.41-0.409,0.41-0.741c0-0.25-0.108-0.464-0.325-0.642s-0.64-0.388-1.269-0.63 c-0.598-0.223-1.022-0.417-1.274-0.583s-0.439-0.354-0.562-0.565s-0.185-0.463-0.185-0.756c0-0.523,0.213-0.937,0.639-1.239 s1.01-0.454,1.752-0.454c0.691,0,1.367,0.141,2.027,0.422l-0.346,0.791c-0.645-0.266-1.229-0.398-1.752-0.398 c-0.461,0-0.809,0.072-1.043,0.217s-0.352,0.344-0.352,0.598c0,0.172,0.044,0.318,0.132,0.439s0.229,0.236,0.425,0.346 s0.57,0.268,1.125,0.475c0.762,0.277,1.276,0.557,1.544,0.838S314.764,57.321,314.764,57.747z"/></g></g><rect width="41.129" height="38.646" x="257.205" y="70.334" fill="#2E58A6"/><rect width="41.129" height="38.645" x="304.205" y="70.334" fill="#2E58A6"/><rect width="112.332" height="105.548" x="124.981" y="5.979" fill="#C7D468" stroke="#4D4D4D" stroke-miterlimit="10"/><g><path fill="#4D4D4D" d="M136.697,12.844c-0.85,0-1.61,0.237-2.281,0.71c-0.672,0.474-1.204,1.168-1.597,2.084 c-0.394,0.915-0.59,1.913-0.59,2.992c0,0.913,0.238,1.642,0.714,2.186c0.477,0.545,1.132,0.817,1.967,0.817 c0.679,0,1.465-0.139,2.358-0.417v1.091c-0.42,0.151-0.82,0.261-1.201,0.33s-0.84,0.103-1.377,0.103 c-1.182,0-2.109-0.365-2.783-1.095s-1.011-1.725-1.011-2.985c0-1.274,0.257-2.459,0.772-3.556c0.515-1.096,1.208-1.932,2.077-2.508 s1.853-0.864,2.952-0.864c0.962,0,1.812,0.195,2.549,0.586l-0.505,1.033C138.067,13.012,137.386,12.844,136.697,12.844z"/><path fill="#4D4D4D" d="M143.252,14.418c0.449,0,0.85,0.121,1.201,0.362c0.352,0.242,0.625,0.59,0.82,1.044h0.081l0.491-1.26h0.93 l-1.707,8.027h-0.974l0.19-1.531h-0.059c-0.874,1.118-1.794,1.677-2.761,1.677c-0.679,0-1.211-0.242-1.597-0.725 s-0.579-1.145-0.579-1.985c0-1.016,0.173-1.958,0.52-2.827s0.825-1.55,1.436-2.043S142.525,14.418,143.252,14.418z M141.861,21.721 c0.474,0,0.945-0.226,1.414-0.677s0.85-1.04,1.143-1.766c0.293-0.725,0.439-1.451,0.439-2.179c0-0.503-0.137-0.903-0.41-1.201 s-0.632-0.447-1.077-0.447c-0.508,0-0.98,0.21-1.417,0.63s-0.78,0.989-1.029,1.707s-0.374,1.475-0.374,2.271 c0,0.557,0.115,0.973,0.344,1.249S141.446,21.721,141.861,21.721z"/><path fill="#4D4D4D" d="M152.554,14.418c0.337,0,0.63,0.034,0.879,0.103l-0.264,1.099c-0.259-0.063-0.515-0.095-0.769-0.095 c-0.444,0-0.861,0.146-1.249,0.439c-0.389,0.293-0.728,0.7-1.019,1.219c-0.291,0.521-0.504,1.098-0.641,1.732l-0.784,3.677h-1.23 l1.714-8.027h1.018l-0.161,1.487h0.073c0.352-0.464,0.642-0.797,0.872-1s0.47-0.359,0.721-0.469 C151.967,14.473,152.247,14.418,152.554,14.418z"/><path fill="#4D4D4D" d="M157.696,14.462c0.928,0,1.66,0.274,2.197,0.824c0.537,0.549,0.806,1.305,0.806,2.267 c0,0.918-0.176,1.785-0.527,2.6s-0.828,1.445-1.428,1.89s-1.279,0.667-2.036,0.667c-0.938,0-1.672-0.276-2.205-0.828 s-0.798-1.306-0.798-2.263c0-0.928,0.178-1.8,0.535-2.618s0.837-1.445,1.443-1.883C156.287,14.681,156.958,14.462,157.696,14.462z M159.424,17.385c0-0.562-0.153-1.017-0.458-1.366c-0.306-0.349-0.719-0.524-1.242-0.524c-0.532,0-1.01,0.181-1.432,0.542 s-0.75,0.863-0.981,1.505s-0.348,1.356-0.348,2.142c0,0.64,0.155,1.134,0.465,1.483c0.31,0.35,0.756,0.524,1.337,0.524 c0.508,0,0.964-0.178,1.37-0.535s0.721-0.863,0.949-1.52C159.311,18.98,159.424,18.229,159.424,17.385z"/><path fill="#4D4D4D" d="M163.05,22.592h-1.23l2.432-11.396h1.23L163.05,22.592z"/><path fill="#4D4D4D" d="M168.99,11.884l0.059,0.161c-0.195,0.444-0.466,0.978-0.813,1.601c-0.347,0.622-0.735,1.258-1.165,1.908 h-0.945c0.654-1.455,1.15-2.678,1.487-3.669H168.99z"/><path fill="#4D4D4D" d="M173.143,20.314c0,0.762-0.27,1.356-0.809,1.784c-0.54,0.427-1.3,0.641-2.282,0.641 c-0.825,0-1.57-0.168-2.234-0.505v-1.157c0.342,0.205,0.71,0.364,1.106,0.476s0.762,0.168,1.099,0.168 c0.615,0,1.079-0.122,1.392-0.366s0.469-0.557,0.469-0.938c0-0.278-0.085-0.513-0.256-0.703s-0.54-0.452-1.106-0.784 c-0.635-0.356-1.084-0.706-1.348-1.047s-0.396-0.747-0.396-1.216c0-0.674,0.247-1.217,0.74-1.629s1.143-0.619,1.948-0.619 c0.835,0,1.641,0.181,2.417,0.542l-0.396,1.003l-0.41-0.183c-0.493-0.21-1.03-0.315-1.611-0.315c-0.454,0-0.811,0.106-1.069,0.319 c-0.259,0.212-0.388,0.487-0.388,0.824c0,0.273,0.086,0.508,0.26,0.703c0.173,0.195,0.531,0.447,1.073,0.754 c0.522,0.293,0.897,0.544,1.125,0.754c0.227,0.21,0.396,0.436,0.509,0.677C173.086,19.74,173.143,20.012,173.143,20.314z"/><path fill="#4D4D4D" d="M179.712,22.592l-0.916-8.027h1.23l0.469,4.49c0.117,1.26,0.176,2.144,0.176,2.651h0.044 c0.62-1.343,1.057-2.249,1.311-2.717l2.38-4.424h1.304l-4.329,8.027H179.712z"/><path fill="#4D4D4D" d="M189.688,14.418c0.449,0,0.85,0.121,1.201,0.362c0.352,0.242,0.625,0.59,0.82,1.044h0.081l0.491-1.26h0.93 l-1.707,8.027h-0.974l0.19-1.531h-0.059c-0.874,1.118-1.794,1.677-2.761,1.677c-0.679,0-1.211-0.242-1.597-0.725 s-0.579-1.145-0.579-1.985c0-1.016,0.173-1.958,0.52-2.827s0.825-1.55,1.436-2.043S188.96,14.418,189.688,14.418z M188.296,21.721 c0.474,0,0.945-0.226,1.414-0.677s0.85-1.04,1.143-1.766c0.293-0.725,0.439-1.451,0.439-2.179c0-0.503-0.137-0.903-0.41-1.201 s-0.632-0.447-1.077-0.447c-0.508,0-0.98,0.21-1.417,0.63s-0.78,0.989-1.029,1.707s-0.374,1.475-0.374,2.271 c0,0.557,0.115,0.973,0.344,1.249S187.881,21.721,188.296,21.721z"/><path fill="#4D4D4D" d="M196.785,14.565l-1.099,5.09c-0.088,0.435-0.132,0.774-0.132,1.018c0,0.698,0.359,1.047,1.077,1.047 c0.43,0,0.852-0.146,1.267-0.439s0.781-0.713,1.099-1.26s0.559-1.206,0.725-1.978l0.732-3.479h1.216l-1.692,8.027h-1.018 l0.161-1.487h-0.088c-0.479,0.61-0.935,1.035-1.37,1.274s-0.884,0.359-1.348,0.359c-0.625,0-1.116-0.169-1.472-0.509 s-0.535-0.824-0.535-1.454c0-0.303,0.054-0.723,0.161-1.26l1.069-4.951H196.785z"/><path fill="#4D4D4D" d="M203.787,22.592h-1.23l2.432-11.396h1.23L203.787,22.592z"/><path fill="#4D4D4D" d="M208.841,21.735c0.269,0,0.62-0.063,1.055-0.19v0.945c-0.166,0.068-0.371,0.127-0.615,0.176 s-0.439,0.073-0.586,0.073c-0.61,0-1.078-0.146-1.403-0.436c-0.325-0.291-0.487-0.724-0.487-1.3c0-0.322,0.044-0.688,0.132-1.099 l0.93-4.409h-1.26l0.103-0.535l1.355-0.571l0.916-1.67h0.718l-0.403,1.846h2.007l-0.19,0.93h-2l-0.945,4.424 c-0.088,0.425-0.132,0.747-0.132,0.967c0,0.273,0.071,0.483,0.212,0.63S208.587,21.735,208.841,21.735z"/></g><g><rect width="41.129" height="38.646" x="140.019" y="52.656" fill="#2E58A6"/><g><path fill="#FFF" d="M147.476,59.866h2.42c1.137,0,1.959,0.17,2.467,0.51s0.762,0.877,0.762,1.611 c0,0.508-0.142,0.927-0.425,1.257s-0.696,0.544-1.239,0.642v0.059c1.301,0.223,1.951,0.906,1.951,2.051 c0,0.766-0.259,1.363-0.776,1.793s-1.241,0.645-2.171,0.645h-2.988V59.866z M148.472,63.534h1.641c0.703,0,1.209-0.11,1.518-0.331 s0.463-0.593,0.463-1.116c0-0.48-0.172-0.827-0.516-1.04s-0.891-0.319-1.641-0.319h-1.465V63.534z M148.472,64.377v3.205h1.787 c0.691,0,1.212-0.134,1.562-0.401s0.524-0.687,0.524-1.257c0-0.531-0.179-0.922-0.536-1.172s-0.901-0.375-1.632-0.375H148.472z"/><path fill="#FFF" d="M160.647,65.215c0,1.047-0.264,1.864-0.791,2.452s-1.256,0.882-2.186,0.882 c-0.574,0-1.084-0.135-1.529-0.404s-0.789-0.656-1.031-1.16s-0.363-1.094-0.363-1.77c0-1.047,0.262-1.862,0.785-2.446 s1.25-0.876,2.18-0.876c0.898,0,1.612,0.299,2.142,0.896S160.647,64.196,160.647,65.215z M155.755,65.215 c0,0.82,0.164,1.445,0.492,1.875s0.811,0.645,1.447,0.645s1.12-0.214,1.45-0.642s0.495-1.054,0.495-1.878 c0-0.816-0.165-1.437-0.495-1.86s-0.817-0.636-1.462-0.636c-0.637,0-1.117,0.209-1.441,0.627S155.755,64.387,155.755,65.215z"/><path fill="#FFF" d="M167.896,65.215c0,1.047-0.264,1.864-0.791,2.452s-1.256,0.882-2.186,0.882 c-0.574,0-1.084-0.135-1.529-0.404s-0.789-0.656-1.031-1.16s-0.363-1.094-0.363-1.77c0-1.047,0.262-1.862,0.785-2.446 s1.25-0.876,2.18-0.876c0.898,0,1.612,0.299,2.142,0.896S167.896,64.196,167.896,65.215z M163.003,65.215 c0,0.82,0.164,1.445,0.492,1.875s0.811,0.645,1.447,0.645s1.12-0.214,1.45-0.642s0.495-1.054,0.495-1.878 c0-0.816-0.165-1.437-0.495-1.86s-0.817-0.636-1.462-0.636c-0.637,0-1.117,0.209-1.441,0.627S163.003,64.387,163.003,65.215z"/><path fill="#FFF" d="M170.562,65.145c0.168-0.238,0.424-0.551,0.768-0.938l2.074-2.197h1.154l-2.602,2.736l2.783,3.686h-1.178 l-2.268-3.035l-0.732,0.633v2.402h-0.961v-9.117h0.961v4.834c0,0.215-0.016,0.547-0.047,0.996H170.562z"/><path fill="#FFF" d="M148.776,81.08c0,0.598-0.223,1.059-0.668,1.383s-1.07,0.486-1.875,0.486 c-0.852,0-1.516-0.135-1.992-0.404v-0.902c0.309,0.156,0.64,0.279,0.993,0.369s0.694,0.135,1.022,0.135 c0.508,0,0.898-0.081,1.172-0.243s0.41-0.409,0.41-0.741c0-0.25-0.108-0.464-0.325-0.642s-0.64-0.388-1.269-0.63 c-0.598-0.223-1.022-0.417-1.274-0.583s-0.439-0.354-0.562-0.565s-0.185-0.463-0.185-0.756c0-0.523,0.213-0.937,0.639-1.239 s1.01-0.454,1.752-0.454c0.691,0,1.367,0.141,2.027,0.422l-0.346,0.791c-0.645-0.266-1.229-0.398-1.752-0.398 c-0.461,0-0.809,0.072-1.043,0.217s-0.352,0.344-0.352,0.598c0,0.172,0.044,0.318,0.132,0.439s0.229,0.236,0.425,0.346 s0.57,0.268,1.125,0.475c0.762,0.277,1.276,0.557,1.544,0.838S148.776,80.654,148.776,81.08z"/><path fill="#FFF" d="M152.433,82.146c0.172,0,0.338-0.013,0.498-0.038s0.287-0.052,0.381-0.079v0.744 c-0.105,0.051-0.261,0.093-0.466,0.126s-0.39,0.05-0.554,0.05c-1.242,0-1.863-0.654-1.863-1.963v-3.82h-0.92v-0.469l0.92-0.404 l0.41-1.371h0.562v1.488h1.863v0.756h-1.863v3.779c0,0.387,0.092,0.684,0.275,0.891S152.112,82.146,152.433,82.146z"/><path fill="#FFF" d="M158.544,82.832l-0.193-0.914h-0.047c-0.32,0.402-0.64,0.675-0.958,0.817s-0.716,0.214-1.192,0.214 c-0.637,0-1.136-0.164-1.497-0.492s-0.542-0.795-0.542-1.4c0-1.297,1.037-1.977,3.111-2.039l1.09-0.035v-0.398 c0-0.504-0.108-0.876-0.325-1.116s-0.563-0.36-1.04-0.36c-0.535,0-1.141,0.164-1.816,0.492l-0.299-0.744 c0.316-0.172,0.663-0.307,1.04-0.404s0.755-0.146,1.134-0.146c0.766,0,1.333,0.17,1.702,0.51s0.554,0.885,0.554,1.635v4.383 H158.544z M156.347,82.146c0.605,0,1.081-0.166,1.427-0.498s0.519-0.797,0.519-1.395v-0.58l-0.973,0.041 c-0.773,0.027-1.331,0.147-1.673,0.36s-0.513,0.544-0.513,0.993c0,0.352,0.106,0.619,0.319,0.803S155.964,82.146,156.347,82.146z"/><path fill="#FFF" d="M163.343,82.146c0.172,0,0.338-0.013,0.498-0.038s0.287-0.052,0.381-0.079v0.744 c-0.105,0.051-0.261,0.093-0.466,0.126s-0.39,0.05-0.554,0.05c-1.242,0-1.863-0.654-1.863-1.963v-3.82h-0.92v-0.469l0.92-0.404 l0.41-1.371h0.562v1.488h1.863v0.756h-1.863v3.779c0,0.387,0.092,0.684,0.275,0.891S163.022,82.146,163.343,82.146z"/><path fill="#FFF" d="M166.419,76.41v4.166c0,0.523,0.119,0.914,0.357,1.172s0.611,0.387,1.119,0.387 c0.672,0,1.163-0.184,1.474-0.551s0.466-0.967,0.466-1.799V76.41h0.973v6.422h-0.803l-0.141-0.861h-0.053 c-0.199,0.316-0.476,0.559-0.829,0.727s-0.757,0.252-1.21,0.252c-0.781,0-1.366-0.186-1.755-0.557s-0.583-0.965-0.583-1.781V76.41 H166.419z"/><path fill="#FFF" d="M177.013,81.08c0,0.598-0.223,1.059-0.668,1.383s-1.07,0.486-1.875,0.486 c-0.852,0-1.516-0.135-1.992-0.404v-0.902c0.309,0.156,0.64,0.279,0.993,0.369s0.694,0.135,1.022,0.135 c0.508,0,0.898-0.081,1.172-0.243s0.41-0.409,0.41-0.741c0-0.25-0.108-0.464-0.325-0.642s-0.64-0.388-1.269-0.63 c-0.598-0.223-1.022-0.417-1.274-0.583s-0.439-0.354-0.562-0.565s-0.185-0.463-0.185-0.756c0-0.523,0.213-0.937,0.639-1.239 s1.01-0.454,1.752-0.454c0.691,0,1.367,0.141,2.027,0.422l-0.346,0.791c-0.645-0.266-1.229-0.398-1.752-0.398 c-0.461,0-0.809,0.072-1.043,0.217s-0.352,0.344-0.352,0.598c0,0.172,0.044,0.318,0.132,0.439s0.229,0.236,0.425,0.346 s0.57,0.268,1.125,0.475c0.762,0.277,1.276,0.557,1.544,0.838S177.013,80.654,177.013,81.08z"/></g></g><rect width="41.129" height="38.645" x="187.018" y="70.334" fill="#2E58A6"/><rect width="185.802" height="165.13" x="88.246" y="180.5" fill="#C7D468" stroke="#4D4D4D" stroke-miterlimit="10"/><g><path fill="#4D4D4D" d="M98.536,328.891c2.109,0,3.164,0.82,3.164,2.461c0,0.689-0.212,1.27-0.637,1.744 c-0.425,0.473-1.023,0.781-1.794,0.922v0.074c0.562,0.156,0.992,0.426,1.293,0.809c0.3,0.384,0.45,0.844,0.45,1.381 c0,1.035-0.371,1.848-1.113,2.436s-1.736,0.883-2.981,0.883h-3.391l2.263-10.709H98.536z M94.999,338.537h1.948 c0.884,0,1.562-0.196,2.036-0.59c0.474-0.393,0.71-0.948,0.71-1.666c0-0.566-0.182-1-0.546-1.301 c-0.364-0.299-0.887-0.449-1.571-0.449h-1.729L94.999,338.537z M96.075,333.477h1.816c0.762,0,1.37-0.179,1.824-0.535 s0.681-0.842,0.681-1.457c0-0.508-0.163-0.888-0.487-1.139c-0.325-0.252-0.836-0.378-1.534-0.378H96.83L96.075,333.477z"/><path fill="#4D4D4D" d="M106.578,331.469c0.928,0,1.66,0.275,2.197,0.824s0.806,1.305,0.806,2.268c0,0.918-0.176,1.784-0.527,2.6 s-0.828,1.445-1.428,1.89s-1.279,0.667-2.036,0.667c-0.938,0-1.672-0.276-2.205-0.828s-0.798-1.307-0.798-2.264 c0-0.928,0.178-1.8,0.535-2.617c0.356-0.818,0.837-1.445,1.443-1.883S105.841,331.469,106.578,331.469z M108.307,334.392 c0-0.562-0.153-1.017-0.458-1.366c-0.306-0.349-0.719-0.523-1.242-0.523c-0.532,0-1.01,0.181-1.432,0.542s-0.75,0.863-0.981,1.505 c-0.232,0.643-0.348,1.356-0.348,2.143c0,0.64,0.155,1.135,0.465,1.482c0.31,0.35,0.756,0.524,1.337,0.524 c0.508,0,0.964-0.179,1.37-0.534c0.405-0.357,0.721-0.863,0.949-1.52C108.193,335.987,108.307,335.236,108.307,334.392z"/><path fill="#4D4D4D" d="M114.994,331.469c0.928,0,1.66,0.275,2.197,0.824s0.806,1.305,0.806,2.268c0,0.918-0.176,1.784-0.527,2.6 s-0.828,1.445-1.428,1.89s-1.279,0.667-2.036,0.667c-0.938,0-1.672-0.276-2.205-0.828s-0.798-1.307-0.798-2.264 c0-0.928,0.178-1.8,0.535-2.617c0.356-0.818,0.837-1.445,1.443-1.883S114.256,331.469,114.994,331.469z M116.722,334.392 c0-0.562-0.153-1.017-0.458-1.366c-0.306-0.349-0.719-0.523-1.242-0.523c-0.532,0-1.01,0.181-1.432,0.542s-0.75,0.863-0.981,1.505 c-0.232,0.643-0.348,1.356-0.348,2.143c0,0.64,0.155,1.135,0.465,1.482c0.31,0.35,0.756,0.524,1.337,0.524 c0.508,0,0.964-0.179,1.37-0.534c0.405-0.357,0.721-0.863,0.949-1.52C116.608,335.987,116.722,335.236,116.722,334.392z"/><path fill="#4D4D4D" d="M121.117,335.505l3.853-3.933h1.472l-3.435,3.42l2.161,4.607h-1.37l-1.721-3.838l-1.113,0.9l-0.601,2.938 h-1.245l2.417-11.396h1.245c-0.352,1.641-0.667,3.109-0.945,4.408s-0.527,2.264-0.747,2.894H121.117z"/><path fill="#4D4D4D" d="M137.486,339.6h-1.362c-0.352-0.885-0.709-1.762-1.073-2.633c-0.364-0.873-0.721-1.755-1.073-2.648 l-1.274,0.959l-0.916,4.322h-1.245l2.263-10.709h1.245l-1.106,5.201l5.127-5.201h1.531l-4.68,4.666L137.486,339.6z"/><path fill="#4D4D4D" d="M143.609,339.6l1.084-5.068c0.098-0.508,0.146-0.859,0.146-1.055c0-0.309-0.087-0.555-0.26-0.74 s-0.45-0.278-0.831-0.278c-0.435,0-0.858,0.146-1.271,0.439c-0.413,0.293-0.776,0.71-1.092,1.253 c-0.314,0.541-0.553,1.198-0.714,1.97l-0.74,3.479h-1.23l1.714-8.027h1.018l-0.161,1.486h0.073 c0.469-0.596,0.921-1.017,1.358-1.264c0.437-0.246,0.89-0.369,1.359-0.369c0.62,0,1.11,0.17,1.468,0.508 c0.359,0.34,0.539,0.814,0.539,1.426c0,0.385-0.056,0.824-0.168,1.318l-1.047,4.922H143.609z"/><path fill="#4D4D4D" d="M151.637,331.469c0.928,0,1.66,0.275,2.197,0.824s0.806,1.305,0.806,2.268c0,0.918-0.176,1.784-0.527,2.6 s-0.828,1.445-1.428,1.89s-1.279,0.667-2.036,0.667c-0.938,0-1.672-0.276-2.205-0.828s-0.798-1.307-0.798-2.264 c0-0.928,0.178-1.8,0.535-2.617c0.356-0.818,0.837-1.445,1.443-1.883S150.899,331.469,151.637,331.469z M153.365,334.392 c0-0.562-0.153-1.017-0.458-1.366c-0.306-0.349-0.719-0.523-1.242-0.523c-0.532,0-1.01,0.181-1.432,0.542s-0.75,0.863-0.981,1.505 c-0.232,0.643-0.348,1.356-0.348,2.143c0,0.64,0.155,1.135,0.465,1.482c0.31,0.35,0.756,0.524,1.337,0.524 c0.508,0,0.964-0.179,1.37-0.534c0.405-0.357,0.721-0.863,0.949-1.52C153.251,335.987,153.365,335.236,153.365,334.392z"/><path fill="#4D4D4D" d="M161.429,339.6l-0.234-4.41c-0.02-0.459-0.029-0.879-0.029-1.26v-1.143H161.1l-0.366,0.865l-0.608,1.384 l-2.131,4.563h-1.479l-0.315-8.027h1.201l0.132,4.35v0.645c0,0.719-0.02,1.375-0.059,1.971h0.044 c0.229-0.605,0.564-1.392,1.003-2.358l2.161-4.606h1.333l0.271,4.35c0.029,0.82,0.044,1.461,0.044,1.92v0.388l-0.015,0.308h0.044 c0.137-0.42,0.339-0.953,0.608-1.6c0.269-0.647,1.057-2.436,2.366-5.365h1.304l-3.706,8.027H161.429z"/><path fill="#4D4D4D" d="M167.743,339.6h-1.23l2.432-11.396h1.23L167.743,339.6z"/><path fill="#4D4D4D" d="M173.507,339.746c-0.898,0-1.604-0.267-2.117-0.799s-0.769-1.27-0.769-2.212 c0-0.918,0.182-1.798,0.546-2.64c0.363-0.844,0.846-1.498,1.446-1.967s1.262-0.703,1.985-0.703c0.747,0,1.309,0.162,1.685,0.486 c0.376,0.325,0.564,0.777,0.564,1.359c0,0.879-0.405,1.568-1.216,2.068c-0.811,0.501-1.97,0.751-3.479,0.751h-0.242l-0.029,0.586 c0,0.64,0.15,1.14,0.45,1.497c0.301,0.359,0.766,0.539,1.396,0.539c0.308,0,0.624-0.044,0.948-0.132s0.729-0.249,1.212-0.483v1.069 c-0.459,0.215-0.864,0.365-1.216,0.45C174.32,339.703,173.932,339.746,173.507,339.746z M174.525,332.473 c-0.503,0-0.976,0.229-1.417,0.688s-0.78,1.097-1.014,1.911h0.088c1.113,0,1.966-0.145,2.56-0.436 c0.593-0.29,0.89-0.711,0.89-1.264c0-0.258-0.089-0.473-0.268-0.645C175.185,332.559,174.906,332.473,174.525,332.473z"/><path fill="#4D4D4D" d="M181.981,331.439c0.947,0,1.633,0.465,2.058,1.393h0.073c0.083-0.758,0.193-1.426,0.33-2.008l0.571-2.621 h1.216l-2.417,11.396h-1.018l0.161-1.531h-0.059c-0.493,0.61-0.955,1.043-1.384,1.297s-0.874,0.381-1.333,0.381 c-0.679,0-1.208-0.24-1.589-0.719s-0.571-1.143-0.571-1.992c0-1.045,0.176-2.002,0.527-2.871s0.826-1.54,1.425-2.014 C180.568,331.677,181.239,331.439,181.981,331.439z M180.589,338.728c0.459,0,0.933-0.228,1.421-0.685s0.875-1.041,1.161-1.75 c0.286-0.711,0.429-1.436,0.429-2.172c0-0.543-0.132-0.955-0.396-1.238s-0.647-0.425-1.15-0.425c-0.493,0-0.951,0.202-1.374,0.604 s-0.762,0.969-1.018,1.699c-0.257,0.73-0.385,1.498-0.385,2.303C179.278,338.174,179.715,338.728,180.589,338.728z"/><path fill="#4D4D4D" d="M194.015,331.572l-0.183,0.783l-1.545,0.176c0.2,0.303,0.3,0.688,0.3,1.157 c0,0.933-0.285,1.677-0.853,2.229c-0.569,0.555-1.33,0.832-2.282,0.832c-0.269,0-0.474-0.02-0.615-0.059 c-0.679,0.259-1.018,0.578-1.018,0.959c0,0.201,0.081,0.334,0.242,0.4c0.161,0.064,0.396,0.117,0.703,0.156l0.857,0.104 c0.884,0.107,1.524,0.322,1.923,0.645c0.397,0.322,0.597,0.795,0.597,1.42c0,0.898-0.356,1.595-1.069,2.088s-1.716,0.74-3.01,0.74 c-0.947,0-1.689-0.18-2.227-0.539s-0.806-0.865-0.806-1.52c0-0.513,0.176-0.957,0.527-1.333s0.92-0.696,1.707-0.96 c-0.381-0.199-0.571-0.495-0.571-0.886c0-0.337,0.125-0.626,0.374-0.868s0.596-0.467,1.04-0.678 c-0.308-0.156-0.559-0.387-0.754-0.691s-0.293-0.66-0.293-1.066c0-0.947,0.292-1.723,0.875-2.328s1.33-0.908,2.238-0.908 c0.381,0,0.757,0.049,1.128,0.146H194.015z M186.214,341.027c0,0.376,0.159,0.674,0.476,0.894s0.789,0.329,1.414,0.329 c0.889,0,1.583-0.154,2.083-0.465s0.751-0.748,0.751-1.314c0-0.303-0.132-0.542-0.396-0.718s-0.713-0.298-1.348-0.366l-1.165-0.117 c-0.586,0.122-1.035,0.337-1.348,0.645S186.214,340.593,186.214,341.027z M188.25,334.619c0,0.414,0.11,0.73,0.33,0.947 c0.22,0.219,0.525,0.326,0.916,0.326c0.386,0,0.723-0.102,1.011-0.307s0.509-0.488,0.663-0.846 c0.154-0.359,0.231-0.749,0.231-1.169c0-0.4-0.107-0.706-0.322-0.915c-0.215-0.211-0.522-0.315-0.923-0.315 c-0.381,0-0.714,0.099-1,0.296c-0.286,0.199-0.508,0.475-0.667,0.828C188.33,333.819,188.25,334.203,188.25,334.619z"/><path fill="#4D4D4D" d="M197.076,339.746c-0.898,0-1.604-0.267-2.117-0.799s-0.769-1.27-0.769-2.212 c0-0.918,0.182-1.798,0.546-2.64c0.363-0.844,0.846-1.498,1.446-1.967s1.262-0.703,1.985-0.703c0.747,0,1.309,0.162,1.685,0.486 c0.376,0.325,0.564,0.777,0.564,1.359c0,0.879-0.405,1.568-1.216,2.068c-0.811,0.501-1.97,0.751-3.479,0.751h-0.242l-0.029,0.586 c0,0.64,0.15,1.14,0.45,1.497c0.301,0.359,0.766,0.539,1.396,0.539c0.308,0,0.624-0.044,0.948-0.132s0.729-0.249,1.212-0.483v1.069 c-0.459,0.215-0.864,0.365-1.216,0.45C197.889,339.703,197.501,339.746,197.076,339.746z M198.094,332.473 c-0.503,0-0.976,0.229-1.417,0.688s-0.78,1.097-1.014,1.911h0.088c1.113,0,1.966-0.145,2.56-0.436 c0.593-0.29,0.89-0.711,0.89-1.264c0-0.258-0.089-0.473-0.268-0.645C198.754,332.559,198.475,332.473,198.094,332.473z"/><path fill="#4D4D4D" d="M210.78,333.988h3.362l-1.128,5.208c-1.055,0.366-2.078,0.55-3.069,0.55c-1.289,0-2.292-0.354-3.006-1.059 c-0.716-0.705-1.073-1.691-1.073-2.955c0-1.314,0.248-2.51,0.743-3.586s1.183-1.914,2.062-2.512s1.853-0.897,2.922-0.897 c0.571,0,1.107,0.049,1.607,0.146s1.005,0.254,1.513,0.469l-0.483,1.113c-0.376-0.166-0.78-0.31-1.212-0.433 c-0.433-0.121-0.907-0.183-1.425-0.183c-0.825,0-1.576,0.248-2.252,0.743c-0.677,0.496-1.203,1.188-1.579,2.076 s-0.564,1.883-0.564,2.981c0,0.928,0.25,1.657,0.751,2.19c0.5,0.531,1.2,0.798,2.098,0.798c0.752,0,1.387-0.095,1.904-0.286 l0.703-3.252h-2.117L210.78,333.988z"/><path fill="#4D4D4D" d="M220.426,331.426c0.337,0,0.63,0.033,0.879,0.102l-0.264,1.1c-0.259-0.064-0.515-0.096-0.769-0.096 c-0.444,0-0.861,0.146-1.249,0.439c-0.389,0.293-0.728,0.699-1.019,1.219c-0.291,0.521-0.504,1.098-0.641,1.732l-0.784,3.678h-1.23 l1.714-8.027h1.018l-0.161,1.486h0.073c0.352-0.464,0.642-0.797,0.872-1c0.229-0.202,0.47-0.359,0.721-0.469 S220.118,331.426,220.426,331.426z"/><path fill="#4D4D4D" d="M225.538,331.426c0.449,0,0.85,0.121,1.201,0.361c0.352,0.242,0.625,0.59,0.82,1.045h0.081l0.491-1.26h0.93 l-1.707,8.027h-0.974l0.19-1.531h-0.059c-0.874,1.118-1.794,1.678-2.761,1.678c-0.679,0-1.211-0.242-1.597-0.726 s-0.579-1.146-0.579-1.985c0-1.016,0.173-1.957,0.52-2.826s0.825-1.551,1.436-2.044S224.811,331.426,225.538,331.426z M224.146,338.728c0.474,0,0.945-0.226,1.414-0.677c0.469-0.452,0.85-1.041,1.143-1.766s0.439-1.451,0.439-2.18 c0-0.502-0.137-0.902-0.41-1.201c-0.273-0.297-0.632-0.446-1.077-0.446c-0.508,0-0.98,0.21-1.417,0.63s-0.78,0.988-1.029,1.707 c-0.249,0.717-0.374,1.475-0.374,2.27c0,0.557,0.115,0.974,0.344,1.25C223.409,338.59,223.731,338.728,224.146,338.728z"/><path fill="#4D4D4D" d="M233.324,339.746c-0.474,0-0.889-0.123-1.245-0.367s-0.632-0.586-0.828-1.025h-0.073l-0.029,0.279 c-0.015,0.121-0.04,0.293-0.077,0.512c-0.036,0.221-0.316,1.572-0.838,4.059h-1.216l2.461-11.631h1.018l-0.19,1.53h0.059 c0.874-1.108,1.782-1.663,2.725-1.663c0.669,0,1.196,0.238,1.582,0.715s0.579,1.144,0.579,2.003c0,1.035-0.168,1.985-0.505,2.849 c-0.337,0.865-0.803,1.537-1.399,2.018C234.75,339.506,234.076,339.746,233.324,339.746z M234.686,332.458 c-0.469,0-0.946,0.231-1.432,0.696c-0.486,0.463-0.871,1.047-1.157,1.75c-0.285,0.703-0.428,1.424-0.428,2.16 c0,0.537,0.135,0.949,0.407,1.234c0.271,0.285,0.663,0.429,1.175,0.429c0.483,0,0.934-0.198,1.351-0.593 c0.418-0.396,0.753-0.959,1.007-1.689c0.254-0.729,0.381-1.504,0.381-2.324C235.99,333.012,235.555,332.458,234.686,332.458z"/><path fill="#4D4D4D" d="M243.329,339.6l1.084-5.068c0.088-0.459,0.132-0.789,0.132-0.989c0-0.723-0.359-1.084-1.077-1.084 c-0.435,0-0.858,0.144-1.271,0.433c-0.413,0.287-0.776,0.707-1.092,1.256c-0.314,0.549-0.553,1.212-0.714,1.988l-0.74,3.465h-1.23 l2.417-11.396h1.23c-0.088,0.4-0.172,0.788-0.252,1.164c-0.081,0.376-0.164,0.758-0.249,1.146 c-0.086,0.389-0.179,0.795-0.278,1.219c-0.101,0.426-0.216,0.887-0.348,1.385h0.081c0.459-0.601,0.912-1.03,1.358-1.289 c0.447-0.259,0.915-0.389,1.403-0.389c0.64,0,1.134,0.176,1.483,0.527s0.524,0.85,0.524,1.494c0,0.303-0.056,0.709-0.168,1.217 c-0.19,0.941-0.544,2.582-1.062,4.922H243.329z"/></g><rect width="63.641" height="59.797" x="106.027" y="235.7" fill="#C2000B"/><g><path fill="#FFF" d="M116.848,262.358c0,1.008-0.179,1.853-0.536,2.534s-0.882,1.181-1.573,1.497l2.062,2.303h-2.326 l-1.57-1.922h-0.135c-1.312,0-2.32-0.381-3.023-1.143s-1.055-1.855-1.055-3.281s0.353-2.515,1.058-3.267s1.716-1.128,3.032-1.128 s2.323,0.379,3.021,1.137S116.848,260.937,116.848,262.358z M110.596,262.358c0,0.957,0.182,1.678,0.545,2.162 s0.906,0.727,1.629,0.727c1.449,0,2.174-0.963,2.174-2.889c0-1.93-0.721-2.895-2.162-2.895c-0.723,0-1.268,0.243-1.635,0.729 S110.596,261.401,110.596,262.358z"/><path fill="#FFF" d="M123.123,266.653l-0.24-0.838h-0.094c-0.191,0.305-0.463,0.54-0.814,0.706s-0.752,0.249-1.201,0.249 c-0.77,0-1.35-0.206-1.74-0.618s-0.586-1.005-0.586-1.778v-4.271h1.787v3.826c0,0.473,0.084,0.827,0.252,1.063 s0.436,0.354,0.803,0.354c0.5,0,0.861-0.167,1.084-0.501s0.334-0.888,0.334-1.661v-3.082h1.787v6.551H123.123z"/><path fill="#FFF" d="M129.334,266.771c-1.055,0-1.879-0.291-2.473-0.873s-0.891-1.406-0.891-2.473 c0-1.098,0.274-1.946,0.823-2.546s1.308-0.899,2.276-0.899c0.926,0,1.646,0.264,2.162,0.791s0.773,1.256,0.773,2.186v0.867h-4.225 c0.02,0.508,0.17,0.904,0.451,1.189s0.676,0.428,1.184,0.428c0.395,0,0.768-0.041,1.119-0.123s0.719-0.213,1.102-0.393v1.383 c-0.312,0.156-0.646,0.272-1.002,0.349S129.846,266.771,129.334,266.771z M129.082,261.251c-0.379,0-0.676,0.12-0.891,0.36 s-0.338,0.581-0.369,1.022h2.508c-0.008-0.441-0.123-0.782-0.346-1.022S129.461,261.251,129.082,261.251z"/><path fill="#FFF" d="M137.115,259.979c0.242,0,0.443,0.018,0.604,0.053l-0.135,1.676c-0.145-0.039-0.32-0.059-0.527-0.059 c-0.57,0-1.015,0.146-1.333,0.439s-0.478,0.703-0.478,1.23v3.334h-1.787v-6.551h1.354l0.264,1.102h0.088 c0.203-0.367,0.478-0.663,0.823-0.888S136.709,259.979,137.115,259.979z"/><path fill="#FFF" d="M137.971,260.103h1.957l1.236,3.686c0.105,0.32,0.178,0.699,0.217,1.137h0.035 c0.043-0.402,0.127-0.781,0.252-1.137l1.213-3.686h1.916l-2.771,7.389c-0.254,0.684-0.616,1.195-1.087,1.535 s-1.021,0.51-1.649,0.51c-0.309,0-0.611-0.033-0.908-0.1v-1.418c0.215,0.051,0.449,0.076,0.703,0.076 c0.316,0,0.593-0.097,0.829-0.29s0.421-0.485,0.554-0.876l0.105-0.322L137.971,260.103z"/><path fill="#FFF" d="M154.236,266.653l-0.621-2.039h-3.123l-0.621,2.039h-1.957l3.023-8.602h2.221l3.035,8.602H154.236z M153.182,263.091c-0.574-1.848-0.897-2.893-0.97-3.135s-0.124-0.434-0.155-0.574c-0.129,0.5-0.498,1.736-1.107,3.709H153.182z"/><path fill="#FFF" d="M163.189,260.759c0,0.922-0.288,1.627-0.864,2.115s-1.396,0.732-2.458,0.732h-0.779v3.047h-1.816v-8.566 h2.736c1.039,0,1.829,0.224,2.37,0.671S163.189,259.872,163.189,260.759z M159.088,262.118h0.598c0.559,0,0.977-0.11,1.254-0.331 s0.416-0.542,0.416-0.964c0-0.426-0.116-0.74-0.349-0.943s-0.597-0.305-1.093-0.305h-0.826V262.118z"/><path fill="#FFF" d="M164.807,266.653v-8.566h1.816v8.566H164.807z"/></g><line x1="181.146" x2="181.146" y1="187.5" y2="320.919" fill="none" stroke="#000" stroke-miterlimit="10" stroke-width="2"/><rect width="34.767" height="32.666" x="189.975" y="283.341" fill="#2E58A6"/><g><path fill="#FFF" d="M196.38,294.441c-0.34,0-0.644,0.095-0.913,0.284s-0.481,0.468-0.639,0.833 c-0.157,0.367-0.236,0.766-0.236,1.197c0,0.365,0.095,0.656,0.286,0.875c0.19,0.217,0.453,0.326,0.787,0.326 c0.271,0,0.586-0.056,0.943-0.167v0.437c-0.168,0.061-0.328,0.104-0.48,0.132s-0.336,0.041-0.551,0.041 c-0.473,0-0.844-0.146-1.113-0.438c-0.27-0.291-0.404-0.689-0.404-1.193c0-0.51,0.103-0.984,0.309-1.422 c0.206-0.439,0.483-0.773,0.831-1.004s0.741-0.346,1.181-0.346c0.385,0,0.725,0.078,1.02,0.234l-0.202,0.413 C196.928,294.509,196.655,294.441,196.38,294.441z"/><path fill="#FFF" d="M199.333,295.071c0.135,0,0.252,0.014,0.352,0.041l-0.105,0.439c-0.104-0.025-0.206-0.038-0.308-0.038 c-0.178,0-0.344,0.059-0.5,0.176s-0.291,0.279-0.407,0.488c-0.116,0.207-0.202,0.438-0.256,0.692l-0.313,1.471h-0.492l0.686-3.211 h0.407l-0.064,0.595h0.029c0.141-0.186,0.257-0.318,0.349-0.4c0.092-0.08,0.188-0.143,0.289-0.188 C199.098,295.094,199.21,295.071,199.333,295.071z"/><path fill="#FFF" d="M200.171,298.341h-0.492l0.686-3.211h0.492L200.171,298.341z M200.502,294.31 c0-0.109,0.031-0.198,0.094-0.269c0.062-0.068,0.144-0.104,0.243-0.104c0.172,0,0.258,0.088,0.258,0.264 c0,0.107-0.033,0.198-0.098,0.272s-0.141,0.111-0.227,0.111c-0.078,0-0.143-0.024-0.193-0.071 C200.527,294.465,200.502,294.397,200.502,294.31z"/><path fill="#FFF" d="M203.068,298.341l0.434-2.027c0.035-0.184,0.053-0.315,0.053-0.396c0-0.137-0.03-0.243-0.091-0.319 s-0.164-0.114-0.311-0.114c-0.164,0-0.324,0.059-0.479,0.176s-0.292,0.285-0.41,0.502c-0.118,0.219-0.209,0.48-0.274,0.787 l-0.296,1.392h-0.492l0.686-3.211h0.407l-0.064,0.595h0.029c0.17-0.232,0.339-0.399,0.508-0.501s0.343-0.152,0.523-0.152 c0.221,0,0.391,0.063,0.51,0.19s0.189,0.304,0.211,0.53h0.023c0.168-0.244,0.347-0.425,0.536-0.544 c0.189-0.117,0.381-0.177,0.574-0.177c0.248,0,0.44,0.066,0.576,0.199s0.204,0.326,0.204,0.58c0,0.133-0.021,0.307-0.064,0.521 l-0.422,1.969h-0.498l0.434-2.027c0.039-0.203,0.059-0.346,0.059-0.428c0-0.121-0.034-0.218-0.101-0.292 c-0.067-0.072-0.173-0.109-0.318-0.109c-0.158,0-0.314,0.057-0.469,0.17s-0.29,0.273-0.406,0.482 c-0.116,0.207-0.205,0.454-0.265,0.739l-0.313,1.465H203.068z"/><path fill="#FFF" d="M207.703,298.399c-0.359,0-0.642-0.106-0.847-0.319s-0.308-0.508-0.308-0.885 c0-0.367,0.073-0.719,0.218-1.057c0.146-0.336,0.338-0.599,0.579-0.786s0.505-0.281,0.794-0.281c0.299,0,0.523,0.065,0.674,0.194 c0.15,0.131,0.226,0.312,0.226,0.544c0,0.352-0.162,0.628-0.486,0.827c-0.324,0.201-0.788,0.301-1.392,0.301h-0.097l-0.012,0.234 c0,0.256,0.06,0.455,0.18,0.6c0.12,0.143,0.306,0.215,0.558,0.215c0.123,0,0.25-0.018,0.379-0.053s0.292-0.1,0.485-0.193v0.428 c-0.184,0.086-0.346,0.146-0.486,0.18C208.028,298.383,207.873,298.399,207.703,298.399z M208.11,295.49 c-0.201,0-0.39,0.092-0.567,0.275s-0.312,0.438-0.406,0.765h0.035c0.445,0,0.787-0.058,1.024-0.175 c0.237-0.115,0.356-0.284,0.356-0.505c0-0.104-0.036-0.189-0.107-0.258S208.263,295.49,208.11,295.49z"/><path fill="#FFF" d="M212.651,295.071c0.18,0,0.34,0.048,0.48,0.146c0.141,0.096,0.25,0.235,0.328,0.417h0.032l0.196-0.504 h0.372l-0.683,3.211h-0.39l0.076-0.612h-0.023c-0.35,0.447-0.718,0.671-1.104,0.671c-0.271,0-0.484-0.097-0.639-0.29 s-0.231-0.458-0.231-0.794c0-0.406,0.069-0.783,0.208-1.131s0.33-0.62,0.574-0.817S212.36,295.071,212.651,295.071z M212.095,297.992c0.189,0,0.378-0.09,0.565-0.271c0.188-0.18,0.34-0.416,0.457-0.705c0.117-0.291,0.176-0.581,0.176-0.872 c0-0.201-0.055-0.361-0.164-0.48s-0.253-0.179-0.431-0.179c-0.203,0-0.392,0.084-0.567,0.252s-0.312,0.396-0.412,0.683 s-0.149,0.59-0.149,0.908c0,0.223,0.046,0.39,0.138,0.499C211.8,297.938,211.929,297.992,212.095,297.992z"/><path fill="#FFF" d="M216.305,298.341l0.434-2.027c0.039-0.203,0.059-0.344,0.059-0.422c0-0.123-0.035-0.222-0.104-0.296 s-0.18-0.111-0.333-0.111c-0.174,0-0.343,0.059-0.508,0.176s-0.311,0.284-0.437,0.501s-0.221,0.479-0.286,0.788l-0.296,1.392 h-0.492l0.686-3.211h0.407l-0.064,0.595h0.029c0.188-0.238,0.369-0.406,0.543-0.506c0.175-0.098,0.356-0.147,0.543-0.147 c0.248,0,0.444,0.067,0.587,0.204c0.144,0.135,0.215,0.325,0.215,0.569c0,0.154-0.022,0.33-0.067,0.527l-0.419,1.969H216.305z"/><path fill="#FFF" d="M219.504,295.077c0.379,0,0.653,0.186,0.823,0.557h0.029c0.033-0.303,0.077-0.57,0.132-0.803l0.229-1.049 h0.486l-0.967,4.559h-0.407l0.064-0.612h-0.023c-0.197,0.244-0.382,0.417-0.554,0.519s-0.35,0.152-0.533,0.152 c-0.271,0-0.483-0.096-0.636-0.287s-0.229-0.457-0.229-0.797c0-0.418,0.07-0.801,0.211-1.148s0.331-0.616,0.57-0.806 S219.207,295.077,219.504,295.077z M218.947,297.992c0.184,0,0.373-0.092,0.568-0.273c0.195-0.184,0.35-0.416,0.464-0.701 c0.114-0.283,0.171-0.573,0.171-0.868c0-0.217-0.053-0.382-0.158-0.495s-0.259-0.17-0.46-0.17c-0.197,0-0.38,0.08-0.549,0.242 c-0.169,0.16-0.305,0.387-0.407,0.68c-0.103,0.291-0.154,0.599-0.154,0.921C218.423,297.771,218.598,297.992,218.947,297.992z"/><path fill="#FFF" d="M195.015,302.362c0,0.484-0.16,0.854-0.48,1.11s-0.79,0.384-1.409,0.384h-0.396l-0.36,1.685h-0.498 l0.905-4.283h0.967c0.418,0,0.734,0.092,0.949,0.277C194.907,301.719,195.015,301.995,195.015,302.362z M192.82,303.429h0.39 c0.422,0,0.742-0.089,0.961-0.267s0.328-0.438,0.328-0.782c0-0.244-0.068-0.421-0.204-0.528c-0.136-0.109-0.344-0.163-0.625-0.163 h-0.478L192.82,303.429z"/><path fill="#FFF" d="M196.336,302.33l-0.439,2.036c-0.035,0.174-0.053,0.31-0.053,0.407c0,0.279,0.144,0.419,0.431,0.419 c0.172,0,0.341-0.059,0.507-0.176s0.312-0.285,0.439-0.504s0.224-0.482,0.29-0.791l0.293-1.392h0.486l-0.677,3.211h-0.407 l0.064-0.595h-0.035c-0.191,0.244-0.374,0.414-0.548,0.51s-0.354,0.144-0.539,0.144c-0.25,0-0.446-0.068-0.589-0.203 c-0.143-0.137-0.214-0.33-0.214-0.582c0-0.121,0.021-0.289,0.064-0.504l0.428-1.98H196.336z"/><path fill="#FFF" d="M200.613,305.541l0.434-2.027c0.039-0.203,0.059-0.344,0.059-0.422c0-0.123-0.035-0.222-0.104-0.296 s-0.18-0.111-0.333-0.111c-0.174,0-0.343,0.059-0.508,0.176s-0.311,0.284-0.437,0.501s-0.221,0.479-0.286,0.788l-0.296,1.392 h-0.492l0.686-3.211h0.407l-0.064,0.595h0.029c0.188-0.238,0.369-0.407,0.543-0.505c0.175-0.1,0.356-0.148,0.543-0.148 c0.248,0,0.444,0.068,0.587,0.203c0.144,0.137,0.215,0.326,0.215,0.57c0,0.154-0.022,0.33-0.067,0.527l-0.419,1.969H200.613z"/><path fill="#FFF" d="M202.605,305.541h-0.492l0.686-3.211h0.492L202.605,305.541z M202.937,301.51 c0-0.109,0.031-0.199,0.094-0.268c0.062-0.07,0.144-0.104,0.243-0.104c0.172,0,0.258,0.088,0.258,0.264 c0,0.107-0.033,0.198-0.098,0.272s-0.141,0.111-0.227,0.111c-0.078,0-0.143-0.023-0.193-0.072 C202.962,301.666,202.937,301.598,202.937,301.51z"/><path fill="#FFF" d="M205.617,304.63c0,0.305-0.108,0.542-0.324,0.714c-0.216,0.17-0.52,0.256-0.913,0.256 c-0.33,0-0.628-0.067-0.894-0.202v-0.463c0.137,0.082,0.284,0.146,0.442,0.19s0.305,0.067,0.439,0.067 c0.246,0,0.432-0.049,0.557-0.146s0.188-0.223,0.188-0.375c0-0.111-0.034-0.205-0.103-0.281s-0.216-0.181-0.442-0.313 c-0.254-0.143-0.434-0.282-0.539-0.419s-0.158-0.299-0.158-0.486c0-0.27,0.099-0.487,0.296-0.651 c0.197-0.166,0.457-0.248,0.779-0.248c0.334,0,0.656,0.072,0.967,0.217l-0.158,0.401l-0.164-0.073 c-0.197-0.084-0.412-0.126-0.645-0.126c-0.182,0-0.324,0.042-0.428,0.128c-0.104,0.084-0.155,0.194-0.155,0.329 c0,0.109,0.035,0.203,0.104,0.281s0.212,0.179,0.429,0.302c0.209,0.117,0.359,0.218,0.45,0.302s0.159,0.175,0.204,0.271 C205.595,304.4,205.617,304.509,205.617,304.63z"/><path fill="#FFF" d="M208.169,305.541l0.434-2.027c0.035-0.184,0.053-0.315,0.053-0.396c0-0.289-0.144-0.434-0.431-0.434 c-0.174,0-0.343,0.058-0.508,0.173s-0.311,0.283-0.437,0.502c-0.126,0.221-0.221,0.485-0.286,0.796l-0.296,1.386h-0.492 l0.967-4.559h0.492c-0.035,0.16-0.069,0.315-0.101,0.466s-0.065,0.304-0.1,0.458c-0.034,0.156-0.071,0.318-0.111,0.488 s-0.086,0.354-0.139,0.554h0.032c0.184-0.24,0.365-0.412,0.543-0.516s0.366-0.155,0.561-0.155c0.256,0,0.454,0.07,0.593,0.211 s0.209,0.34,0.209,0.598c0,0.121-0.022,0.283-0.067,0.486c-0.076,0.377-0.218,1.033-0.425,1.969H208.169z"/><path fill="#FFF" d="M211.535,305.541l0.434-2.027c0.035-0.184,0.053-0.315,0.053-0.396c0-0.137-0.03-0.243-0.091-0.319 s-0.164-0.114-0.311-0.114c-0.164,0-0.324,0.059-0.479,0.176s-0.292,0.284-0.41,0.503c-0.118,0.217-0.209,0.479-0.274,0.786 l-0.296,1.392h-0.492l0.686-3.211h0.407l-0.064,0.595h0.029c0.17-0.232,0.339-0.399,0.508-0.501s0.343-0.152,0.523-0.152 c0.221,0,0.391,0.063,0.51,0.19s0.189,0.304,0.211,0.53h0.023c0.168-0.244,0.347-0.426,0.536-0.543 c0.189-0.119,0.381-0.178,0.574-0.178c0.248,0,0.44,0.066,0.576,0.199s0.204,0.326,0.204,0.58c0,0.133-0.021,0.307-0.064,0.521 l-0.422,1.969h-0.498l0.434-2.027c0.039-0.203,0.059-0.346,0.059-0.428c0-0.121-0.034-0.219-0.101-0.291 c-0.067-0.074-0.173-0.11-0.318-0.11c-0.158,0-0.314,0.057-0.469,0.17s-0.29,0.274-0.406,0.481 c-0.116,0.209-0.205,0.455-0.265,0.74l-0.313,1.465H211.535z"/><path fill="#FFF" d="M216.17,305.6c-0.359,0-0.642-0.106-0.847-0.319s-0.308-0.508-0.308-0.885c0-0.367,0.073-0.72,0.218-1.056 c0.146-0.338,0.338-0.6,0.579-0.787s0.505-0.281,0.794-0.281c0.299,0,0.523,0.064,0.674,0.195c0.15,0.129,0.226,0.311,0.226,0.543 c0,0.352-0.162,0.627-0.486,0.828c-0.324,0.199-0.788,0.3-1.392,0.3h-0.097l-0.012,0.234c0,0.256,0.06,0.456,0.18,0.599 c0.12,0.145,0.306,0.216,0.558,0.216c0.123,0,0.25-0.018,0.379-0.053s0.292-0.1,0.485-0.193v0.428 c-0.184,0.086-0.346,0.146-0.486,0.181C216.495,305.582,216.34,305.6,216.17,305.6z M216.577,302.69 c-0.201,0-0.39,0.092-0.567,0.275s-0.312,0.438-0.406,0.765h0.035c0.445,0,0.787-0.059,1.024-0.174 c0.237-0.117,0.356-0.285,0.356-0.506c0-0.104-0.036-0.189-0.107-0.258S216.729,302.69,216.577,302.69z"/><path fill="#FFF" d="M219.823,305.541l0.434-2.027c0.039-0.203,0.059-0.344,0.059-0.422c0-0.123-0.035-0.222-0.104-0.296 s-0.18-0.111-0.333-0.111c-0.174,0-0.343,0.059-0.508,0.176s-0.311,0.284-0.437,0.501s-0.221,0.479-0.286,0.788l-0.296,1.392 h-0.492l0.686-3.211h0.407l-0.064,0.595h0.029c0.188-0.238,0.369-0.407,0.543-0.505c0.175-0.1,0.356-0.148,0.543-0.148 c0.248,0,0.444,0.068,0.587,0.203c0.144,0.137,0.215,0.326,0.215,0.57c0,0.154-0.022,0.33-0.067,0.527l-0.419,1.969H219.823z"/><path fill="#FFF" d="M222.308,305.198c0.107,0,0.248-0.025,0.422-0.076v0.378c-0.066,0.027-0.148,0.051-0.246,0.07 s-0.176,0.029-0.234,0.029c-0.244,0-0.431-0.059-0.561-0.174c-0.13-0.117-0.195-0.29-0.195-0.521c0-0.129,0.018-0.275,0.053-0.439 l0.372-1.764h-0.504l0.041-0.214l0.542-0.229l0.366-0.668h0.287l-0.161,0.738h0.803l-0.076,0.372h-0.8l-0.378,1.77 c-0.035,0.17-0.053,0.299-0.053,0.387c0,0.109,0.028,0.193,0.085,0.252S222.206,305.198,222.308,305.198z"/></g><g><path d="M203.882,262.965c0,1.41-0.401,2.49-1.204,3.24s-1.962,1.125-3.478,1.125h-2.426v-8.566h2.689 c1.398,0,2.484,0.369,3.258,1.107S203.882,261.641,203.882,262.965z M201.995,263.012c0-1.84-0.812-2.76-2.438-2.76h-0.967v5.578 h0.779C201.12,265.83,201.995,264.891,201.995,263.012z"/><path d="M211.47,264.043c0,1.066-0.281,1.9-0.844,2.502s-1.346,0.902-2.35,0.902c-0.629,0-1.184-0.138-1.664-0.413 s-0.85-0.671-1.107-1.187s-0.387-1.117-0.387-1.805c0-1.07,0.279-1.902,0.838-2.496s1.344-0.891,2.355-0.891 c0.629,0,1.184,0.137,1.664,0.41s0.85,0.666,1.107,1.178S211.47,263.355,211.47,264.043z M206.94,264.043 c0,0.648,0.106,1.139,0.319,1.471s0.56,0.498,1.04,0.498c0.477,0,0.819-0.165,1.028-0.495s0.313-0.821,0.313-1.474 c0-0.648-0.105-1.135-0.316-1.459s-0.557-0.486-1.037-0.486c-0.477,0-0.82,0.161-1.031,0.483S206.94,263.391,206.94,264.043z"/><path d="M215.606,267.447c-2.039,0-3.059-1.119-3.059-3.357c0-1.113,0.277-1.964,0.832-2.552s1.35-0.882,2.385-0.882 c0.758,0,1.438,0.148,2.039,0.445l-0.527,1.383c-0.281-0.113-0.543-0.206-0.785-0.278s-0.484-0.108-0.727-0.108 c-0.93,0-1.395,0.66-1.395,1.98c0,1.281,0.465,1.922,1.395,1.922c0.344,0,0.662-0.046,0.955-0.138s0.586-0.235,0.879-0.431v1.529 c-0.289,0.184-0.581,0.311-0.876,0.381S216.056,267.447,215.606,267.447z"/><path d="M223.757,267.33l-0.24-0.838h-0.094c-0.191,0.305-0.463,0.54-0.814,0.706s-0.752,0.249-1.201,0.249 c-0.77,0-1.35-0.206-1.74-0.618s-0.586-1.005-0.586-1.778v-4.271h1.787v3.826c0,0.473,0.084,0.827,0.252,1.063 s0.436,0.354,0.803,0.354c0.5,0,0.861-0.167,1.084-0.501s0.334-0.888,0.334-1.661v-3.082h1.787v6.551H223.757z"/><path d="M232.868,267.33h-1.787v-3.826c0-0.473-0.079-0.827-0.237-1.063s-0.407-0.354-0.747-0.354 c-0.457,0-0.789,0.168-0.996,0.504s-0.311,0.889-0.311,1.658v3.082h-1.787v-6.551h1.365l0.24,0.838h0.1 c0.176-0.301,0.43-0.536,0.762-0.706s0.713-0.255,1.143-0.255c0.98,0,1.645,0.32,1.992,0.961h0.158 c0.176-0.305,0.435-0.541,0.776-0.709s0.728-0.252,1.157-0.252c0.742,0,1.304,0.19,1.685,0.571s0.571,0.991,0.571,1.831v4.271 h-1.793v-3.826c0-0.473-0.079-0.827-0.237-1.063s-0.407-0.354-0.747-0.354c-0.438,0-0.765,0.156-0.981,0.469 s-0.325,0.809-0.325,1.488V267.33z"/><path d="M241.751,267.447c-1.055,0-1.879-0.291-2.473-0.873s-0.891-1.406-0.891-2.473c0-1.098,0.274-1.946,0.823-2.546 s1.308-0.899,2.276-0.899c0.926,0,1.646,0.264,2.162,0.791s0.773,1.256,0.773,2.186v0.867h-4.225 c0.02,0.508,0.17,0.904,0.451,1.189s0.676,0.428,1.184,0.428c0.395,0,0.768-0.041,1.119-0.123s0.719-0.213,1.102-0.393v1.383 c-0.312,0.156-0.646,0.272-1.002,0.349S242.263,267.447,241.751,267.447z M241.499,261.928c-0.379,0-0.676,0.12-0.891,0.36 s-0.338,0.581-0.369,1.022h2.508c-0.008-0.441-0.123-0.782-0.346-1.022S241.878,261.928,241.499,261.928z"/><path d="M251.923,267.33h-1.787v-3.826c0-0.473-0.084-0.827-0.252-1.063s-0.436-0.354-0.803-0.354c-0.5,0-0.861,0.167-1.084,0.501 s-0.334,0.888-0.334,1.661v3.082h-1.787v-6.551h1.365l0.24,0.838h0.1c0.199-0.316,0.474-0.556,0.823-0.718s0.747-0.243,1.192-0.243 c0.762,0,1.34,0.206,1.734,0.618s0.592,1.007,0.592,1.784V267.33z"/><path d="M256.522,266.023c0.312,0,0.688-0.068,1.125-0.205v1.33c-0.445,0.199-0.992,0.299-1.641,0.299 c-0.715,0-1.235-0.181-1.562-0.542s-0.489-0.903-0.489-1.626v-3.158h-0.855v-0.756l0.984-0.598l0.516-1.383h1.143v1.395h1.834 v1.342h-1.834v3.158c0,0.254,0.071,0.441,0.214,0.562S256.288,266.023,256.522,266.023z"/><path d="M263.542,265.385c0,0.672-0.233,1.184-0.7,1.535s-1.165,0.527-2.095,0.527c-0.477,0-0.883-0.032-1.219-0.097 s-0.65-0.159-0.943-0.284v-1.477c0.332,0.156,0.706,0.287,1.122,0.393s0.782,0.158,1.099,0.158c0.648,0,0.973-0.188,0.973-0.562 c0-0.141-0.043-0.255-0.129-0.343s-0.234-0.188-0.445-0.299s-0.492-0.241-0.844-0.39c-0.504-0.211-0.874-0.406-1.11-0.586 s-0.408-0.386-0.516-0.618s-0.161-0.519-0.161-0.858c0-0.582,0.226-1.032,0.677-1.351s1.091-0.478,1.919-0.478 c0.789,0,1.557,0.172,2.303,0.516l-0.539,1.289c-0.328-0.141-0.635-0.256-0.92-0.346s-0.576-0.135-0.873-0.135 c-0.527,0-0.791,0.143-0.791,0.428c0,0.16,0.085,0.299,0.255,0.416s0.542,0.291,1.116,0.521c0.512,0.207,0.887,0.4,1.125,0.58 s0.414,0.387,0.527,0.621S263.542,265.061,263.542,265.385z"/></g><rect width="34.766" height="32.666" x="235.309" y="216.534" fill="#2E58A6"/><g><path fill="#FFF" d="M239.087,234.867l-0.486-3.797h-0.023c-0.014,0.141-0.042,0.333-0.083,0.578s-0.079,0.439-0.11,0.584 l-0.557,2.635h-0.475l0.905-4.283h0.715l0.437,3.527h0.026l1.931-3.527h0.779l-0.888,4.283h-0.51 c0.246-1.152,0.435-2.037,0.565-2.653s0.223-0.999,0.275-1.149h-0.018l-2.101,3.803H239.087z"/><path fill="#FFF" d="M243.569,234.926c-0.359,0-0.642-0.107-0.847-0.32s-0.308-0.508-0.308-0.885 c0-0.367,0.073-0.719,0.218-1.056s0.338-0.599,0.579-0.786s0.505-0.281,0.794-0.281c0.299,0,0.523,0.064,0.674,0.194 s0.226,0.312,0.226,0.544c0,0.352-0.162,0.627-0.486,0.827s-0.788,0.3-1.392,0.3h-0.097l-0.012,0.234c0,0.256,0.06,0.456,0.18,0.6 s0.306,0.215,0.558,0.215c0.123,0,0.25-0.018,0.379-0.053s0.292-0.1,0.485-0.193v0.428c-0.184,0.086-0.346,0.146-0.486,0.181 S243.739,234.926,243.569,234.926z M243.977,232.016c-0.201,0-0.39,0.092-0.567,0.275s-0.312,0.439-0.406,0.766h0.035 c0.445,0,0.787-0.059,1.024-0.175s0.356-0.284,0.356-0.505c0-0.104-0.036-0.189-0.107-0.258S244.129,232.016,243.977,232.016z"/><path fill="#FFF" d="M246.959,231.604c0.379,0,0.653,0.186,0.823,0.557h0.029c0.033-0.303,0.077-0.57,0.132-0.803l0.229-1.049 h0.486l-0.967,4.559h-0.407l0.064-0.613h-0.023c-0.197,0.244-0.382,0.418-0.554,0.52s-0.35,0.152-0.533,0.152 c-0.271,0-0.483-0.096-0.636-0.287s-0.229-0.457-0.229-0.797c0-0.418,0.07-0.801,0.211-1.148s0.331-0.617,0.57-0.807 S246.662,231.604,246.959,231.604z M246.402,234.518c0.184,0,0.373-0.091,0.568-0.273s0.35-0.416,0.464-0.7 s0.171-0.573,0.171-0.868c0-0.217-0.053-0.383-0.158-0.496s-0.259-0.17-0.46-0.17c-0.197,0-0.38,0.081-0.549,0.242 s-0.305,0.388-0.407,0.68s-0.154,0.6-0.154,0.922C245.878,234.297,246.053,234.518,246.402,234.518z"/><path fill="#FFF" d="M249.215,234.867h-0.492l0.686-3.211h0.492L249.215,234.867z M249.546,230.836 c0-0.109,0.031-0.199,0.094-0.269s0.144-0.104,0.243-0.104c0.172,0,0.258,0.088,0.258,0.264c0,0.107-0.033,0.199-0.098,0.273 s-0.141,0.111-0.227,0.111c-0.078,0-0.143-0.024-0.193-0.072S249.546,230.924,249.546,230.836z"/><path fill="#FFF" d="M251.23,234.523c0.107,0,0.248-0.025,0.422-0.076v0.379c-0.066,0.027-0.148,0.051-0.246,0.07 s-0.176,0.029-0.234,0.029c-0.244,0-0.431-0.059-0.561-0.175s-0.195-0.29-0.195-0.521c0-0.129,0.018-0.275,0.053-0.439l0.372-1.764 h-0.504l0.041-0.213l0.542-0.229l0.366-0.668h0.287l-0.161,0.738h0.803l-0.076,0.371h-0.8l-0.378,1.77 c-0.035,0.17-0.053,0.299-0.053,0.387c0,0.109,0.028,0.193,0.085,0.252S251.129,234.523,251.23,234.523z"/><path fill="#FFF" d="M253.891,231.598c0.18,0,0.34,0.048,0.48,0.145s0.25,0.236,0.328,0.418h0.032l0.196-0.504h0.372 l-0.683,3.211h-0.39l0.076-0.613h-0.023c-0.35,0.447-0.718,0.672-1.104,0.672c-0.271,0-0.484-0.098-0.639-0.291 s-0.231-0.457-0.231-0.793c0-0.406,0.069-0.783,0.208-1.131s0.33-0.621,0.574-0.818S253.6,231.598,253.891,231.598z M253.334,234.518c0.189,0,0.378-0.09,0.565-0.271s0.34-0.416,0.457-0.706s0.176-0.58,0.176-0.871c0-0.201-0.055-0.361-0.164-0.48 s-0.253-0.18-0.431-0.18c-0.203,0-0.392,0.084-0.567,0.252s-0.312,0.396-0.412,0.684s-0.149,0.59-0.149,0.908 c0,0.223,0.046,0.389,0.138,0.499S253.168,234.518,253.334,234.518z"/><path fill="#FFF" d="M256.565,234.523c0.107,0,0.248-0.025,0.422-0.076v0.379c-0.066,0.027-0.148,0.051-0.246,0.07 s-0.176,0.029-0.234,0.029c-0.244,0-0.431-0.059-0.561-0.175s-0.195-0.29-0.195-0.521c0-0.129,0.018-0.275,0.053-0.439l0.372-1.764 h-0.504l0.041-0.213l0.542-0.229l0.366-0.668h0.287l-0.161,0.738h0.803l-0.076,0.371h-0.8l-0.378,1.77 c-0.035,0.17-0.053,0.299-0.053,0.387c0,0.109,0.028,0.193,0.085,0.252S256.464,234.523,256.565,234.523z"/><path fill="#FFF" d="M258.019,234.867h-0.492l0.686-3.211h0.492L258.019,234.867z M258.35,230.836 c0-0.109,0.031-0.199,0.094-0.269s0.144-0.104,0.243-0.104c0.172,0,0.258,0.088,0.258,0.264c0,0.107-0.033,0.199-0.098,0.273 s-0.141,0.111-0.227,0.111c-0.078,0-0.143-0.024-0.193-0.072S258.35,230.924,258.35,230.836z"/><path fill="#FFF" d="M260.761,231.615c0.371,0,0.664,0.109,0.879,0.329s0.322,0.522,0.322,0.907c0,0.367-0.07,0.713-0.211,1.039 s-0.331,0.578-0.571,0.756s-0.512,0.268-0.814,0.268c-0.375,0-0.669-0.111-0.882-0.332s-0.319-0.521-0.319-0.904 c0-0.371,0.071-0.721,0.214-1.048s0.335-0.578,0.577-0.753S260.466,231.615,260.761,231.615z M261.452,232.783 c0-0.225-0.061-0.406-0.183-0.546s-0.288-0.21-0.497-0.21c-0.213,0-0.404,0.072-0.573,0.217s-0.3,0.346-0.393,0.603 s-0.139,0.542-0.139,0.856c0,0.256,0.062,0.454,0.186,0.594s0.302,0.209,0.535,0.209c0.203,0,0.386-0.07,0.548-0.213 s0.289-0.346,0.379-0.608S261.452,233.121,261.452,232.783z"/><path fill="#FFF" d="M264.379,234.867l0.434-2.027c0.039-0.203,0.059-0.344,0.059-0.422c0-0.123-0.035-0.223-0.104-0.297 s-0.18-0.111-0.333-0.111c-0.174,0-0.343,0.059-0.508,0.176s-0.311,0.285-0.437,0.502s-0.221,0.479-0.286,0.787l-0.296,1.393 h-0.492l0.686-3.211h0.407l-0.064,0.594h0.029c0.188-0.238,0.369-0.406,0.543-0.505s0.356-0.147,0.543-0.147 c0.248,0,0.444,0.067,0.587,0.203s0.215,0.326,0.215,0.57c0,0.154-0.022,0.33-0.067,0.527l-0.419,1.969H264.379z"/><path fill="#FFF" d="M267.859,233.955c0,0.305-0.108,0.543-0.324,0.714s-0.52,0.257-0.913,0.257 c-0.33,0-0.628-0.068-0.894-0.203v-0.463c0.137,0.082,0.284,0.146,0.442,0.191s0.305,0.066,0.439,0.066 c0.246,0,0.432-0.049,0.557-0.146s0.188-0.223,0.188-0.375c0-0.111-0.034-0.205-0.103-0.281s-0.216-0.18-0.442-0.312 c-0.254-0.143-0.434-0.283-0.539-0.42s-0.158-0.299-0.158-0.486c0-0.27,0.099-0.486,0.296-0.651s0.457-0.247,0.779-0.247 c0.334,0,0.656,0.072,0.967,0.217l-0.158,0.4l-0.164-0.072c-0.197-0.084-0.412-0.127-0.645-0.127c-0.182,0-0.324,0.043-0.428,0.128 s-0.155,0.194-0.155,0.329c0,0.109,0.035,0.203,0.104,0.281s0.212,0.18,0.429,0.303c0.209,0.117,0.359,0.217,0.45,0.301 s0.159,0.175,0.204,0.271S267.859,233.834,267.859,233.955z"/></g><rect width="34.767" height="32.666" x="233.691" y="272.341" fill="#2E58A6"/><g><path fill="#FFF" d="M243.19,287.342h-0.504l0.812-3.842h-1.189l0.097-0.441h2.886l-0.088,0.441h-1.195L243.19,287.342z"/><path fill="#FFF" d="M246.888,287.342l0.434-2.027c0.035-0.184,0.053-0.316,0.053-0.396c0-0.289-0.144-0.434-0.431-0.434 c-0.174,0-0.343,0.059-0.508,0.174s-0.311,0.282-0.437,0.502s-0.221,0.484-0.286,0.795l-0.296,1.387h-0.492l0.967-4.559h0.492 c-0.035,0.16-0.069,0.314-0.101,0.465s-0.065,0.304-0.1,0.459s-0.071,0.318-0.111,0.488s-0.086,0.354-0.139,0.553h0.032 c0.184-0.24,0.365-0.412,0.543-0.516s0.366-0.154,0.561-0.154c0.256,0,0.454,0.07,0.593,0.211s0.209,0.34,0.209,0.598 c0,0.121-0.022,0.283-0.067,0.486c-0.076,0.377-0.218,1.033-0.425,1.969H246.888z"/><path fill="#FFF" d="M249.656,287.4c-0.359,0-0.642-0.107-0.847-0.32s-0.308-0.508-0.308-0.885c0-0.367,0.073-0.719,0.218-1.056 s0.338-0.599,0.579-0.786s0.505-0.281,0.794-0.281c0.299,0,0.523,0.064,0.674,0.194s0.226,0.312,0.226,0.544 c0,0.352-0.162,0.627-0.486,0.827s-0.788,0.3-1.392,0.3h-0.097l-0.012,0.234c0,0.256,0.06,0.456,0.18,0.6s0.306,0.215,0.558,0.215 c0.123,0,0.25-0.018,0.379-0.053s0.292-0.1,0.485-0.193v0.428c-0.184,0.086-0.346,0.146-0.486,0.181S249.826,287.4,249.656,287.4z M250.063,284.49c-0.201,0-0.39,0.092-0.567,0.275s-0.312,0.439-0.406,0.766h0.035c0.445,0,0.787-0.059,1.024-0.175 s0.356-0.284,0.356-0.505c0-0.104-0.036-0.189-0.107-0.258S250.216,284.49,250.063,284.49z"/><path fill="#FFF" d="M255.114,285.979h-1.453l-0.718,1.363h-0.554l2.341-4.283h0.51l0.539,4.283h-0.498L255.114,285.979z M255.062,285.521l-0.103-0.875c-0.047-0.35-0.075-0.691-0.085-1.025c-0.072,0.172-0.151,0.342-0.236,0.512 s-0.329,0.633-0.731,1.389H255.062z"/><path fill="#FFF" d="M258.267,284.072c0.135,0,0.252,0.014,0.352,0.041l-0.105,0.439c-0.104-0.025-0.206-0.039-0.308-0.039 c-0.178,0-0.344,0.059-0.5,0.176s-0.291,0.28-0.407,0.488s-0.202,0.439-0.256,0.693l-0.313,1.471h-0.492l0.686-3.211h0.407 l-0.064,0.594h0.029c0.141-0.186,0.257-0.318,0.349-0.399s0.188-0.144,0.289-0.188S258.144,284.072,258.267,284.072z"/><path fill="#FFF" d="M259.597,286.998c0.107,0,0.248-0.025,0.422-0.076v0.379c-0.066,0.027-0.148,0.051-0.246,0.07 s-0.176,0.029-0.234,0.029c-0.244,0-0.431-0.059-0.561-0.175s-0.195-0.29-0.195-0.521c0-0.129,0.018-0.275,0.053-0.439l0.372-1.764 h-0.504l0.041-0.213l0.542-0.229l0.366-0.668h0.287l-0.161,0.738h0.803l-0.076,0.371h-0.8l-0.378,1.77 c-0.035,0.17-0.053,0.299-0.053,0.387c0,0.109,0.028,0.193,0.085,0.252S259.495,286.998,259.597,286.998z"/><path fill="#FFF" d="M244.118,291.289c0.371,0,0.664,0.11,0.879,0.33s0.322,0.521,0.322,0.906c0,0.367-0.07,0.715-0.211,1.041 s-0.331,0.578-0.571,0.756s-0.512,0.266-0.814,0.266c-0.375,0-0.669-0.109-0.882-0.33s-0.319-0.523-0.319-0.906 c0-0.371,0.071-0.72,0.214-1.047s0.335-0.578,0.577-0.753S243.823,291.289,244.118,291.289z M244.809,292.459 c0-0.225-0.061-0.407-0.183-0.547s-0.288-0.209-0.497-0.209c-0.213,0-0.404,0.072-0.573,0.217s-0.3,0.345-0.393,0.602 s-0.139,0.543-0.139,0.857c0,0.256,0.062,0.453,0.186,0.593s0.302,0.21,0.535,0.21c0.203,0,0.386-0.072,0.548-0.215 s0.289-0.345,0.379-0.607S244.809,292.797,244.809,292.459z"/><path fill="#FFF" d="M245.295,295.982c-0.135,0-0.257-0.02-0.366-0.061v-0.414c0.125,0.043,0.234,0.064,0.328,0.064 c0.148,0,0.263-0.061,0.343-0.182s0.145-0.293,0.193-0.518l0.665-3.17h-0.565l0.038-0.197l0.604-0.193l0.067-0.293 c0.09-0.391,0.214-0.666,0.374-0.827s0.395-0.241,0.708-0.241c0.078,0,0.174,0.011,0.287,0.033s0.201,0.047,0.264,0.074 l-0.126,0.379c-0.148-0.057-0.282-0.086-0.401-0.086c-0.17,0-0.3,0.048-0.391,0.143s-0.165,0.268-0.221,0.52l-0.073,0.316h0.697 l-0.073,0.373h-0.694l-0.68,3.217c-0.076,0.369-0.193,0.639-0.352,0.809S245.553,295.982,245.295,295.982z"/><path fill="#FFF" d="M252.719,294.541h-0.498l-0.144-2.826c-0.016-0.266-0.023-0.541-0.023-0.826h-0.018 c-0.049,0.141-0.108,0.291-0.179,0.452s-0.562,1.228-1.477,3.2h-0.51l-0.182-4.283h0.498l0.091,2.641l0.006,0.258 c0,0.191-0.01,0.443-0.029,0.756h0.018c0.174-0.475,0.326-0.85,0.457-1.123l1.187-2.531h0.521l0.126,2.52 c0.018,0.299,0.026,0.596,0.026,0.891l-0.003,0.244h0.026c0.146-0.438,0.274-0.783,0.384-1.037l1.134-2.617h0.533L252.719,294.541z"/><path fill="#FFF" d="M256.021,291.271c0.18,0,0.34,0.049,0.48,0.146s0.25,0.235,0.328,0.417h0.032l0.196-0.504h0.372 l-0.683,3.211h-0.39l0.076-0.611h-0.023c-0.35,0.447-0.718,0.67-1.104,0.67c-0.271,0-0.484-0.096-0.639-0.289 s-0.231-0.459-0.231-0.795c0-0.406,0.069-0.783,0.208-1.131s0.33-0.619,0.574-0.816S255.73,291.271,256.021,291.271z M255.464,294.193c0.189,0,0.378-0.091,0.565-0.271s0.34-0.416,0.457-0.706s0.176-0.581,0.176-0.872 c0-0.201-0.055-0.361-0.164-0.48s-0.253-0.178-0.431-0.178c-0.203,0-0.392,0.084-0.567,0.252s-0.312,0.395-0.412,0.682 s-0.149,0.59-0.149,0.908c0,0.223,0.046,0.39,0.138,0.5S255.298,294.193,255.464,294.193z"/><path fill="#FFF" d="M259.742,291.271c0.135,0,0.252,0.014,0.352,0.041l-0.105,0.439c-0.104-0.025-0.206-0.037-0.308-0.037 c-0.178,0-0.344,0.059-0.5,0.176s-0.291,0.279-0.407,0.487s-0.202,0.438-0.256,0.692l-0.313,1.471h-0.492l0.686-3.211h0.407 l-0.064,0.596h0.029c0.141-0.186,0.257-0.319,0.349-0.4s0.188-0.144,0.289-0.188S259.619,291.271,259.742,291.271z"/></g><rect width="34.767" height="32.666" x="189.975" y="222.653" fill="#2E58A6"/><g><path fill="#FFF" d="M197.824,237.652h-0.504l0.812-3.84h-1.189l0.097-0.443h2.886l-0.088,0.443h-1.195L197.824,237.652z"/><path fill="#FFF" d="M201.258,234.383c0.18,0,0.34,0.049,0.48,0.146s0.25,0.235,0.328,0.417h0.032l0.196-0.504h0.372 l-0.683,3.211h-0.39l0.076-0.611h-0.023c-0.35,0.447-0.718,0.67-1.104,0.67c-0.271,0-0.484-0.096-0.639-0.289 s-0.231-0.459-0.231-0.795c0-0.406,0.069-0.783,0.208-1.131s0.33-0.619,0.574-0.816S200.967,234.383,201.258,234.383z M200.701,237.305c0.189,0,0.378-0.091,0.565-0.271s0.34-0.416,0.457-0.706s0.176-0.581,0.176-0.872 c0-0.201-0.055-0.361-0.164-0.48s-0.253-0.178-0.431-0.178c-0.203,0-0.392,0.084-0.567,0.252s-0.312,0.395-0.412,0.682 s-0.149,0.59-0.149,0.908c0,0.223,0.046,0.39,0.138,0.5S200.535,237.305,200.701,237.305z"/><path fill="#FFF" d="M203.435,237.652h-0.492l0.973-4.559h0.492L203.435,237.652z"/><path fill="#FFF" d="M205.74,237.711c-0.359,0-0.642-0.105-0.847-0.318s-0.308-0.508-0.308-0.885 c0-0.367,0.073-0.72,0.218-1.057s0.338-0.6,0.579-0.787s0.505-0.281,0.794-0.281c0.299,0,0.523,0.065,0.674,0.195 s0.226,0.311,0.226,0.543c0,0.352-0.162,0.628-0.486,0.828s-0.788,0.301-1.392,0.301h-0.097l-0.012,0.234 c0,0.256,0.06,0.455,0.18,0.599s0.306,0.216,0.558,0.216c0.123,0,0.25-0.018,0.379-0.053s0.292-0.1,0.485-0.193v0.428 c-0.184,0.086-0.346,0.146-0.486,0.18S205.91,237.711,205.74,237.711z M206.147,234.803c-0.201,0-0.39,0.092-0.567,0.275 s-0.312,0.438-0.406,0.764h0.035c0.445,0,0.787-0.058,1.024-0.174s0.356-0.285,0.356-0.506c0-0.104-0.036-0.189-0.107-0.258 S206.3,234.803,206.147,234.803z"/><path fill="#FFF" d="M209.394,237.652l0.434-2.027c0.039-0.203,0.059-0.344,0.059-0.422c0-0.123-0.035-0.221-0.104-0.295 s-0.18-0.111-0.333-0.111c-0.174,0-0.343,0.059-0.508,0.176s-0.311,0.283-0.437,0.5s-0.221,0.48-0.286,0.789l-0.296,1.391h-0.492 l0.686-3.211h0.407l-0.064,0.596h0.029c0.188-0.238,0.369-0.407,0.543-0.506s0.356-0.148,0.543-0.148 c0.248,0,0.444,0.068,0.587,0.204s0.215,0.325,0.215,0.569c0,0.154-0.022,0.33-0.067,0.527l-0.419,1.969H209.394z"/><path fill="#FFF" d="M211.878,237.311c0.107,0,0.248-0.025,0.422-0.076v0.377c-0.066,0.027-0.148,0.051-0.246,0.07 s-0.176,0.029-0.234,0.029c-0.244,0-0.431-0.058-0.561-0.174s-0.195-0.289-0.195-0.52c0-0.129,0.018-0.275,0.053-0.439l0.372-1.764 h-0.504l0.041-0.215l0.542-0.229l0.366-0.668h0.287l-0.161,0.738h0.803l-0.076,0.373h-0.8l-0.378,1.77 c-0.035,0.17-0.053,0.299-0.053,0.387c0,0.109,0.028,0.193,0.085,0.252S211.776,237.311,211.878,237.311z"/><path fill="#FFF" d="M214.89,237.652h-0.492l0.686-3.211h0.492L214.89,237.652z M215.221,233.621 c0-0.109,0.031-0.198,0.094-0.268s0.144-0.104,0.243-0.104c0.172,0,0.258,0.088,0.258,0.264c0,0.107-0.033,0.197-0.098,0.271 s-0.141,0.111-0.227,0.111c-0.078,0-0.143-0.023-0.193-0.071S215.221,233.709,215.221,233.621z"/><path fill="#FFF" d="M217.901,236.742c0,0.305-0.108,0.542-0.324,0.713s-0.52,0.256-0.913,0.256 c-0.33,0-0.628-0.066-0.894-0.201v-0.463c0.137,0.082,0.284,0.145,0.442,0.189s0.305,0.068,0.439,0.068 c0.246,0,0.432-0.049,0.557-0.146s0.188-0.223,0.188-0.375c0-0.111-0.034-0.205-0.103-0.281s-0.216-0.182-0.442-0.314 c-0.254-0.143-0.434-0.281-0.539-0.418s-0.158-0.299-0.158-0.486c0-0.27,0.099-0.487,0.296-0.652s0.457-0.248,0.779-0.248 c0.334,0,0.656,0.072,0.967,0.217l-0.158,0.402l-0.164-0.074c-0.197-0.084-0.412-0.125-0.645-0.125 c-0.182,0-0.324,0.042-0.428,0.127s-0.155,0.195-0.155,0.33c0,0.109,0.035,0.203,0.104,0.281s0.212,0.178,0.429,0.301 c0.209,0.117,0.359,0.219,0.45,0.303s0.159,0.174,0.204,0.271S217.901,236.621,217.901,236.742z"/><path fill="#FFF" d="M198.211,242.195c0,0.525-0.086,0.996-0.258,1.411s-0.418,0.736-0.738,0.964s-0.69,0.342-1.11,0.342 c-0.5,0-0.89-0.146-1.169-0.438s-0.419-0.702-0.419-1.229c0-0.516,0.094-0.986,0.281-1.412s0.445-0.754,0.772-0.984 s0.696-0.346,1.106-0.346c0.477,0,0.852,0.15,1.125,0.451S198.211,241.668,198.211,242.195z M196.638,240.947 c-0.307,0-0.581,0.1-0.823,0.297s-0.43,0.471-0.564,0.822s-0.201,0.74-0.201,1.166c0,0.389,0.096,0.692,0.287,0.91 s0.451,0.326,0.779,0.326c0.297,0,0.563-0.095,0.798-0.285s0.421-0.463,0.558-0.818s0.205-0.75,0.205-1.182 c0-0.389-0.092-0.691-0.275-0.909S196.964,240.947,196.638,240.947z"/><path fill="#FFF" d="M199.052,244.854l-0.366-3.211h0.492l0.188,1.795c0.047,0.504,0.07,0.857,0.07,1.061h0.018 c0.248-0.537,0.423-0.898,0.524-1.086l0.952-1.77h0.521l-1.731,3.211H199.052z"/><path fill="#FFF" d="M202.611,244.912c-0.359,0-0.642-0.107-0.847-0.32s-0.308-0.508-0.308-0.885 c0-0.367,0.073-0.719,0.218-1.056s0.338-0.599,0.579-0.786s0.505-0.281,0.794-0.281c0.299,0,0.523,0.064,0.674,0.194 s0.226,0.312,0.226,0.544c0,0.352-0.162,0.627-0.486,0.827s-0.788,0.3-1.392,0.3h-0.097l-0.012,0.234c0,0.256,0.06,0.456,0.18,0.6 s0.306,0.215,0.558,0.215c0.123,0,0.25-0.018,0.379-0.053s0.292-0.1,0.485-0.193v0.428c-0.184,0.086-0.346,0.146-0.486,0.181 S202.781,244.912,202.611,244.912z M203.019,242.002c-0.201,0-0.39,0.092-0.567,0.275s-0.312,0.439-0.406,0.766h0.035 c0.445,0,0.787-0.059,1.024-0.175s0.356-0.284,0.356-0.505c0-0.104-0.036-0.189-0.107-0.258S203.171,242.002,203.019,242.002z"/><path fill="#FFF" d="M206.332,241.584c0.135,0,0.252,0.014,0.352,0.041l-0.105,0.439c-0.104-0.025-0.206-0.039-0.308-0.039 c-0.178,0-0.344,0.059-0.5,0.176s-0.291,0.28-0.407,0.488s-0.202,0.439-0.256,0.693l-0.313,1.471h-0.492l0.686-3.211h0.407 l-0.064,0.594h0.029c0.141-0.186,0.257-0.318,0.349-0.399s0.188-0.144,0.289-0.188S206.209,241.584,206.332,241.584z"/><path fill="#FFF" d="M208.708,241.584c0.135,0,0.252,0.014,0.352,0.041l-0.105,0.439c-0.104-0.025-0.206-0.039-0.308-0.039 c-0.178,0-0.344,0.059-0.5,0.176s-0.291,0.28-0.407,0.488s-0.202,0.439-0.256,0.693l-0.313,1.471h-0.492l0.686-3.211h0.407 l-0.064,0.594h0.029c0.141-0.186,0.257-0.318,0.349-0.399s0.188-0.144,0.289-0.188S208.585,241.584,208.708,241.584z"/><path fill="#FFF" d="M210.753,241.584c0.18,0,0.34,0.048,0.48,0.145s0.25,0.236,0.328,0.418h0.032l0.196-0.504h0.372 l-0.683,3.211h-0.39l0.076-0.613h-0.023c-0.35,0.447-0.718,0.672-1.104,0.672c-0.271,0-0.484-0.098-0.639-0.291 s-0.231-0.457-0.231-0.793c0-0.406,0.069-0.783,0.208-1.131s0.33-0.621,0.574-0.818S210.462,241.584,210.753,241.584z M210.196,244.504c0.189,0,0.378-0.09,0.565-0.271s0.34-0.416,0.457-0.706s0.176-0.58,0.176-0.871c0-0.201-0.055-0.361-0.164-0.48 s-0.253-0.18-0.431-0.18c-0.203,0-0.392,0.084-0.567,0.252s-0.312,0.396-0.412,0.684s-0.149,0.59-0.149,0.908 c0,0.223,0.046,0.389,0.138,0.499S210.03,244.504,210.196,244.504z"/><path fill="#FFF" d="M213.428,244.51c0.107,0,0.248-0.025,0.422-0.076v0.379c-0.066,0.027-0.148,0.051-0.246,0.07 s-0.176,0.029-0.234,0.029c-0.244,0-0.431-0.059-0.561-0.175s-0.195-0.29-0.195-0.521c0-0.129,0.018-0.275,0.053-0.439l0.372-1.764 h-0.504l0.041-0.213l0.542-0.229l0.366-0.668h0.287l-0.161,0.738h0.803l-0.076,0.371h-0.8l-0.378,1.77 c-0.035,0.17-0.053,0.299-0.053,0.387c0,0.109,0.028,0.193,0.085,0.252S213.326,244.51,213.428,244.51z"/><path fill="#FFF" d="M215.657,244.912c-0.359,0-0.642-0.107-0.847-0.32s-0.308-0.508-0.308-0.885 c0-0.367,0.073-0.719,0.218-1.056s0.338-0.599,0.579-0.786s0.505-0.281,0.794-0.281c0.299,0,0.523,0.064,0.674,0.194 s0.226,0.312,0.226,0.544c0,0.352-0.162,0.627-0.486,0.827s-0.788,0.3-1.392,0.3h-0.097l-0.012,0.234c0,0.256,0.06,0.456,0.18,0.6 s0.306,0.215,0.558,0.215c0.123,0,0.25-0.018,0.379-0.053s0.292-0.1,0.485-0.193v0.428c-0.184,0.086-0.346,0.146-0.486,0.181 S215.827,244.912,215.657,244.912z M216.064,242.002c-0.201,0-0.39,0.092-0.567,0.275s-0.312,0.439-0.406,0.766h0.035 c0.445,0,0.787-0.059,1.024-0.175s0.356-0.284,0.356-0.505c0-0.104-0.036-0.189-0.107-0.258S216.217,242.002,216.064,242.002z"/><path fill="#FFF" d="M219.047,241.59c0.379,0,0.653,0.186,0.823,0.557h0.029c0.033-0.303,0.077-0.57,0.132-0.803l0.229-1.049 h0.486l-0.967,4.559h-0.407l0.064-0.613h-0.023c-0.197,0.244-0.382,0.418-0.554,0.52s-0.35,0.152-0.533,0.152 c-0.271,0-0.483-0.096-0.636-0.287s-0.229-0.457-0.229-0.797c0-0.418,0.07-0.801,0.211-1.148s0.331-0.617,0.57-0.807 S218.75,241.59,219.047,241.59z M218.49,244.504c0.184,0,0.373-0.091,0.568-0.273s0.35-0.416,0.464-0.7s0.171-0.573,0.171-0.868 c0-0.217-0.053-0.383-0.158-0.496s-0.259-0.17-0.46-0.17c-0.197,0-0.38,0.081-0.549,0.242s-0.305,0.388-0.407,0.68 s-0.154,0.6-0.154,0.922C217.966,244.283,218.141,244.504,218.49,244.504z"/></g><rect width="15.074" height="14.162" x="214.895" y="204.249" fill="#2E58A6"/><rect width="10.457" height="9.826" x="186.975" y="269.263" fill="#2E58A6"/><rect width="10.457" height="9.826" x="236.308" y="311.093" fill="#2E58A6"/><g><rect width="116.959" height="38.596" x="122.667" y="125.5" fill="#C2000B"/><g><path fill="#FFF" d="M142.248,143.569c0,1.26-0.223,2.316-0.67,3.168c-0.446,0.853-1.102,1.477-1.966,1.871l2.578,2.879h-2.908 l-1.963-2.402h-0.168c-1.641,0-2.9-0.477-3.779-1.428c-0.879-0.953-1.318-2.319-1.318-4.102s0.44-3.144,1.322-4.084 c0.881-0.939,2.145-1.41,3.791-1.41s2.904,0.475,3.776,1.422C141.812,140.431,142.248,141.793,142.248,143.569z M134.433,143.569 c0,1.197,0.227,2.098,0.681,2.703s1.133,0.908,2.036,0.908c1.812,0,2.717-1.203,2.717-3.611c0-2.411-0.901-3.617-2.703-3.617 c-0.903,0-1.584,0.304-2.043,0.911C134.663,141.472,134.433,142.374,134.433,143.569z"/><path fill="#FFF" d="M150.092,148.938l-0.3-1.047h-0.117c-0.239,0.381-0.579,0.675-1.018,0.882 c-0.439,0.208-0.94,0.312-1.501,0.312c-0.962,0-1.687-0.258-2.175-0.772c-0.488-0.516-0.732-1.257-0.732-2.224v-5.339h2.234v4.782 c0,0.592,0.105,1.034,0.315,1.33c0.21,0.295,0.544,0.443,1.003,0.443c0.625,0,1.077-0.209,1.355-0.627 c0.278-0.417,0.417-1.109,0.417-2.076v-3.853h2.234v8.188H150.092z"/><path fill="#FFF" d="M157.856,149.085c-1.318,0-2.349-0.363-3.091-1.092c-0.742-0.727-1.113-1.758-1.113-3.09 c0-1.372,0.343-2.434,1.029-3.183c0.686-0.75,1.634-1.124,2.845-1.124c1.157,0,2.058,0.329,2.703,0.988s0.967,1.57,0.967,2.732 v1.084h-5.281c0.024,0.635,0.212,1.13,0.564,1.486s0.845,0.535,1.479,0.535c0.493,0,0.959-0.052,1.399-0.154 s0.898-0.266,1.377-0.49v1.729c-0.391,0.195-0.808,0.34-1.252,0.436C159.038,149.037,158.496,149.085,157.856,149.085z M157.541,142.186c-0.474,0-0.845,0.15-1.113,0.45c-0.269,0.301-0.422,0.727-0.461,1.278h3.135 c-0.01-0.552-0.154-0.978-0.432-1.278C158.391,142.336,158.015,142.186,157.541,142.186z"/><path fill="#FFF" d="M167.583,140.597c0.303,0,0.554,0.021,0.754,0.065l-0.168,2.095c-0.181-0.049-0.4-0.073-0.659-0.073 c-0.713,0-1.269,0.183-1.666,0.55c-0.398,0.365-0.597,0.879-0.597,1.537v4.168h-2.234v-8.188h1.692l0.33,1.377h0.11 c0.254-0.459,0.597-0.829,1.029-1.109C166.605,140.736,167.075,140.597,167.583,140.597z"/><path fill="#FFF" d="M168.652,140.75h2.446l1.545,4.606c0.132,0.401,0.222,0.875,0.271,1.422h0.044 c0.054-0.503,0.159-0.977,0.315-1.422l1.516-4.606h2.395l-3.464,9.235c-0.317,0.854-0.771,1.494-1.358,1.92 c-0.589,0.424-1.276,0.637-2.062,0.637c-0.386,0-0.764-0.042-1.135-0.125v-1.771c0.269,0.062,0.562,0.095,0.879,0.095 c0.396,0,0.741-0.121,1.036-0.362c0.295-0.242,0.526-0.607,0.692-1.096l0.132-0.402L168.652,140.75z"/><path fill="#FFF" d="M188.596,148.938h-6.167V138.23h6.167v1.86h-3.896v2.352h3.625v1.859h-3.625v2.762h3.896V148.938z"/><path fill="#FFF" d="M198.212,148.938h-2.234v-4.783c0-0.59-0.105-1.033-0.315-1.329c-0.21-0.295-0.544-0.442-1.003-0.442 c-0.625,0-1.077,0.208-1.355,0.626c-0.278,0.417-0.417,1.109-0.417,2.076v3.853h-2.234v-8.188h1.707l0.3,1.048h0.125 c0.249-0.396,0.592-0.695,1.029-0.897c0.437-0.203,0.934-0.304,1.491-0.304c0.952,0,1.675,0.257,2.168,0.772 c0.493,0.515,0.74,1.259,0.74,2.229V148.938z"/><path fill="#FFF" d="M207.639,140.75v1.136l-1.282,0.329c0.234,0.366,0.352,0.776,0.352,1.23c0,0.879-0.307,1.563-0.919,2.055 c-0.613,0.49-1.464,0.735-2.553,0.735l-0.403-0.021l-0.33-0.037c-0.229,0.176-0.344,0.372-0.344,0.586 c0,0.322,0.41,0.484,1.23,0.484h1.392c0.898,0,1.583,0.192,2.054,0.578s0.707,0.952,0.707,1.699c0,0.957-0.399,1.699-1.197,2.227 c-0.799,0.527-1.945,0.791-3.439,0.791c-1.143,0-2.016-0.199-2.619-0.597c-0.603-0.398-0.904-0.956-0.904-1.674 c0-0.493,0.154-0.906,0.461-1.237c0.308-0.332,0.759-0.569,1.355-0.711c-0.229-0.098-0.43-0.258-0.601-0.479 c-0.171-0.223-0.256-0.458-0.256-0.707c0-0.312,0.09-0.572,0.271-0.78c0.181-0.207,0.442-0.411,0.784-0.611 c-0.43-0.186-0.771-0.483-1.022-0.894s-0.377-0.894-0.377-1.45c0-0.894,0.291-1.584,0.872-2.072s1.411-0.732,2.49-0.732 c0.229,0,0.501,0.021,0.817,0.062c0.314,0.042,0.516,0.072,0.604,0.092H207.639z M201.318,150.096c0,0.308,0.147,0.55,0.443,0.726 c0.295,0.176,0.709,0.264,1.241,0.264c0.801,0,1.428-0.11,1.882-0.33s0.681-0.52,0.681-0.9c0-0.309-0.134-0.521-0.403-0.638 s-0.684-0.176-1.245-0.176h-1.157c-0.41,0-0.753,0.097-1.029,0.289C201.456,149.523,201.318,149.778,201.318,150.096z M202.131,143.431c0,0.444,0.101,0.796,0.304,1.055c0.202,0.259,0.511,0.389,0.926,0.389c0.42,0,0.728-0.13,0.923-0.389 s0.293-0.61,0.293-1.055c0-0.986-0.405-1.479-1.216-1.479C202.541,141.951,202.131,142.444,202.131,143.431z"/><path fill="#FFF" d="M208.891,138.634c0-0.728,0.405-1.092,1.216-1.092s1.216,0.364,1.216,1.092 c0,0.347-0.102,0.616-0.304,0.809c-0.203,0.193-0.506,0.289-0.912,0.289C209.296,139.731,208.891,139.366,208.891,138.634z M211.22,148.938h-2.234v-8.188h2.234V148.938z"/><path fill="#FFF" d="M221.123,148.938h-2.234v-4.783c0-0.59-0.105-1.033-0.315-1.329c-0.21-0.295-0.544-0.442-1.003-0.442 c-0.625,0-1.077,0.208-1.355,0.626c-0.278,0.417-0.417,1.109-0.417,2.076v3.853h-2.234v-8.188h1.707l0.3,1.048h0.125 c0.249-0.396,0.592-0.695,1.029-0.897c0.437-0.203,0.934-0.304,1.491-0.304c0.952,0,1.675,0.257,2.168,0.772 c0.493,0.515,0.74,1.259,0.74,2.229V148.938z"/><path fill="#FFF" d="M227.128,149.085c-1.318,0-2.349-0.363-3.091-1.092c-0.742-0.727-1.113-1.758-1.113-3.09 c0-1.372,0.343-2.434,1.029-3.183c0.686-0.75,1.634-1.124,2.845-1.124c1.157,0,2.058,0.329,2.703,0.988s0.967,1.57,0.967,2.732 v1.084h-5.281c0.024,0.635,0.212,1.13,0.564,1.486s0.845,0.535,1.479,0.535c0.493,0,0.959-0.052,1.399-0.154 s0.898-0.266,1.377-0.49v1.729c-0.391,0.195-0.808,0.34-1.252,0.436C228.31,149.037,227.768,149.085,227.128,149.085z M226.813,142.186c-0.474,0-0.845,0.15-1.113,0.45c-0.269,0.301-0.422,0.727-0.461,1.278h3.135 c-0.01-0.552-0.154-0.978-0.432-1.278C227.663,142.336,227.287,142.186,226.813,142.186z"/></g></g><line x1="83.5" x2="122.667" y1="85.969" y2="125.5" fill="none" stroke="#000" stroke-miterlimit="10"/><line x1="158" x2="181.147" y1="91.303" y2="125.5" fill="none" stroke="#000" stroke-miterlimit="10"/><line x1="298.334" x2="239.626" y1="67.969" y2="125.5" fill="none" stroke="#000" stroke-miterlimit="10"/><g><g><line x1="181.146" x2="178.042" y1="164.096" y2="169.23" fill="none" stroke="#000" stroke-miterlimit="10"/><line x1="172.743" x2="143.602" y1="177.992" y2="226.186" fill="none" stroke="#000" stroke-dasharray="10.24 10.24" stroke-miterlimit="10"/><line x1="140.952" x2="137.848" y1="230.566" y2="235.701" fill="none" stroke="#000" stroke-miterlimit="10"/></g></g><g><g><line x1="181.146" x2="184.526" y1="164.096" y2="169.053" fill="none" stroke="#000" stroke-miterlimit="10"/><line x1="190.535" x2="223.584" y1="177.866" y2="226.337" fill="none" stroke="#000" stroke-dasharray="10.666 10.666" stroke-miterlimit="10"/><line x1="226.589" x2="229.969" y1="230.744" y2="235.701" fill="none" stroke="#000" stroke-miterlimit="10"/></g></g><rect width="106.433" height="100" x="369.842" y="94.798" fill="#008837" stroke="#000" stroke-miterlimit="10"/><g><path d="M385.086,137.348h3.333c1.519,0,2.621,0.216,3.307,0.648c0.686,0.432,1.029,1.119,1.029,2.062 c0,0.64-0.15,1.165-0.451,1.575c-0.3,0.41-0.699,0.657-1.197,0.74v0.073c0.679,0.151,1.168,0.435,1.469,0.85 c0.3,0.415,0.45,0.967,0.45,1.655c0,0.977-0.353,1.738-1.059,2.285s-1.664,0.82-2.875,0.82h-4.006V137.348z M387.357,141.588h1.318 c0.615,0,1.061-0.095,1.337-0.286c0.275-0.19,0.414-0.505,0.414-0.945c0-0.41-0.15-0.704-0.451-0.882 c-0.3-0.178-0.775-0.268-1.424-0.268h-1.194V141.588z M387.357,143.39v2.791h1.479c0.625,0,1.086-0.12,1.384-0.359 s0.447-0.605,0.447-1.099c0-0.889-0.635-1.333-1.904-1.333H387.357z"/><path d="M402.43,143.947c0,1.333-0.352,2.375-1.055,3.127c-0.703,0.752-1.682,1.128-2.937,1.128c-0.786,0-1.479-0.172-2.08-0.517 c-0.601-0.344-1.062-0.838-1.384-1.483s-0.483-1.396-0.483-2.256c0-1.338,0.349-2.378,1.047-3.12s1.68-1.113,2.944-1.113 c0.786,0,1.479,0.171,2.08,0.513s1.062,0.833,1.385,1.472S402.43,143.087,402.43,143.947z M396.769,143.947 c0,0.811,0.133,1.423,0.399,1.838s0.7,0.623,1.3,0.623c0.596,0,1.024-0.206,1.286-0.619c0.261-0.413,0.392-1.027,0.392-1.842 c0-0.811-0.132-1.418-0.396-1.824s-0.696-0.608-1.296-0.608c-0.596,0-1.025,0.202-1.289,0.604 C396.9,142.522,396.769,143.131,396.769,143.947z"/><path d="M411.717,143.947c0,1.333-0.352,2.375-1.055,3.127s-1.682,1.128-2.937,1.128c-0.786,0-1.479-0.172-2.08-0.517 c-0.601-0.344-1.062-0.838-1.384-1.483s-0.484-1.396-0.484-2.256c0-1.338,0.35-2.378,1.048-3.12s1.68-1.113,2.944-1.113 c0.786,0,1.479,0.171,2.08,0.513s1.062,0.833,1.385,1.472S411.717,143.087,411.717,143.947z M406.056,143.947 c0,0.811,0.133,1.423,0.399,1.838c0.266,0.415,0.699,0.623,1.3,0.623c0.596,0,1.024-0.206,1.286-0.619 c0.26-0.413,0.391-1.027,0.391-1.842c0-0.811-0.131-1.418-0.395-1.824s-0.696-0.608-1.297-0.608c-0.596,0-1.025,0.202-1.289,0.604 C406.188,142.522,406.056,143.131,406.056,143.947z"/><path d="M415.709,143.603l0.975-1.245l2.292-2.49h2.52l-3.252,3.552l3.45,4.636h-2.578l-2.359-3.318l-0.959,0.769v2.549h-2.234 v-11.396h2.234v5.083l-0.117,1.86H415.709z"/><path d="M428.578,145.624c0,0.84-0.293,1.479-0.875,1.919c-0.584,0.439-1.457,0.659-2.619,0.659c-0.596,0-1.104-0.04-1.523-0.121 c-0.42-0.08-0.812-0.199-1.18-0.355v-1.846c0.416,0.195,0.883,0.359,1.402,0.491c0.521,0.132,0.979,0.198,1.374,0.198 c0.811,0,1.216-0.234,1.216-0.703c0-0.176-0.054-0.319-0.161-0.428c-0.107-0.11-0.293-0.234-0.557-0.374 c-0.264-0.139-0.615-0.301-1.055-0.487c-0.63-0.264-1.093-0.508-1.388-0.732c-0.296-0.225-0.511-0.482-0.645-0.773 c-0.135-0.29-0.201-0.648-0.201-1.073c0-0.728,0.281-1.29,0.846-1.688s1.363-0.597,2.398-0.597c0.986,0,1.945,0.215,2.879,0.645 l-0.674,1.611c-0.41-0.176-0.794-0.32-1.15-0.432s-0.721-0.168-1.092-0.168c-0.658,0-0.988,0.178-0.988,0.535 c0,0.2,0.105,0.374,0.318,0.52s0.678,0.364,1.396,0.652c0.64,0.259,1.108,0.5,1.406,0.725s0.518,0.483,0.659,0.776 S428.578,145.219,428.578,145.624z"/><path d="M440.948,148.056l-0.776-2.549h-3.904l-0.775,2.549h-2.447l3.779-10.752h2.776l3.794,10.752H440.948z M439.63,143.603 c-0.718-2.31-1.122-3.616-1.212-3.918c-0.091-0.303-0.155-0.542-0.194-0.718c-0.161,0.625-0.622,2.17-1.384,4.636H439.63z"/><path d="M449.063,148.202c-0.962,0-1.716-0.349-2.263-1.047h-0.117c0.078,0.684,0.117,1.079,0.117,1.187v3.318h-2.234v-11.792 h1.816l0.314,1.062h0.104c0.521-0.811,1.296-1.216,2.321-1.216c0.967,0,1.724,0.374,2.271,1.121s0.82,1.785,0.82,3.113 c0,0.874-0.128,1.633-0.385,2.278c-0.256,0.645-0.621,1.135-1.095,1.472S449.703,148.202,449.063,148.202z M448.404,141.5 c-0.552,0-0.955,0.17-1.209,0.509s-0.385,0.899-0.395,1.681v0.242c0,0.879,0.13,1.509,0.392,1.89 c0.261,0.381,0.675,0.571,1.241,0.571c1.001,0,1.502-0.825,1.502-2.476c0-0.806-0.124-1.41-0.37-1.813 C449.318,141.702,448.932,141.5,448.404,141.5z"/><path d="M458.556,148.202c-0.962,0-1.716-0.349-2.263-1.047h-0.117c0.078,0.684,0.117,1.079,0.117,1.187v3.318h-2.234v-11.792 h1.816l0.314,1.062h0.104c0.521-0.811,1.296-1.216,2.321-1.216c0.967,0,1.724,0.374,2.271,1.121s0.82,1.785,0.82,3.113 c0,0.874-0.128,1.633-0.385,2.278c-0.256,0.645-0.621,1.135-1.095,1.472S459.195,148.202,458.556,148.202z M457.896,141.5 c-0.552,0-0.955,0.17-1.209,0.509s-0.385,0.899-0.395,1.681v0.242c0,0.879,0.13,1.509,0.392,1.89 c0.261,0.381,0.675,0.571,1.241,0.571c1.001,0,1.502-0.825,1.502-2.476c0-0.806-0.124-1.41-0.37-1.813 C458.811,141.702,458.424,141.5,457.896,141.5z"/></g><line x1="239.626" x2="369.842" y1="144.798" y2="144.798" fill="none" stroke="#000" stroke-miterlimit="10" stroke-width="3"/></svg>