<svg xmlns="http://www.w3.org/2000/svg" xmlns:xlink="http://www.w3.org/1999/xlink" id="Layer_1" width="392.79" height="168.409" x="0" y="0" enable-background="new 0 0 392.79 168.409" version="1.1" viewBox="0 0 392.79 168.409" xml:space="preserve"><g><rect width="116.959" height="38.596" x="5.842" y="59.959" fill="#C2000B"/><g><path fill="#FFF" d="M25.423,78.029c0,1.26-0.223,2.316-0.67,3.168c-0.446,0.853-1.102,1.477-1.966,1.871l2.578,2.879h-2.908 l-1.963-2.402h-0.168c-1.641,0-2.9-0.477-3.779-1.428c-0.879-0.953-1.318-2.319-1.318-4.102s0.44-3.144,1.322-4.084 c0.881-0.939,2.145-1.41,3.791-1.41s2.904,0.475,3.776,1.422C24.987,74.891,25.423,76.253,25.423,78.029z M17.608,78.029 c0,1.197,0.227,2.098,0.681,2.703s1.133,0.908,2.036,0.908c1.812,0,2.717-1.203,2.717-3.611c0-2.411-0.901-3.617-2.703-3.617 c-0.903,0-1.584,0.304-2.043,0.911C17.837,75.932,17.608,76.834,17.608,78.029z"/><path fill="#FFF" d="M33.267,83.398l-0.3-1.047H32.85c-0.239,0.381-0.579,0.675-1.018,0.882 c-0.439,0.208-0.94,0.312-1.501,0.312c-0.962,0-1.687-0.258-2.175-0.772c-0.488-0.516-0.732-1.257-0.732-2.224V75.21h2.234v4.782 c0,0.592,0.105,1.034,0.315,1.33c0.21,0.295,0.544,0.443,1.003,0.443c0.625,0,1.077-0.209,1.355-0.627 c0.278-0.417,0.417-1.109,0.417-2.076V75.21h2.234v8.188H33.267z"/><path fill="#FFF" d="M41.031,83.545c-1.318,0-2.349-0.363-3.091-1.092c-0.742-0.727-1.113-1.758-1.113-3.09 c0-1.372,0.343-2.434,1.029-3.183c0.686-0.75,1.634-1.124,2.845-1.124c1.157,0,2.058,0.329,2.703,0.988s0.967,1.57,0.967,2.732 v1.084H39.09c0.024,0.635,0.212,1.13,0.564,1.486s0.845,0.535,1.479,0.535c0.493,0,0.959-0.052,1.399-0.154 s0.898-0.266,1.377-0.49v1.729c-0.391,0.195-0.808,0.34-1.252,0.436C42.212,83.497,41.67,83.545,41.031,83.545z M40.716,76.646 c-0.474,0-0.845,0.15-1.113,0.45c-0.269,0.301-0.422,0.727-0.461,1.278h3.135c-0.01-0.552-0.154-0.978-0.432-1.278 C41.565,76.796,41.189,76.646,40.716,76.646z"/><path fill="#FFF" d="M50.757,75.057c0.303,0,0.554,0.021,0.754,0.065l-0.168,2.095c-0.181-0.049-0.4-0.073-0.659-0.073 c-0.713,0-1.269,0.183-1.666,0.55c-0.398,0.365-0.597,0.879-0.597,1.537v4.168h-2.234V75.21h1.692l0.33,1.377h0.11 c0.254-0.459,0.597-0.829,1.029-1.109C49.78,75.196,50.25,75.057,50.757,75.057z"/><path fill="#FFF" d="M51.827,75.21h2.446l1.545,4.606c0.132,0.401,0.222,0.875,0.271,1.422h0.044 c0.054-0.503,0.159-0.977,0.315-1.422l1.516-4.606h2.395l-3.464,9.235c-0.317,0.854-0.771,1.494-1.358,1.92 c-0.589,0.424-1.276,0.637-2.062,0.637c-0.386,0-0.764-0.042-1.135-0.125v-1.771c0.269,0.062,0.562,0.095,0.879,0.095 c0.396,0,0.741-0.121,1.036-0.362c0.295-0.242,0.526-0.607,0.692-1.096l0.132-0.402L51.827,75.21z"/><path fill="#FFF" d="M71.771,83.398h-6.167V72.69h6.167v1.86h-3.896v2.352H71.5v1.859h-3.625v2.762h3.896V83.398z"/><path fill="#FFF" d="M81.387,83.398h-2.234v-4.783c0-0.59-0.105-1.033-0.315-1.329c-0.21-0.295-0.544-0.442-1.003-0.442 c-0.625,0-1.077,0.208-1.355,0.626c-0.278,0.417-0.417,1.109-0.417,2.076v3.853h-2.234V75.21h1.707l0.3,1.048h0.125 c0.249-0.396,0.592-0.695,1.029-0.897c0.437-0.203,0.934-0.304,1.491-0.304c0.952,0,1.675,0.257,2.168,0.772 c0.493,0.515,0.74,1.259,0.74,2.229V83.398z"/><path fill="#FFF" d="M90.813,75.21v1.136l-1.282,0.329c0.234,0.366,0.352,0.776,0.352,1.23c0,0.879-0.307,1.563-0.919,2.055 c-0.613,0.49-1.464,0.735-2.553,0.735l-0.403-0.021l-0.33-0.037c-0.229,0.176-0.344,0.372-0.344,0.586 c0,0.322,0.41,0.484,1.23,0.484h1.392c0.898,0,1.583,0.192,2.054,0.578s0.707,0.952,0.707,1.699c0,0.957-0.399,1.699-1.197,2.227 c-0.799,0.527-1.945,0.791-3.439,0.791c-1.143,0-2.016-0.199-2.619-0.597c-0.603-0.398-0.904-0.956-0.904-1.674 c0-0.493,0.154-0.906,0.461-1.237c0.308-0.332,0.759-0.569,1.355-0.711c-0.229-0.098-0.43-0.258-0.601-0.479 c-0.171-0.223-0.256-0.458-0.256-0.707c0-0.312,0.09-0.572,0.271-0.78c0.181-0.207,0.442-0.411,0.784-0.611 c-0.43-0.186-0.771-0.483-1.022-0.894s-0.377-0.894-0.377-1.45c0-0.894,0.291-1.584,0.872-2.072s1.411-0.732,2.49-0.732 c0.229,0,0.501,0.021,0.817,0.062c0.314,0.042,0.516,0.072,0.604,0.092H90.813z M84.493,84.556c0,0.308,0.147,0.55,0.443,0.726 c0.295,0.176,0.709,0.264,1.241,0.264c0.801,0,1.428-0.11,1.882-0.33s0.681-0.52,0.681-0.9c0-0.309-0.134-0.521-0.403-0.638 s-0.684-0.176-1.245-0.176h-1.157c-0.41,0-0.753,0.097-1.029,0.289C84.63,83.983,84.493,84.238,84.493,84.556z M85.306,77.891 c0,0.444,0.101,0.796,0.304,1.055c0.202,0.259,0.511,0.389,0.926,0.389c0.42,0,0.728-0.13,0.923-0.389s0.293-0.61,0.293-1.055 c0-0.986-0.405-1.479-1.216-1.479C85.716,76.411,85.306,76.904,85.306,77.891z"/><path fill="#FFF" d="M92.066,73.094c0-0.728,0.405-1.092,1.216-1.092s1.216,0.364,1.216,1.092c0,0.347-0.102,0.616-0.304,0.809 c-0.203,0.193-0.506,0.289-0.912,0.289C92.471,74.191,92.066,73.826,92.066,73.094z M94.395,83.398h-2.234V75.21h2.234V83.398z"/><path fill="#FFF" d="M104.297,83.398h-2.234v-4.783c0-0.59-0.105-1.033-0.315-1.329c-0.21-0.295-0.544-0.442-1.003-0.442 c-0.625,0-1.077,0.208-1.355,0.626c-0.278,0.417-0.417,1.109-0.417,2.076v3.853h-2.234V75.21h1.707l0.3,1.048h0.125 c0.249-0.396,0.592-0.695,1.029-0.897c0.437-0.203,0.934-0.304,1.491-0.304c0.952,0,1.675,0.257,2.168,0.772 c0.493,0.515,0.74,1.259,0.74,2.229V83.398z"/><path fill="#FFF" d="M110.303,83.545c-1.318,0-2.349-0.363-3.091-1.092c-0.742-0.727-1.113-1.758-1.113-3.09 c0-1.372,0.343-2.434,1.029-3.183c0.686-0.75,1.634-1.124,2.845-1.124c1.157,0,2.058,0.329,2.703,0.988s0.967,1.57,0.967,2.732 v1.084h-5.281c0.024,0.635,0.212,1.13,0.564,1.486s0.845,0.535,1.479,0.535c0.493,0,0.959-0.052,1.399-0.154 s0.898-0.266,1.377-0.49v1.729c-0.391,0.195-0.808,0.34-1.252,0.436C111.485,83.497,110.943,83.545,110.303,83.545z M109.988,76.646c-0.474,0-0.845,0.15-1.113,0.45c-0.269,0.301-0.422,0.727-0.461,1.278h3.135 c-0.01-0.552-0.154-0.978-0.432-1.278C110.838,76.796,110.462,76.646,109.988,76.646z"/></g></g><rect width="41.129" height="38.644" x="151.397" y="59.936" fill="#2E58A6"/><rect width="41.129" height="38.644" x="208.123" y="17.831" fill="#2E58A6"/><rect width="41.129" height="38.644" x="228.687" y="94.439" fill="#2E58A6"/><rect width="20.565" height="19.322" x="279.468" y="30.72" fill="#2E58A6"/><rect width="41.129" height="38.644" x="294.672" y="125.384" fill="#2E58A6"/><rect width="41.129" height="38.644" x="302.859" y="67.335" fill="#2E58A6"/><rect width="41.129" height="38.644" x="346.719" y="24.574" fill="#2E58A6"/><rect width="20.565" height="19.322" x="218.404" y="67.334" fill="#2E58A6"/><rect width="20.565" height="19.322" x="214.799" y="142.745" fill="#2E58A6"/><rect width="20.565" height="19.322" x="360.754" y="120.503" fill="#2E58A6"/><g><g><line x1="122.801" x2="147.776" y1="79.257" y2="79.257" fill="none" stroke="#000" stroke-miterlimit="10" stroke-width="2"/><g><path d="M151.397,79.257c-1.704,0.632-3.818,1.711-5.128,2.854l1.032-2.854l-1.032-2.853 C147.58,77.547,149.693,78.625,151.397,79.257z"/></g></g></g><g><g><line x1="171.962" x2="205.06" y1="59.959" y2="39.084" fill="none" stroke="#000" stroke-miterlimit="10" stroke-width="2"/><g><path d="M208.123,37.153c-1.104,1.444-2.316,3.484-2.815,5.149l-0.649-2.964l-2.395-1.862 C203.981,37.743,206.344,37.527,208.123,37.153z"/></g></g></g><g><g><line x1="192.527" x2="214.797" y1="79.257" y2="77.311" fill="none" stroke="#000" stroke-miterlimit="10" stroke-width="2"/><g><path d="M218.405,76.996c-1.643,0.778-3.654,2.037-4.86,3.289l0.78-2.933l-1.277-2.752 C214.453,75.624,216.652,76.515,218.405,76.996z"/></g></g></g><g><g><line x1="238.969" x2="276.782" y1="76.996" y2="42.81" fill="none" stroke="#000" stroke-miterlimit="10" stroke-width="2"/><g><path d="M279.468,40.381c-0.84,1.612-1.685,3.83-1.891,5.556l-1.148-2.809l-2.679-1.424 C275.489,41.673,277.78,41.056,279.468,40.381z"/></g></g></g><g><g><line x1="289.75" x2="251.692" y1="50.042" y2="91.764" fill="none" stroke="#000" stroke-miterlimit="10" stroke-width="2"/><g><path d="M249.252,94.439c0.681-1.685,1.309-3.974,1.348-5.712l1.413,2.686l2.803,1.16 C253.088,92.771,250.867,93.606,249.252,94.439z"/></g></g></g><g><g><line x1="269.816" x2="292.404" y1="113.761" y2="141.883" fill="none" stroke="#000" stroke-miterlimit="10" stroke-width="2"/><g><path d="M294.672,144.707c-1.56-0.933-3.725-1.905-5.436-2.211l2.871-0.982l1.578-2.591 C293.614,140.659,294.097,142.982,294.672,144.707z"/></g></g></g><g><g><line x1="300.033" x2="321.051" y1="40.381" y2="64.6" fill="none" stroke="#000" stroke-miterlimit="10" stroke-width="2"/><g><path d="M323.424,67.334c-1.594-0.873-3.794-1.762-5.517-2.003l2.832-1.091l1.479-2.649 C322.213,63.33,322.785,65.634,323.424,67.334z"/></g></g></g><g><g><line x1="343.989" x2="364.731" y1="86.657" y2="65.787" fill="none" stroke="#000" stroke-miterlimit="10" stroke-width="2"/><g><path d="M367.284,63.218c-0.753,1.654-1.478,3.914-1.591,5.649l-1.296-2.744l-2.751-1.279 C363.379,64.721,365.635,63.981,367.284,63.218z"/></g></g></g><g><g><line x1="335.801" x2="357.676" y1="144.707" y2="131.142" fill="none" stroke="#000" stroke-miterlimit="10" stroke-width="2"/><g><path d="M360.754,129.234c-1.115,1.435-2.343,3.466-2.855,5.128l-0.626-2.969l-2.38-1.881 C356.608,129.792,358.973,129.595,360.754,129.234z"/></g></g></g><rect width="20.565" height="19.323" x="259.219" y="5.25" fill="#2E58A6"/><rect width="41.129" height="38.645" x="164.336" y="109.912" fill="#2E58A6"/></svg>