<svg xmlns="http://www.w3.org/2000/svg" xmlns:xlink="http://www.w3.org/1999/xlink" id="Layer_1" width="400" height="215.667" x="0" y="0" enable-background="new 0 0 400 215.667" version="1.1" viewBox="0 0 400 215.667" xml:space="preserve"><rect width="106.261" height="72.813" x="289.63" y="16.38" fill="#C7D468" stroke="#4D4D4D" stroke-miterlimit="10"/><rect width="229.88" height="203.459" x="6.091" y="5.307" fill="#C7D468" stroke="#4D4D4D" stroke-miterlimit="10"/><g><path fill="#4D4D4D" d="M16.547,11.212c2.109,0,3.164,0.82,3.164,2.461c0,0.688-0.212,1.27-0.637,1.743s-1.023,0.781-1.794,0.923 v0.073c0.562,0.156,0.992,0.426,1.293,0.81c0.3,0.383,0.45,0.843,0.45,1.38c0,1.035-0.371,1.847-1.113,2.435 c-0.742,0.589-1.736,0.883-2.981,0.883h-3.391L13.8,11.212H16.547z M13.009,20.858h1.948c0.884,0,1.562-0.196,2.036-0.589 s0.71-0.949,0.71-1.667c0-0.566-0.182-1-0.546-1.3c-0.364-0.3-0.887-0.45-1.571-0.45h-1.729L13.009,20.858z M14.086,15.797h1.816 c0.762,0,1.37-0.178,1.824-0.535s0.681-0.842,0.681-1.458c0-0.508-0.163-0.887-0.487-1.139s-0.836-0.377-1.534-0.377H14.84 L14.086,15.797z"/><path fill="#4D4D4D" d="M24.589,13.79c0.928,0,1.66,0.274,2.197,0.824c0.537,0.549,0.806,1.305,0.806,2.267 c0,0.918-0.176,1.785-0.527,2.6s-0.828,1.445-1.428,1.89s-1.279,0.667-2.036,0.667c-0.938,0-1.672-0.276-2.205-0.828 s-0.798-1.306-0.798-2.263c0-0.928,0.178-1.8,0.535-2.618s0.837-1.445,1.443-1.883C23.18,14.009,23.852,13.79,24.589,13.79z M26.317,16.712c0-0.562-0.153-1.017-0.458-1.366c-0.306-0.349-0.719-0.524-1.242-0.524c-0.532,0-1.01,0.181-1.432,0.542 s-0.75,0.863-0.981,1.505s-0.348,1.356-0.348,2.142c0,0.64,0.155,1.134,0.465,1.483c0.31,0.35,0.756,0.524,1.337,0.524 c0.508,0,0.964-0.178,1.37-0.535s0.721-0.863,0.949-1.52C26.204,18.308,26.317,17.557,26.317,16.712z"/><path fill="#4D4D4D" d="M32.287,22.066c-0.474,0-0.89-0.125-1.249-0.374c-0.359-0.249-0.629-0.588-0.81-1.018h-0.073l-0.513,1.245 h-0.916l2.417-11.396h1.23c-0.249,1.182-0.441,2.086-0.575,2.714c-0.135,0.627-0.319,1.361-0.553,2.201h0.066 c0.454-0.576,0.902-1,1.344-1.271c0.442-0.271,0.897-0.406,1.366-0.406c0.688,0,1.226,0.242,1.611,0.725s0.579,1.147,0.579,1.992 c0,1.021-0.167,1.964-0.501,2.831c-0.335,0.867-0.801,1.543-1.399,2.029S33.039,22.066,32.287,22.066z M33.649,14.779 c-0.469,0-0.946,0.232-1.432,0.696s-0.871,1.047-1.157,1.75c-0.285,0.703-0.428,1.423-0.428,2.161c0,0.537,0.135,0.948,0.407,1.234 c0.271,0.285,0.663,0.428,1.175,0.428c0.483,0,0.934-0.198,1.351-0.593c0.418-0.396,0.753-0.958,1.007-1.688 c0.254-0.729,0.381-1.505,0.381-2.325C34.953,15.333,34.518,14.779,33.649,14.779z"/><path fill="#4D4D4D" d="M40.731,11.212l0.059,0.161c-0.195,0.444-0.466,0.978-0.813,1.601c-0.347,0.622-0.735,1.258-1.165,1.908 h-0.945c0.654-1.455,1.15-2.678,1.487-3.669H40.731z"/><path fill="#4D4D4D" d="M44.884,19.642c0,0.762-0.27,1.356-0.809,1.784c-0.54,0.427-1.3,0.641-2.282,0.641 c-0.825,0-1.57-0.168-2.234-0.505v-1.157c0.342,0.205,0.71,0.364,1.106,0.476s0.762,0.168,1.099,0.168 c0.615,0,1.079-0.122,1.392-0.366s0.469-0.557,0.469-0.938c0-0.278-0.085-0.513-0.256-0.703s-0.54-0.452-1.106-0.784 c-0.635-0.356-1.084-0.706-1.348-1.047s-0.396-0.747-0.396-1.216c0-0.674,0.247-1.217,0.74-1.629s1.143-0.619,1.948-0.619 c0.835,0,1.641,0.181,2.417,0.542l-0.396,1.003l-0.41-0.183c-0.493-0.21-1.03-0.315-1.611-0.315c-0.454,0-0.811,0.106-1.069,0.319 c-0.259,0.212-0.388,0.487-0.388,0.824c0,0.273,0.086,0.508,0.26,0.703c0.173,0.195,0.531,0.447,1.073,0.754 c0.522,0.293,0.897,0.544,1.125,0.754c0.227,0.21,0.396,0.436,0.509,0.677C44.828,19.067,44.884,19.339,44.884,19.642z"/><path fill="#4D4D4D" d="M51.454,21.92l-0.916-8.027h1.23l0.469,4.49c0.117,1.26,0.176,2.144,0.176,2.651h0.044 c0.62-1.343,1.057-2.249,1.311-2.717l2.38-4.424h1.304l-4.329,8.027H51.454z"/><path fill="#4D4D4D" d="M61.43,13.746c0.449,0,0.85,0.121,1.201,0.362c0.352,0.242,0.625,0.59,0.82,1.044h0.081l0.491-1.26h0.93 l-1.707,8.027h-0.974l0.19-1.531h-0.059c-0.874,1.118-1.794,1.677-2.761,1.677c-0.679,0-1.211-0.242-1.597-0.725 s-0.579-1.145-0.579-1.985c0-1.016,0.173-1.958,0.52-2.827s0.825-1.55,1.436-2.043S60.702,13.746,61.43,13.746z M60.038,21.048 c0.474,0,0.945-0.226,1.414-0.677s0.85-1.04,1.143-1.766c0.293-0.725,0.439-1.451,0.439-2.179c0-0.503-0.137-0.903-0.41-1.201 s-0.632-0.447-1.077-0.447c-0.508,0-0.98,0.21-1.417,0.63s-0.78,0.989-1.029,1.707s-0.374,1.475-0.374,2.271 c0,0.557,0.115,0.973,0.344,1.249S59.623,21.048,60.038,21.048z"/><path fill="#4D4D4D" d="M68.527,13.893l-1.099,5.09c-0.088,0.435-0.132,0.774-0.132,1.018c0,0.698,0.359,1.047,1.077,1.047 c0.43,0,0.852-0.146,1.267-0.439s0.781-0.713,1.099-1.26s0.559-1.206,0.725-1.978l0.732-3.479h1.216L71.72,21.92h-1.018 l0.161-1.487h-0.088c-0.479,0.61-0.935,1.035-1.37,1.274s-0.884,0.359-1.348,0.359c-0.625,0-1.116-0.169-1.472-0.509 s-0.535-0.824-0.535-1.454c0-0.303,0.054-0.723,0.161-1.26l1.069-4.951H68.527z"/><path fill="#4D4D4D" d="M75.529,21.92h-1.23l2.432-11.396h1.23L75.529,21.92z"/><path fill="#4D4D4D" d="M80.583,21.063c0.269,0,0.62-0.063,1.055-0.19v0.945c-0.166,0.068-0.371,0.127-0.615,0.176 s-0.439,0.073-0.586,0.073c-0.61,0-1.078-0.146-1.403-0.436c-0.325-0.291-0.487-0.724-0.487-1.3c0-0.322,0.044-0.688,0.132-1.099 l0.93-4.409h-1.26l0.103-0.535l1.355-0.571l0.916-1.67h0.718l-0.403,1.846h2.007l-0.19,0.93h-2l-0.945,4.424 c-0.088,0.425-0.132,0.747-0.132,0.967c0,0.273,0.071,0.483,0.212,0.63S80.329,21.063,80.583,21.063z"/></g><rect width="41.129" height="38.646" x="13.907" y="33.281" fill="#2E58A6"/><rect width="41.129" height="38.646" x="25.221" y="82.724" fill="#2E58A6"/><rect width="41.128" height="38.646" x="87.128" y="43.106" fill="#2E58A6"/><rect width="41.129" height="38.646" x="79.357" y="117.871" fill="#2E58A6"/><rect width="41.129" height="38.646" x="143.454" y="70.734" fill="#2E58A6"/><rect width="10.457" height="9.826" x="89.464" y="95.092" fill="#2E58A6"/><rect width="10.457" height="9.826" x="66.351" y="33.281" fill="#2E58A6"/><rect width="10.457" height="9.826" x="38.278" y="137.193" fill="#2E58A6"/><rect width="10.457" height="9.826" x="132.997" y="126.284" fill="#2E58A6"/><rect width="10.457" height="9.826" x="153.561" y="38.192" fill="#2E58A6"/><g><rect width="101.148" height="36.463" x="292.187" y="45.879" fill="#E88B1B"/><g><path fill="#FFF" d="M322.846,58.332c0,0.645-0.232,1.152-0.696,1.523s-1.109,0.557-1.936,0.557 c-0.762,0-1.436-0.143-2.021-0.43v-1.406c0.482,0.215,0.89,0.366,1.223,0.454s0.639,0.132,0.916,0.132 c0.332,0,0.587-0.063,0.764-0.19s0.266-0.316,0.266-0.566c0-0.14-0.039-0.265-0.117-0.374s-0.193-0.214-0.344-0.315 s-0.46-0.262-0.925-0.483c-0.436-0.205-0.763-0.402-0.981-0.591s-0.392-0.409-0.522-0.659s-0.195-0.543-0.195-0.879 c0-0.631,0.214-1.128,0.642-1.489s1.02-0.542,1.775-0.542c0.371,0,0.725,0.044,1.062,0.132s0.689,0.211,1.057,0.371l-0.488,1.177 c-0.381-0.156-0.696-0.265-0.945-0.327s-0.494-0.093-0.735-0.093c-0.287,0-0.506,0.067-0.659,0.2s-0.229,0.308-0.229,0.522 c0,0.133,0.031,0.25,0.093,0.349s0.16,0.195,0.295,0.288s0.455,0.26,0.959,0.5c0.667,0.319,1.125,0.639,1.372,0.959 S322.846,57.867,322.846,58.332z"/><path fill="#FFF" d="M327.89,60.314l-0.2-0.698h-0.078c-0.16,0.254-0.386,0.45-0.679,0.588s-0.626,0.208-1.001,0.208 c-0.641,0-1.125-0.172-1.45-0.515s-0.488-0.837-0.488-1.482v-3.56h1.489v3.188c0,0.394,0.07,0.689,0.21,0.886 s0.363,0.295,0.669,0.295c0.417,0,0.718-0.139,0.903-0.417s0.278-0.74,0.278-1.384v-2.568h1.489v5.459H327.89z"/><path fill="#FFF" d="M335.482,60.314h-1.489v-3.188c0-0.394-0.066-0.689-0.198-0.886s-0.339-0.295-0.623-0.295 c-0.381,0-0.658,0.14-0.83,0.42s-0.259,0.741-0.259,1.382v2.568h-1.489v-5.459h1.138l0.2,0.698h0.083 c0.146-0.25,0.358-0.447,0.635-0.588s0.594-0.212,0.952-0.212c0.817,0,1.371,0.267,1.66,0.801h0.132 c0.146-0.254,0.362-0.451,0.647-0.591s0.606-0.21,0.964-0.21c0.619,0,1.086,0.159,1.404,0.476s0.476,0.826,0.476,1.526v3.56 h-1.494v-3.188c0-0.394-0.066-0.689-0.198-0.886s-0.339-0.295-0.623-0.295c-0.365,0-0.637,0.13-0.818,0.391 s-0.271,0.674-0.271,1.24V60.314z"/><path fill="#FFF" d="M345.302,60.314h-1.489v-3.188c0-0.394-0.066-0.689-0.198-0.886s-0.339-0.295-0.623-0.295 c-0.381,0-0.658,0.14-0.83,0.42s-0.259,0.741-0.259,1.382v2.568h-1.489v-5.459h1.138l0.2,0.698h0.083 c0.146-0.25,0.358-0.447,0.635-0.588s0.594-0.212,0.952-0.212c0.817,0,1.371,0.267,1.66,0.801h0.132 c0.146-0.254,0.362-0.451,0.647-0.591s0.606-0.21,0.964-0.21c0.619,0,1.086,0.159,1.404,0.476s0.476,0.826,0.476,1.526v3.56 h-1.494v-3.188c0-0.394-0.066-0.689-0.198-0.886s-0.339-0.295-0.623-0.295c-0.365,0-0.637,0.13-0.818,0.391 s-0.271,0.674-0.271,1.24V60.314z"/><path fill="#FFF" d="M353.7,60.314l-0.288-0.742h-0.039c-0.25,0.316-0.509,0.535-0.774,0.657s-0.611,0.183-1.038,0.183 c-0.524,0-0.937-0.15-1.238-0.449s-0.452-0.726-0.452-1.279c0-0.58,0.203-1.007,0.608-1.282s1.017-0.427,1.833-0.457l0.947-0.029 v-0.239c0-0.553-0.283-0.83-0.85-0.83c-0.436,0-0.949,0.132-1.538,0.396l-0.493-1.006c0.628-0.329,1.325-0.493,2.09-0.493 c0.732,0,1.294,0.16,1.685,0.479s0.586,0.804,0.586,1.455v3.638H353.7z M353.261,57.785l-0.576,0.02 c-0.433,0.013-0.755,0.091-0.967,0.234S351.4,58.4,351.4,58.693c0,0.42,0.241,0.63,0.723,0.63c0.345,0,0.621-0.099,0.828-0.298 s0.31-0.462,0.31-0.791V57.785z"/><path fill="#FFF" d="M359.32,54.753c0.202,0,0.37,0.015,0.503,0.044l-0.112,1.396c-0.121-0.033-0.267-0.049-0.439-0.049 c-0.475,0-0.846,0.122-1.111,0.366s-0.398,0.586-0.398,1.025v2.778h-1.489v-5.459h1.128l0.22,0.918h0.073 c0.169-0.306,0.398-0.553,0.686-0.74S358.982,54.753,359.32,54.753z"/><path fill="#FFF" d="M360.033,54.855h1.631l1.03,3.071c0.088,0.267,0.148,0.583,0.181,0.947h0.029 c0.036-0.335,0.106-0.651,0.21-0.947l1.011-3.071h1.597l-2.31,6.157c-0.211,0.57-0.514,0.996-0.906,1.279 s-0.851,0.425-1.375,0.425c-0.257,0-0.509-0.028-0.757-0.083v-1.182c0.179,0.042,0.375,0.063,0.586,0.063 c0.264,0,0.494-0.081,0.691-0.242s0.351-0.404,0.461-0.73l0.088-0.269L360.033,54.855z"/><path fill="#FFF" d="M306.62,72.412c-0.641,0-1.144-0.233-1.509-0.698h-0.078c0.052,0.456,0.078,0.719,0.078,0.791v2.212 h-1.489v-7.861h1.211l0.21,0.708h0.068c0.348-0.541,0.864-0.811,1.548-0.811c0.645,0,1.149,0.249,1.514,0.747 s0.547,1.19,0.547,2.075c0,0.583-0.085,1.089-0.256,1.519s-0.414,0.757-0.73,0.981S307.046,72.412,306.62,72.412z M306.181,67.944 c-0.368,0-0.636,0.113-0.806,0.339s-0.257,0.6-0.264,1.121v0.161c0,0.586,0.087,1.006,0.261,1.26s0.45,0.381,0.828,0.381 c0.667,0,1.001-0.55,1.001-1.65c0-0.537-0.082-0.94-0.247-1.208S306.532,67.944,306.181,67.944z"/><path fill="#FFF" d="M314.989,72.314H313.5v-3.188c0-0.788-0.293-1.182-0.879-1.182c-0.417,0-0.718,0.142-0.903,0.425 s-0.278,0.742-0.278,1.377v2.568h-1.489v-7.598h1.489v1.548c0,0.121-0.011,0.404-0.034,0.85l-0.034,0.439h0.078 c0.332-0.534,0.859-0.801,1.582-0.801c0.641,0,1.128,0.172,1.46,0.518s0.498,0.84,0.498,1.484V72.314z"/><path fill="#FFF" d="M321.483,69.575c0,0.889-0.234,1.583-0.703,2.085s-1.122,0.752-1.958,0.752 c-0.524,0-0.986-0.115-1.387-0.344s-0.708-0.559-0.923-0.989s-0.322-0.931-0.322-1.504c0-0.892,0.233-1.585,0.698-2.08 s1.12-0.742,1.963-0.742c0.524,0,0.986,0.114,1.387,0.342s0.708,0.555,0.923,0.981S321.483,69.002,321.483,69.575z M317.709,69.575c0,0.541,0.089,0.949,0.266,1.226s0.466,0.415,0.867,0.415c0.397,0,0.683-0.138,0.857-0.413 s0.261-0.685,0.261-1.228c0-0.541-0.088-0.946-0.264-1.216s-0.464-0.405-0.864-0.405c-0.397,0-0.684,0.134-0.859,0.403 S317.709,69.032,317.709,69.575z"/><path fill="#FFF" d="M325.014,71.226c0.26,0,0.573-0.057,0.938-0.171v1.108c-0.371,0.166-0.827,0.249-1.367,0.249 c-0.596,0-1.029-0.15-1.301-0.452s-0.408-0.753-0.408-1.355v-2.632h-0.713v-0.63l0.82-0.498l0.43-1.152h0.952v1.162h1.528v1.118 h-1.528v2.632c0,0.211,0.06,0.368,0.178,0.469S324.818,71.226,325.014,71.226z"/><path fill="#FFF" d="M332.016,69.575c0,0.889-0.234,1.583-0.703,2.085s-1.122,0.752-1.958,0.752 c-0.524,0-0.986-0.115-1.387-0.344s-0.708-0.559-0.923-0.989s-0.322-0.931-0.322-1.504c0-0.892,0.233-1.585,0.698-2.08 s1.12-0.742,1.963-0.742c0.524,0,0.986,0.114,1.387,0.342s0.708,0.555,0.923,0.981S332.016,69.002,332.016,69.575z M328.241,69.575c0,0.541,0.089,0.949,0.266,1.226s0.466,0.415,0.867,0.415c0.397,0,0.683-0.138,0.857-0.413 s0.261-0.685,0.261-1.228c0-0.541-0.088-0.946-0.264-1.216s-0.464-0.405-0.864-0.405c-0.397,0-0.684,0.134-0.859,0.403 S328.241,69.032,328.241,69.575z"/><path fill="#FFF" d="M337.333,72.314h-1.489v-7.598h1.489V72.314z"/><path fill="#FFF" d="M343.856,69.575c0,0.889-0.234,1.583-0.703,2.085s-1.122,0.752-1.958,0.752 c-0.524,0-0.986-0.115-1.387-0.344s-0.708-0.559-0.923-0.989s-0.322-0.931-0.322-1.504c0-0.892,0.233-1.585,0.698-2.08 s1.12-0.742,1.963-0.742c0.524,0,0.986,0.114,1.387,0.342s0.708,0.555,0.923,0.981S343.856,69.002,343.856,69.575z M340.082,69.575c0,0.541,0.089,0.949,0.266,1.226s0.466,0.415,0.867,0.415c0.397,0,0.683-0.138,0.857-0.413 s0.261-0.685,0.261-1.228c0-0.541-0.088-0.946-0.264-1.216s-0.464-0.405-0.864-0.405c-0.397,0-0.684,0.134-0.859,0.403 S340.082,69.032,340.082,69.575z"/><path fill="#FFF" d="M347.304,72.412c-1.699,0-2.549-0.933-2.549-2.798c0-0.928,0.231-1.637,0.693-2.126 s1.125-0.735,1.987-0.735c0.631,0,1.198,0.124,1.699,0.371l-0.439,1.152c-0.234-0.094-0.453-0.172-0.654-0.232 s-0.404-0.09-0.605-0.09c-0.775,0-1.162,0.55-1.162,1.65c0,1.068,0.387,1.602,1.162,1.602c0.287,0,0.552-0.038,0.796-0.115 s0.488-0.196,0.732-0.359v1.274c-0.241,0.153-0.484,0.259-0.73,0.317S347.678,72.412,347.304,72.412z"/><path fill="#FFF" d="M353.695,72.314l-0.288-0.742h-0.039c-0.25,0.316-0.509,0.535-0.774,0.657s-0.611,0.183-1.038,0.183 c-0.524,0-0.937-0.15-1.238-0.449s-0.452-0.726-0.452-1.279c0-0.58,0.203-1.007,0.608-1.282s1.017-0.427,1.833-0.457l0.947-0.029 v-0.239c0-0.553-0.283-0.83-0.85-0.83c-0.436,0-0.949,0.132-1.538,0.396l-0.493-1.006c0.628-0.329,1.325-0.493,2.09-0.493 c0.732,0,1.294,0.16,1.685,0.479s0.586,0.804,0.586,1.455v3.638H353.695z M353.256,69.785l-0.576,0.02 c-0.433,0.013-0.755,0.091-0.967,0.234s-0.317,0.361-0.317,0.654c0,0.42,0.241,0.63,0.723,0.63c0.345,0,0.621-0.099,0.828-0.298 s0.31-0.462,0.31-0.791V69.785z"/><path fill="#FFF" d="M358.568,71.226c0.26,0,0.573-0.057,0.938-0.171v1.108c-0.371,0.166-0.827,0.249-1.367,0.249 c-0.596,0-1.029-0.15-1.301-0.452s-0.408-0.753-0.408-1.355v-2.632h-0.713v-0.63l0.82-0.498l0.43-1.152h0.952v1.162h1.528v1.118 h-1.528v2.632c0,0.211,0.06,0.368,0.178,0.469S358.373,71.226,358.568,71.226z"/><path fill="#FFF" d="M360.546,65.444c0-0.485,0.27-0.728,0.811-0.728s0.811,0.243,0.811,0.728c0,0.231-0.067,0.411-0.203,0.54 s-0.338,0.193-0.608,0.193C360.816,66.177,360.546,65.933,360.546,65.444z M362.099,72.314h-1.489v-5.459h1.489V72.314z"/><path fill="#FFF" d="M368.622,69.575c0,0.889-0.234,1.583-0.703,2.085s-1.122,0.752-1.958,0.752 c-0.524,0-0.986-0.115-1.387-0.344s-0.708-0.559-0.923-0.989s-0.322-0.931-0.322-1.504c0-0.892,0.233-1.585,0.698-2.08 s1.12-0.742,1.963-0.742c0.524,0,0.986,0.114,1.387,0.342s0.708,0.555,0.923,0.981S368.622,69.002,368.622,69.575z M364.848,69.575c0,0.541,0.089,0.949,0.266,1.226s0.466,0.415,0.867,0.415c0.397,0,0.683-0.138,0.857-0.413 s0.261-0.685,0.261-1.228c0-0.541-0.088-0.946-0.264-1.216s-0.464-0.405-0.864-0.405c-0.397,0-0.684,0.134-0.859,0.403 S364.848,69.032,364.848,69.575z"/><path fill="#FFF" d="M374.892,72.314h-1.489v-3.188c0-0.394-0.07-0.689-0.21-0.886s-0.363-0.295-0.669-0.295 c-0.417,0-0.718,0.139-0.903,0.417s-0.278,0.74-0.278,1.384v2.568h-1.489v-5.459h1.138l0.2,0.698h0.083 c0.166-0.264,0.395-0.463,0.686-0.598s0.623-0.203,0.994-0.203c0.635,0,1.117,0.172,1.445,0.515s0.493,0.839,0.493,1.487V72.314z"/><path fill="#FFF" d="M380.233,70.693c0,0.56-0.194,0.986-0.583,1.279s-0.971,0.439-1.746,0.439 c-0.397,0-0.736-0.027-1.016-0.081s-0.542-0.133-0.786-0.237v-1.23c0.277,0.13,0.588,0.239,0.935,0.327s0.652,0.132,0.916,0.132 c0.541,0,0.811-0.156,0.811-0.469c0-0.117-0.036-0.212-0.107-0.286s-0.195-0.156-0.371-0.249s-0.41-0.201-0.703-0.325 c-0.42-0.176-0.729-0.338-0.925-0.488s-0.34-0.321-0.43-0.515s-0.134-0.432-0.134-0.715c0-0.485,0.188-0.86,0.564-1.125 s0.909-0.398,1.599-0.398c0.658,0,1.297,0.143,1.919,0.43l-0.449,1.074c-0.273-0.117-0.529-0.213-0.767-0.288 s-0.48-0.112-0.728-0.112c-0.439,0-0.659,0.119-0.659,0.356c0,0.133,0.071,0.249,0.212,0.347s0.452,0.243,0.93,0.435 c0.426,0.172,0.739,0.333,0.938,0.483s0.345,0.322,0.439,0.518S380.233,70.423,380.233,70.693z"/></g></g><rect width="41.129" height="38.646" x="190.454" y="25.734" fill="#2E58A6"/><rect width="41.129" height="38.647" x="45.786" y="163.537" fill="#2E58A6"/><rect width="10.457" height="9.826" x="121.031" y="174.859" fill="#2E58A6"/><rect width="41.128" height="38.646" x="161.563" y="126.285" fill="#2E58A6"/><rect width="10.457" height="9.826" x="211.018" y="95.093" fill="#2E58A6"/><rect width="10.457" height="9.826" x="199.228" y="179.772" fill="#2E58A6"/><g><path fill="#4D4D4D" d="M304.862,31.318h-3.633l-1.794,3.406h-1.384l5.852-10.708h1.274l1.348,10.708h-1.245L304.862,31.318z M304.73,30.176l-0.256-2.19c-0.117-0.874-0.188-1.729-0.212-2.563c-0.181,0.43-0.377,0.857-0.589,1.282 c-0.213,0.425-0.822,1.582-1.828,3.472H304.73z"/><path fill="#4D4D4D" d="M315.292,26.697l-0.183,0.784l-1.545,0.176c0.2,0.303,0.3,0.688,0.3,1.157c0,0.933-0.285,1.676-0.853,2.23 c-0.569,0.555-1.33,0.832-2.282,0.832c-0.269,0-0.474-0.02-0.615-0.059c-0.679,0.259-1.018,0.579-1.018,0.959 c0,0.2,0.081,0.333,0.242,0.399c0.161,0.065,0.396,0.118,0.703,0.157l0.857,0.103c0.884,0.107,1.524,0.322,1.923,0.645 c0.397,0.322,0.597,0.796,0.597,1.421c0,0.898-0.356,1.594-1.069,2.087s-1.716,0.74-3.01,0.74c-0.947,0-1.689-0.18-2.227-0.538 c-0.537-0.359-0.806-0.866-0.806-1.52c0-0.513,0.176-0.957,0.527-1.333s0.92-0.696,1.707-0.959c-0.381-0.2-0.571-0.496-0.571-0.886 c0-0.337,0.125-0.626,0.374-0.868c0.249-0.242,0.596-0.468,1.04-0.678c-0.308-0.156-0.559-0.387-0.754-0.692 c-0.195-0.305-0.293-0.66-0.293-1.065c0-0.947,0.292-1.724,0.875-2.329s1.33-0.908,2.238-0.908c0.381,0,0.757,0.049,1.128,0.146 H315.292z M307.491,36.152c0,0.376,0.159,0.674,0.476,0.894s0.789,0.33,1.414,0.33c0.889,0,1.583-0.155,2.083-0.465 c0.5-0.311,0.751-0.749,0.751-1.315c0-0.303-0.132-0.542-0.396-0.718s-0.713-0.298-1.348-0.366l-1.165-0.117 c-0.586,0.122-1.035,0.337-1.348,0.645S307.491,35.718,307.491,36.152z M309.527,29.744c0,0.415,0.11,0.731,0.33,0.948 c0.22,0.218,0.525,0.326,0.916,0.326c0.386,0,0.723-0.103,1.011-0.308s0.509-0.487,0.663-0.846 c0.154-0.359,0.231-0.749,0.231-1.168c0-0.4-0.107-0.706-0.322-0.916s-0.522-0.315-0.923-0.315c-0.381,0-0.714,0.099-1,0.296 c-0.286,0.198-0.508,0.474-0.667,0.828S309.527,29.329,309.527,29.744z"/><path fill="#4D4D4D" d="M322.806,26.697l-0.183,0.784l-1.545,0.176c0.2,0.303,0.3,0.688,0.3,1.157c0,0.933-0.285,1.676-0.853,2.23 c-0.569,0.555-1.33,0.832-2.282,0.832c-0.269,0-0.474-0.02-0.615-0.059c-0.679,0.259-1.018,0.579-1.018,0.959 c0,0.2,0.081,0.333,0.242,0.399c0.161,0.065,0.396,0.118,0.703,0.157l0.857,0.103c0.884,0.107,1.524,0.322,1.923,0.645 c0.397,0.322,0.597,0.796,0.597,1.421c0,0.898-0.356,1.594-1.069,2.087s-1.716,0.74-3.01,0.74c-0.947,0-1.689-0.18-2.227-0.538 c-0.537-0.359-0.806-0.866-0.806-1.52c0-0.513,0.176-0.957,0.527-1.333s0.92-0.696,1.707-0.959c-0.381-0.2-0.571-0.496-0.571-0.886 c0-0.337,0.125-0.626,0.374-0.868c0.249-0.242,0.596-0.468,1.04-0.678c-0.308-0.156-0.559-0.387-0.754-0.692 c-0.195-0.305-0.293-0.66-0.293-1.065c0-0.947,0.292-1.724,0.875-2.329s1.33-0.908,2.238-0.908c0.381,0,0.757,0.049,1.128,0.146 H322.806z M315.006,36.152c0,0.376,0.159,0.674,0.476,0.894s0.789,0.33,1.414,0.33c0.889,0,1.583-0.155,2.083-0.465 c0.5-0.311,0.751-0.749,0.751-1.315c0-0.303-0.132-0.542-0.396-0.718s-0.713-0.298-1.348-0.366l-1.165-0.117 c-0.586,0.122-1.035,0.337-1.348,0.645S315.006,35.718,315.006,36.152z M317.042,29.744c0,0.415,0.11,0.731,0.33,0.948 c0.22,0.218,0.525,0.326,0.916,0.326c0.386,0,0.723-0.103,1.011-0.308s0.509-0.487,0.663-0.846 c0.154-0.359,0.231-0.749,0.231-1.168c0-0.4-0.107-0.706-0.322-0.916s-0.522-0.315-0.923-0.315c-0.381,0-0.714,0.099-1,0.296 c-0.286,0.198-0.508,0.474-0.667,0.828S317.042,29.329,317.042,29.744z"/><path fill="#4D4D4D" d="M327.772,26.55c0.337,0,0.63,0.034,0.879,0.103l-0.264,1.099c-0.259-0.063-0.515-0.095-0.769-0.095 c-0.444,0-0.861,0.146-1.249,0.439c-0.389,0.293-0.728,0.7-1.019,1.219c-0.291,0.521-0.504,1.098-0.641,1.732l-0.784,3.677h-1.23 l1.714-8.027h1.018l-0.161,1.487h0.073c0.352-0.464,0.642-0.797,0.872-1s0.47-0.359,0.721-0.469 C327.185,26.605,327.464,26.55,327.772,26.55z"/><path fill="#4D4D4D" d="M331.808,34.871c-0.898,0-1.604-0.266-2.117-0.798s-0.769-1.27-0.769-2.212c0-0.918,0.182-1.798,0.546-2.64 c0.363-0.843,0.846-1.498,1.446-1.967s1.262-0.703,1.985-0.703c0.747,0,1.309,0.163,1.685,0.487s0.564,0.777,0.564,1.358 c0,0.879-0.405,1.569-1.216,2.069s-1.97,0.75-3.479,0.75h-0.242l-0.029,0.586c0,0.64,0.15,1.139,0.45,1.498 c0.301,0.359,0.766,0.539,1.396,0.539c0.308,0,0.624-0.044,0.948-0.132s0.729-0.249,1.212-0.483v1.069 c-0.459,0.215-0.864,0.365-1.216,0.451C332.621,34.828,332.232,34.871,331.808,34.871z M332.826,27.598 c-0.503,0-0.976,0.229-1.417,0.688s-0.78,1.096-1.014,1.912h0.088c1.113,0,1.966-0.145,2.56-0.436 c0.593-0.291,0.89-0.712,0.89-1.264c0-0.259-0.089-0.474-0.268-0.645S333.207,27.598,332.826,27.598z"/><path fill="#4D4D4D" d="M343.658,26.697l-0.183,0.784l-1.545,0.176c0.2,0.303,0.3,0.688,0.3,1.157c0,0.933-0.285,1.676-0.853,2.23 c-0.569,0.555-1.33,0.832-2.282,0.832c-0.269,0-0.474-0.02-0.615-0.059c-0.679,0.259-1.018,0.579-1.018,0.959 c0,0.2,0.081,0.333,0.242,0.399c0.161,0.065,0.396,0.118,0.703,0.157l0.857,0.103c0.884,0.107,1.524,0.322,1.923,0.645 c0.397,0.322,0.597,0.796,0.597,1.421c0,0.898-0.356,1.594-1.069,2.087s-1.716,0.74-3.01,0.74c-0.947,0-1.689-0.18-2.227-0.538 c-0.537-0.359-0.806-0.866-0.806-1.52c0-0.513,0.176-0.957,0.527-1.333s0.92-0.696,1.707-0.959c-0.381-0.2-0.571-0.496-0.571-0.886 c0-0.337,0.125-0.626,0.374-0.868c0.249-0.242,0.596-0.468,1.04-0.678c-0.308-0.156-0.559-0.387-0.754-0.692 c-0.195-0.305-0.293-0.66-0.293-1.065c0-0.947,0.292-1.724,0.875-2.329s1.33-0.908,2.238-0.908c0.381,0,0.757,0.049,1.128,0.146 H343.658z M335.858,36.152c0,0.376,0.159,0.674,0.476,0.894s0.789,0.33,1.414,0.33c0.889,0,1.583-0.155,2.083-0.465 c0.5-0.311,0.751-0.749,0.751-1.315c0-0.303-0.132-0.542-0.396-0.718s-0.713-0.298-1.348-0.366l-1.165-0.117 c-0.586,0.122-1.035,0.337-1.348,0.645S335.858,35.718,335.858,36.152z M337.894,29.744c0,0.415,0.11,0.731,0.33,0.948 c0.22,0.218,0.525,0.326,0.916,0.326c0.386,0,0.723-0.103,1.011-0.308s0.509-0.487,0.663-0.846 c0.154-0.359,0.231-0.749,0.231-1.168c0-0.4-0.107-0.706-0.322-0.916s-0.522-0.315-0.923-0.315c-0.381,0-0.714,0.099-1,0.296 c-0.286,0.198-0.508,0.474-0.667,0.828S337.894,29.329,337.894,29.744z"/><path fill="#4D4D4D" d="M347.796,26.55c0.449,0,0.85,0.121,1.201,0.362c0.352,0.242,0.625,0.59,0.82,1.044h0.081l0.491-1.26h0.93 l-1.707,8.027h-0.974l0.19-1.531h-0.059c-0.874,1.118-1.794,1.677-2.761,1.677c-0.679,0-1.211-0.242-1.597-0.725 s-0.579-1.145-0.579-1.985c0-1.016,0.173-1.958,0.52-2.827s0.825-1.55,1.436-2.043S347.069,26.55,347.796,26.55z M346.405,33.853 c0.474,0,0.945-0.226,1.414-0.677s0.85-1.04,1.143-1.766c0.293-0.725,0.439-1.451,0.439-2.179c0-0.503-0.137-0.903-0.41-1.201 s-0.632-0.447-1.077-0.447c-0.508,0-0.98,0.21-1.417,0.63s-0.78,0.989-1.029,1.707s-0.374,1.475-0.374,2.271 c0,0.557,0.115,0.973,0.344,1.249S345.99,33.853,346.405,33.853z"/><path fill="#4D4D4D" d="M354.483,33.867c0.269,0,0.62-0.063,1.055-0.19v0.945c-0.166,0.068-0.371,0.127-0.615,0.176 s-0.439,0.073-0.586,0.073c-0.61,0-1.078-0.146-1.403-0.436c-0.325-0.291-0.487-0.724-0.487-1.3c0-0.322,0.044-0.688,0.132-1.099 l0.93-4.409h-1.26l0.103-0.535l1.355-0.571l0.916-1.67h0.718l-0.403,1.846h2.007l-0.19,0.93h-2l-0.945,4.424 c-0.088,0.425-0.132,0.747-0.132,0.967c0,0.273,0.071,0.483,0.212,0.63S354.229,33.867,354.483,33.867z"/><path fill="#4D4D4D" d="M361.163,26.594c0.928,0,1.66,0.274,2.197,0.824c0.537,0.549,0.806,1.305,0.806,2.267 c0,0.918-0.176,1.785-0.527,2.6s-0.828,1.445-1.428,1.89s-1.279,0.667-2.036,0.667c-0.938,0-1.672-0.276-2.205-0.828 s-0.798-1.306-0.798-2.263c0-0.928,0.178-1.8,0.535-2.618s0.837-1.445,1.443-1.883C359.754,26.813,360.426,26.594,361.163,26.594z M362.892,29.517c0-0.562-0.153-1.017-0.458-1.366c-0.306-0.349-0.719-0.524-1.242-0.524c-0.532,0-1.01,0.181-1.432,0.542 s-0.75,0.863-0.981,1.505s-0.348,1.356-0.348,2.142c0,0.64,0.155,1.134,0.465,1.483c0.31,0.35,0.756,0.524,1.337,0.524 c0.508,0,0.964-0.178,1.37-0.535s0.721-0.863,0.949-1.52C362.778,31.112,362.892,30.361,362.892,29.517z"/><path fill="#4D4D4D" d="M370.377,26.55c0.337,0,0.63,0.034,0.879,0.103l-0.264,1.099c-0.259-0.063-0.515-0.095-0.769-0.095 c-0.444,0-0.861,0.146-1.249,0.439c-0.389,0.293-0.728,0.7-1.019,1.219c-0.291,0.521-0.504,1.098-0.641,1.732l-0.784,3.677h-1.23 l1.714-8.027h1.018l-0.161,1.487h0.073c0.352-0.464,0.642-0.797,0.872-1s0.47-0.359,0.721-0.469 C369.79,26.605,370.069,26.55,370.377,26.55z"/></g><line x1="235.971" x2="292.187" y1="64.11" y2="64.11" fill="none" stroke="#4D4D4D" stroke-miterlimit="10"/><rect width="106.26" height="72.813" x="289.63" y="116.55" fill="#C7D468" stroke="#4D4D4D" stroke-miterlimit="10"/><g><rect width="101.148" height="36.463" x="292.187" y="146.049" fill="#E88B1B"/><g><path fill="#FFF" d="M322.846,158.502c0,0.645-0.232,1.152-0.696,1.523s-1.109,0.557-1.936,0.557 c-0.762,0-1.436-0.143-2.021-0.43v-1.406c0.482,0.215,0.89,0.366,1.223,0.454s0.639,0.132,0.916,0.132 c0.332,0,0.587-0.063,0.764-0.19s0.266-0.316,0.266-0.566c0-0.14-0.039-0.265-0.117-0.374s-0.193-0.214-0.344-0.315 s-0.46-0.262-0.925-0.483c-0.436-0.205-0.763-0.402-0.981-0.591s-0.392-0.409-0.522-0.659s-0.195-0.543-0.195-0.879 c0-0.631,0.214-1.128,0.642-1.489s1.02-0.542,1.775-0.542c0.371,0,0.725,0.044,1.062,0.132s0.689,0.211,1.057,0.371l-0.488,1.177 c-0.381-0.156-0.696-0.265-0.945-0.327s-0.494-0.093-0.735-0.093c-0.287,0-0.506,0.067-0.659,0.2s-0.229,0.308-0.229,0.522 c0,0.133,0.031,0.25,0.093,0.349s0.16,0.195,0.295,0.288s0.455,0.26,0.959,0.5c0.667,0.319,1.125,0.639,1.372,0.959 S322.846,158.037,322.846,158.502z"/><path fill="#FFF" d="M327.89,160.484l-0.2-0.698h-0.078c-0.16,0.254-0.386,0.45-0.679,0.588s-0.626,0.208-1.001,0.208 c-0.641,0-1.125-0.172-1.45-0.515s-0.488-0.837-0.488-1.482v-3.56h1.489v3.188c0,0.394,0.07,0.689,0.21,0.886 s0.363,0.295,0.669,0.295c0.417,0,0.718-0.139,0.903-0.417s0.278-0.74,0.278-1.384v-2.568h1.489v5.459H327.89z"/><path fill="#FFF" d="M335.482,160.484h-1.489v-3.188c0-0.394-0.066-0.689-0.198-0.886s-0.339-0.295-0.623-0.295 c-0.381,0-0.658,0.14-0.83,0.42s-0.259,0.741-0.259,1.382v2.568h-1.489v-5.459h1.138l0.2,0.698h0.083 c0.146-0.25,0.358-0.447,0.635-0.588s0.594-0.212,0.952-0.212c0.817,0,1.371,0.267,1.66,0.801h0.132 c0.146-0.254,0.362-0.451,0.647-0.591s0.606-0.21,0.964-0.21c0.619,0,1.086,0.159,1.404,0.476s0.476,0.826,0.476,1.526v3.56 h-1.494v-3.188c0-0.394-0.066-0.689-0.198-0.886s-0.339-0.295-0.623-0.295c-0.365,0-0.637,0.13-0.818,0.391 s-0.271,0.674-0.271,1.24V160.484z"/><path fill="#FFF" d="M345.302,160.484h-1.489v-3.188c0-0.394-0.066-0.689-0.198-0.886s-0.339-0.295-0.623-0.295 c-0.381,0-0.658,0.14-0.83,0.42s-0.259,0.741-0.259,1.382v2.568h-1.489v-5.459h1.138l0.2,0.698h0.083 c0.146-0.25,0.358-0.447,0.635-0.588s0.594-0.212,0.952-0.212c0.817,0,1.371,0.267,1.66,0.801h0.132 c0.146-0.254,0.362-0.451,0.647-0.591s0.606-0.21,0.964-0.21c0.619,0,1.086,0.159,1.404,0.476s0.476,0.826,0.476,1.526v3.56 h-1.494v-3.188c0-0.394-0.066-0.689-0.198-0.886s-0.339-0.295-0.623-0.295c-0.365,0-0.637,0.13-0.818,0.391 s-0.271,0.674-0.271,1.24V160.484z"/><path fill="#FFF" d="M353.7,160.484l-0.288-0.742h-0.039c-0.25,0.316-0.509,0.535-0.774,0.657s-0.611,0.183-1.038,0.183 c-0.524,0-0.937-0.15-1.238-0.449s-0.452-0.726-0.452-1.279c0-0.58,0.203-1.007,0.608-1.282s1.017-0.427,1.833-0.457l0.947-0.029 v-0.239c0-0.553-0.283-0.83-0.85-0.83c-0.436,0-0.949,0.132-1.538,0.396l-0.493-1.006c0.628-0.329,1.325-0.493,2.09-0.493 c0.732,0,1.294,0.16,1.685,0.479s0.586,0.804,0.586,1.455v3.638H353.7z M353.261,157.955l-0.576,0.02 c-0.433,0.013-0.755,0.091-0.967,0.234s-0.317,0.361-0.317,0.654c0,0.42,0.241,0.63,0.723,0.63c0.345,0,0.621-0.099,0.828-0.298 s0.31-0.462,0.31-0.791V157.955z"/><path fill="#FFF" d="M359.32,154.923c0.202,0,0.37,0.015,0.503,0.044l-0.112,1.396c-0.121-0.033-0.267-0.049-0.439-0.049 c-0.475,0-0.846,0.122-1.111,0.366s-0.398,0.586-0.398,1.025v2.778h-1.489v-5.459h1.128l0.22,0.918h0.073 c0.169-0.306,0.398-0.553,0.686-0.74S358.982,154.923,359.32,154.923z"/><path fill="#FFF" d="M360.033,155.025h1.631l1.03,3.071c0.088,0.267,0.148,0.583,0.181,0.947h0.029 c0.036-0.335,0.106-0.651,0.21-0.947l1.011-3.071h1.597l-2.31,6.157c-0.211,0.57-0.514,0.996-0.906,1.279 s-0.851,0.425-1.375,0.425c-0.257,0-0.509-0.028-0.757-0.083v-1.182c0.179,0.042,0.375,0.063,0.586,0.063 c0.264,0,0.494-0.081,0.691-0.242s0.351-0.404,0.461-0.73l0.088-0.269L360.033,155.025z"/><path fill="#FFF" d="M317.897,166.923c0.645,0,1.149,0.251,1.514,0.754s0.547,1.192,0.547,2.068c0,0.902-0.188,1.6-0.564,2.095 s-0.888,0.742-1.536,0.742c-0.641,0-1.144-0.233-1.509-0.698h-0.103l-0.249,0.601h-1.138v-7.598h1.489v1.768 c0,0.225-0.02,0.584-0.059,1.079h0.059C316.697,167.193,317.213,166.923,317.897,166.923z M317.418,168.114 c-0.368,0-0.636,0.113-0.806,0.339s-0.257,0.6-0.264,1.121v0.161c0,0.586,0.087,1.006,0.261,1.26s0.45,0.381,0.828,0.381 c0.306,0,0.549-0.141,0.73-0.422s0.271-0.691,0.271-1.228s-0.091-0.94-0.273-1.208S317.734,168.114,317.418,168.114z"/><path fill="#FFF" d="M326.149,169.745c0,0.889-0.234,1.583-0.703,2.085s-1.122,0.752-1.958,0.752 c-0.524,0-0.986-0.115-1.387-0.344s-0.708-0.559-0.923-0.989s-0.322-0.931-0.322-1.504c0-0.892,0.233-1.585,0.698-2.08 s1.12-0.742,1.963-0.742c0.524,0,0.986,0.114,1.387,0.342s0.708,0.555,0.923,0.981S326.149,169.172,326.149,169.745z M322.375,169.745c0,0.541,0.089,0.949,0.266,1.226s0.466,0.415,0.867,0.415c0.397,0,0.683-0.138,0.857-0.413 s0.261-0.685,0.261-1.228c0-0.541-0.088-0.946-0.264-1.216s-0.464-0.405-0.864-0.405c-0.397,0-0.684,0.134-0.859,0.403 S322.375,169.202,322.375,169.745z"/><path fill="#FFF" d="M332.34,169.745c0,0.889-0.234,1.583-0.703,2.085s-1.122,0.752-1.958,0.752 c-0.524,0-0.986-0.115-1.387-0.344s-0.708-0.559-0.923-0.989s-0.322-0.931-0.322-1.504c0-0.892,0.233-1.585,0.698-2.08 s1.12-0.742,1.963-0.742c0.524,0,0.986,0.114,1.387,0.342s0.708,0.555,0.923,0.981S332.34,169.172,332.34,169.745z M328.566,169.745c0,0.541,0.089,0.949,0.266,1.226s0.466,0.415,0.867,0.415c0.397,0,0.683-0.138,0.857-0.413 s0.261-0.685,0.261-1.228c0-0.541-0.088-0.946-0.264-1.216s-0.464-0.405-0.864-0.405c-0.397,0-0.684,0.134-0.859,0.403 S328.566,169.202,328.566,169.745z"/><path fill="#FFF" d="M335.001,169.516l0.649-0.83l1.528-1.66h1.68l-2.168,2.368l2.3,3.091h-1.719l-1.572-2.212l-0.64,0.513 v1.699h-1.489v-7.598h1.489v3.389l-0.078,1.24H335.001z"/><path fill="#FFF" d="M343.581,170.863c0,0.56-0.194,0.986-0.583,1.279s-0.971,0.439-1.746,0.439 c-0.397,0-0.736-0.027-1.016-0.081s-0.542-0.133-0.786-0.237v-1.23c0.277,0.13,0.588,0.239,0.935,0.327s0.652,0.132,0.916,0.132 c0.541,0,0.811-0.156,0.811-0.469c0-0.117-0.036-0.212-0.107-0.286s-0.195-0.156-0.371-0.249s-0.41-0.201-0.703-0.325 c-0.42-0.176-0.729-0.338-0.925-0.488s-0.34-0.321-0.43-0.515s-0.134-0.432-0.134-0.715c0-0.485,0.188-0.86,0.564-1.125 s0.909-0.398,1.599-0.398c0.658,0,1.297,0.143,1.919,0.43l-0.449,1.074c-0.273-0.117-0.529-0.213-0.767-0.288 s-0.48-0.112-0.728-0.112c-0.439,0-0.659,0.119-0.659,0.356c0,0.133,0.071,0.249,0.212,0.347s0.452,0.243,0.93,0.435 c0.426,0.172,0.739,0.333,0.938,0.483s0.345,0.322,0.439,0.518S343.581,170.593,343.581,170.863z"/><path fill="#FFF" d="M350.387,166.923c0.202,0,0.37,0.015,0.503,0.044l-0.112,1.396c-0.121-0.033-0.267-0.049-0.439-0.049 c-0.475,0-0.846,0.122-1.111,0.366s-0.398,0.586-0.398,1.025v2.778h-1.489v-5.459h1.128l0.22,0.918h0.073 c0.169-0.306,0.398-0.553,0.686-0.74S350.049,166.923,350.387,166.923z"/><path fill="#FFF" d="M354.352,172.582c-0.879,0-1.566-0.243-2.061-0.728s-0.742-1.172-0.742-2.061 c0-0.915,0.229-1.622,0.686-2.122s1.09-0.75,1.897-0.75c0.771,0,1.372,0.22,1.802,0.659s0.645,1.046,0.645,1.821v0.723h-3.521 c0.016,0.423,0.142,0.753,0.376,0.991s0.563,0.356,0.986,0.356c0.329,0,0.64-0.034,0.933-0.103s0.599-0.177,0.918-0.327v1.152 c-0.26,0.13-0.539,0.227-0.835,0.291S354.778,172.582,354.352,172.582z M354.142,167.982c-0.316,0-0.563,0.1-0.742,0.3 s-0.282,0.484-0.308,0.852h2.09c-0.006-0.368-0.103-0.652-0.288-0.852S354.458,167.982,354.142,167.982z"/><path fill="#FFF" d="M361.256,172.484l-0.288-0.742h-0.039c-0.25,0.316-0.509,0.535-0.774,0.657s-0.611,0.183-1.038,0.183 c-0.524,0-0.937-0.15-1.238-0.449s-0.452-0.726-0.452-1.279c0-0.58,0.203-1.007,0.608-1.282s1.017-0.427,1.833-0.457l0.947-0.029 v-0.239c0-0.553-0.283-0.83-0.85-0.83c-0.436,0-0.949,0.132-1.538,0.396l-0.493-1.006c0.628-0.329,1.325-0.493,2.09-0.493 c0.732,0,1.294,0.16,1.685,0.479s0.586,0.804,0.586,1.455v3.638H361.256z M360.817,169.955l-0.576,0.02 c-0.433,0.013-0.755,0.091-0.967,0.234s-0.317,0.361-0.317,0.654c0,0.42,0.241,0.63,0.723,0.63c0.345,0,0.621-0.099,0.828-0.298 s0.31-0.462,0.31-0.791V169.955z"/><path fill="#FFF" d="M365.558,172.582c-0.641,0-1.145-0.249-1.511-0.747s-0.549-1.188-0.549-2.07 c0-0.895,0.187-1.593,0.559-2.092s0.886-0.75,1.541-0.75c0.687,0,1.211,0.267,1.572,0.801h0.049 c-0.075-0.407-0.112-0.77-0.112-1.089v-1.748h1.494v7.598h-1.143l-0.288-0.708h-0.063 C366.768,172.313,366.251,172.582,365.558,172.582z M366.081,171.396c0.381,0,0.66-0.111,0.837-0.332s0.274-0.597,0.291-1.128 v-0.161c0-0.586-0.09-1.006-0.271-1.26s-0.475-0.381-0.881-0.381c-0.332,0-0.59,0.141-0.774,0.422s-0.276,0.691-0.276,1.228 s0.093,0.94,0.278,1.208S365.735,171.396,366.081,171.396z"/></g></g><g><path fill="#4D4D4D" d="M304.862,131.488h-3.633l-1.794,3.406h-1.384l5.852-10.708h1.274l1.348,10.708h-1.245L304.862,131.488z M304.73,130.346l-0.256-2.19c-0.117-0.874-0.188-1.729-0.212-2.563c-0.181,0.43-0.377,0.857-0.589,1.282 c-0.213,0.425-0.822,1.582-1.828,3.472H304.73z"/><path fill="#4D4D4D" d="M315.292,126.867l-0.183,0.784l-1.545,0.176c0.2,0.303,0.3,0.688,0.3,1.157c0,0.933-0.285,1.676-0.853,2.23 c-0.569,0.555-1.33,0.832-2.282,0.832c-0.269,0-0.474-0.02-0.615-0.059c-0.679,0.259-1.018,0.579-1.018,0.959 c0,0.2,0.081,0.333,0.242,0.399c0.161,0.065,0.396,0.118,0.703,0.157l0.857,0.103c0.884,0.107,1.524,0.322,1.923,0.645 c0.397,0.322,0.597,0.796,0.597,1.421c0,0.898-0.356,1.594-1.069,2.087s-1.716,0.74-3.01,0.74c-0.947,0-1.689-0.18-2.227-0.538 c-0.537-0.359-0.806-0.866-0.806-1.52c0-0.513,0.176-0.957,0.527-1.333s0.92-0.696,1.707-0.959c-0.381-0.2-0.571-0.496-0.571-0.886 c0-0.337,0.125-0.626,0.374-0.868c0.249-0.242,0.596-0.468,1.04-0.678c-0.308-0.156-0.559-0.387-0.754-0.692 c-0.195-0.305-0.293-0.66-0.293-1.065c0-0.947,0.292-1.724,0.875-2.329s1.33-0.908,2.238-0.908c0.381,0,0.757,0.049,1.128,0.146 H315.292z M307.491,136.322c0,0.376,0.159,0.674,0.476,0.894s0.789,0.33,1.414,0.33c0.889,0,1.583-0.155,2.083-0.465 c0.5-0.311,0.751-0.749,0.751-1.315c0-0.303-0.132-0.542-0.396-0.718s-0.713-0.298-1.348-0.366l-1.165-0.117 c-0.586,0.122-1.035,0.337-1.348,0.645S307.491,135.888,307.491,136.322z M309.527,129.914c0,0.415,0.11,0.731,0.33,0.948 c0.22,0.218,0.525,0.326,0.916,0.326c0.386,0,0.723-0.103,1.011-0.308s0.509-0.487,0.663-0.846 c0.154-0.359,0.231-0.749,0.231-1.168c0-0.4-0.107-0.706-0.322-0.916s-0.522-0.315-0.923-0.315c-0.381,0-0.714,0.099-1,0.296 c-0.286,0.198-0.508,0.474-0.667,0.828S309.527,129.499,309.527,129.914z"/><path fill="#4D4D4D" d="M322.806,126.867l-0.183,0.784l-1.545,0.176c0.2,0.303,0.3,0.688,0.3,1.157c0,0.933-0.285,1.676-0.853,2.23 c-0.569,0.555-1.33,0.832-2.282,0.832c-0.269,0-0.474-0.02-0.615-0.059c-0.679,0.259-1.018,0.579-1.018,0.959 c0,0.2,0.081,0.333,0.242,0.399c0.161,0.065,0.396,0.118,0.703,0.157l0.857,0.103c0.884,0.107,1.524,0.322,1.923,0.645 c0.397,0.322,0.597,0.796,0.597,1.421c0,0.898-0.356,1.594-1.069,2.087s-1.716,0.74-3.01,0.74c-0.947,0-1.689-0.18-2.227-0.538 c-0.537-0.359-0.806-0.866-0.806-1.52c0-0.513,0.176-0.957,0.527-1.333s0.92-0.696,1.707-0.959c-0.381-0.2-0.571-0.496-0.571-0.886 c0-0.337,0.125-0.626,0.374-0.868c0.249-0.242,0.596-0.468,1.04-0.678c-0.308-0.156-0.559-0.387-0.754-0.692 c-0.195-0.305-0.293-0.66-0.293-1.065c0-0.947,0.292-1.724,0.875-2.329s1.33-0.908,2.238-0.908c0.381,0,0.757,0.049,1.128,0.146 H322.806z M315.006,136.322c0,0.376,0.159,0.674,0.476,0.894s0.789,0.33,1.414,0.33c0.889,0,1.583-0.155,2.083-0.465 c0.5-0.311,0.751-0.749,0.751-1.315c0-0.303-0.132-0.542-0.396-0.718s-0.713-0.298-1.348-0.366l-1.165-0.117 c-0.586,0.122-1.035,0.337-1.348,0.645S315.006,135.888,315.006,136.322z M317.042,129.914c0,0.415,0.11,0.731,0.33,0.948 c0.22,0.218,0.525,0.326,0.916,0.326c0.386,0,0.723-0.103,1.011-0.308s0.509-0.487,0.663-0.846 c0.154-0.359,0.231-0.749,0.231-1.168c0-0.4-0.107-0.706-0.322-0.916s-0.522-0.315-0.923-0.315c-0.381,0-0.714,0.099-1,0.296 c-0.286,0.198-0.508,0.474-0.667,0.828S317.042,129.499,317.042,129.914z"/><path fill="#4D4D4D" d="M327.772,126.72c0.337,0,0.63,0.034,0.879,0.103l-0.264,1.099c-0.259-0.063-0.515-0.095-0.769-0.095 c-0.444,0-0.861,0.146-1.249,0.439c-0.389,0.293-0.728,0.7-1.019,1.219c-0.291,0.521-0.504,1.098-0.641,1.732l-0.784,3.677h-1.23 l1.714-8.027h1.018l-0.161,1.487h0.073c0.352-0.464,0.642-0.797,0.872-1s0.47-0.359,0.721-0.469 C327.185,126.775,327.464,126.72,327.772,126.72z"/><path fill="#4D4D4D" d="M331.808,135.041c-0.898,0-1.604-0.266-2.117-0.798s-0.769-1.27-0.769-2.212 c0-0.918,0.182-1.798,0.546-2.64c0.363-0.843,0.846-1.498,1.446-1.967s1.262-0.703,1.985-0.703c0.747,0,1.309,0.163,1.685,0.487 s0.564,0.777,0.564,1.358c0,0.879-0.405,1.569-1.216,2.069s-1.97,0.75-3.479,0.75h-0.242l-0.029,0.586 c0,0.64,0.15,1.139,0.45,1.498c0.301,0.359,0.766,0.539,1.396,0.539c0.308,0,0.624-0.044,0.948-0.132s0.729-0.249,1.212-0.483 v1.069c-0.459,0.215-0.864,0.365-1.216,0.451C332.621,134.998,332.232,135.041,331.808,135.041z M332.826,127.768 c-0.503,0-0.976,0.229-1.417,0.688s-0.78,1.096-1.014,1.912h0.088c1.113,0,1.966-0.145,2.56-0.436 c0.593-0.291,0.89-0.712,0.89-1.264c0-0.259-0.089-0.474-0.268-0.645S333.207,127.768,332.826,127.768z"/><path fill="#4D4D4D" d="M343.658,126.867l-0.183,0.784l-1.545,0.176c0.2,0.303,0.3,0.688,0.3,1.157c0,0.933-0.285,1.676-0.853,2.23 c-0.569,0.555-1.33,0.832-2.282,0.832c-0.269,0-0.474-0.02-0.615-0.059c-0.679,0.259-1.018,0.579-1.018,0.959 c0,0.2,0.081,0.333,0.242,0.399c0.161,0.065,0.396,0.118,0.703,0.157l0.857,0.103c0.884,0.107,1.524,0.322,1.923,0.645 c0.397,0.322,0.597,0.796,0.597,1.421c0,0.898-0.356,1.594-1.069,2.087s-1.716,0.74-3.01,0.74c-0.947,0-1.689-0.18-2.227-0.538 c-0.537-0.359-0.806-0.866-0.806-1.52c0-0.513,0.176-0.957,0.527-1.333s0.92-0.696,1.707-0.959c-0.381-0.2-0.571-0.496-0.571-0.886 c0-0.337,0.125-0.626,0.374-0.868c0.249-0.242,0.596-0.468,1.04-0.678c-0.308-0.156-0.559-0.387-0.754-0.692 c-0.195-0.305-0.293-0.66-0.293-1.065c0-0.947,0.292-1.724,0.875-2.329s1.33-0.908,2.238-0.908c0.381,0,0.757,0.049,1.128,0.146 H343.658z M335.858,136.322c0,0.376,0.159,0.674,0.476,0.894s0.789,0.33,1.414,0.33c0.889,0,1.583-0.155,2.083-0.465 c0.5-0.311,0.751-0.749,0.751-1.315c0-0.303-0.132-0.542-0.396-0.718s-0.713-0.298-1.348-0.366l-1.165-0.117 c-0.586,0.122-1.035,0.337-1.348,0.645S335.858,135.888,335.858,136.322z M337.894,129.914c0,0.415,0.11,0.731,0.33,0.948 c0.22,0.218,0.525,0.326,0.916,0.326c0.386,0,0.723-0.103,1.011-0.308s0.509-0.487,0.663-0.846 c0.154-0.359,0.231-0.749,0.231-1.168c0-0.4-0.107-0.706-0.322-0.916s-0.522-0.315-0.923-0.315c-0.381,0-0.714,0.099-1,0.296 c-0.286,0.198-0.508,0.474-0.667,0.828S337.894,129.499,337.894,129.914z"/><path fill="#4D4D4D" d="M347.796,126.72c0.449,0,0.85,0.121,1.201,0.362c0.352,0.242,0.625,0.59,0.82,1.044h0.081l0.491-1.26h0.93 l-1.707,8.027h-0.974l0.19-1.531h-0.059c-0.874,1.118-1.794,1.677-2.761,1.677c-0.679,0-1.211-0.242-1.597-0.725 s-0.579-1.145-0.579-1.985c0-1.016,0.173-1.958,0.52-2.827s0.825-1.55,1.436-2.043S347.069,126.72,347.796,126.72z M346.405,134.022c0.474,0,0.945-0.226,1.414-0.677s0.85-1.04,1.143-1.766c0.293-0.725,0.439-1.451,0.439-2.179 c0-0.503-0.137-0.903-0.41-1.201s-0.632-0.447-1.077-0.447c-0.508,0-0.98,0.21-1.417,0.63s-0.78,0.989-1.029,1.707 s-0.374,1.475-0.374,2.271c0,0.557,0.115,0.973,0.344,1.249S345.99,134.022,346.405,134.022z"/><path fill="#4D4D4D" d="M354.483,134.037c0.269,0,0.62-0.063,1.055-0.19v0.945c-0.166,0.068-0.371,0.127-0.615,0.176 s-0.439,0.073-0.586,0.073c-0.61,0-1.078-0.146-1.403-0.436c-0.325-0.291-0.487-0.724-0.487-1.3c0-0.322,0.044-0.688,0.132-1.099 l0.93-4.409h-1.26l0.103-0.535l1.355-0.571l0.916-1.67h0.718l-0.403,1.846h2.007l-0.19,0.93h-2l-0.945,4.424 c-0.088,0.425-0.132,0.747-0.132,0.967c0,0.273,0.071,0.483,0.212,0.63S354.229,134.037,354.483,134.037z"/><path fill="#4D4D4D" d="M361.163,126.764c0.928,0,1.66,0.274,2.197,0.824c0.537,0.549,0.806,1.305,0.806,2.267 c0,0.918-0.176,1.785-0.527,2.6s-0.828,1.445-1.428,1.89s-1.279,0.667-2.036,0.667c-0.938,0-1.672-0.276-2.205-0.828 s-0.798-1.306-0.798-2.263c0-0.928,0.178-1.8,0.535-2.618s0.837-1.445,1.443-1.883 C359.754,126.983,360.426,126.764,361.163,126.764z M362.892,129.687c0-0.562-0.153-1.017-0.458-1.366 c-0.306-0.349-0.719-0.524-1.242-0.524c-0.532,0-1.01,0.181-1.432,0.542s-0.75,0.863-0.981,1.505s-0.348,1.356-0.348,2.142 c0,0.64,0.155,1.134,0.465,1.483c0.31,0.35,0.756,0.524,1.337,0.524c0.508,0,0.964-0.178,1.37-0.535s0.721-0.863,0.949-1.52 C362.778,131.282,362.892,130.531,362.892,129.687z"/><path fill="#4D4D4D" d="M370.377,126.72c0.337,0,0.63,0.034,0.879,0.103l-0.264,1.099c-0.259-0.063-0.515-0.095-0.769-0.095 c-0.444,0-0.861,0.146-1.249,0.439c-0.389,0.293-0.728,0.7-1.019,1.219c-0.291,0.521-0.504,1.098-0.641,1.732l-0.784,3.677h-1.23 l1.714-8.027h1.018l-0.161,1.487h0.073c0.352-0.464,0.642-0.797,0.872-1s0.47-0.359,0.721-0.469 C369.79,126.775,370.069,126.72,370.377,126.72z"/></g><line x1="292.187" x2="235.971" y1="164.11" y2="164.11" fill="none" stroke="#4D4D4D" stroke-miterlimit="10"/><line x1="319" x2="319" y1="182.512" y2="200.936" fill="none" stroke="#4D4D4D" stroke-miterlimit="10"/><line x1="341.728" x2="341.728" y1="182.512" y2="200.936" fill="none" stroke="#4D4D4D" stroke-miterlimit="10"/><line x1="364.5" x2="364.5" y1="181.769" y2="200.936" fill="none" stroke="#4D4D4D" stroke-miterlimit="10"/><g><path d="M338.242,211.152c0-0.218,0.05-0.383,0.149-0.496c0.099-0.111,0.242-0.168,0.427-0.168c0.189,0,0.336,0.057,0.442,0.168 c0.106,0.113,0.159,0.278,0.159,0.496c0,0.212-0.054,0.374-0.161,0.488s-0.254,0.171-0.439,0.171c-0.166,0-0.304-0.052-0.413-0.153 C338.297,211.555,338.242,211.387,338.242,211.152z"/><path d="M340.903,211.152c0-0.218,0.05-0.383,0.149-0.496c0.099-0.111,0.242-0.168,0.427-0.168c0.189,0,0.336,0.057,0.442,0.168 c0.106,0.113,0.159,0.278,0.159,0.496c0,0.212-0.054,0.374-0.161,0.488s-0.254,0.171-0.439,0.171c-0.166,0-0.304-0.052-0.413-0.153 C340.958,211.555,340.903,211.387,340.903,211.152z"/><path d="M343.564,211.152c0-0.218,0.05-0.383,0.149-0.496c0.099-0.111,0.242-0.168,0.427-0.168c0.189,0,0.336,0.057,0.442,0.168 c0.106,0.113,0.159,0.278,0.159,0.496c0,0.212-0.054,0.374-0.161,0.488s-0.254,0.171-0.439,0.171c-0.166,0-0.304-0.052-0.413-0.153 C343.619,211.555,343.564,211.387,343.564,211.152z"/></g></svg>