<svg xmlns="http://www.w3.org/2000/svg" xmlns:xlink="http://www.w3.org/1999/xlink" id="Layer_1" width="238" height="211.5" x="0" y="0" enable-background="new 0 0 238 211.5" version="1.1" viewBox="0 0 238 211.5" xml:space="preserve"><rect width="229.88" height="203.459" x="4.421" y="3.945" fill="#C7D468" stroke="#4D4D4D" stroke-miterlimit="10"/><g><rect width="41.129" height="17.01" x="102.465" y="82.787" fill="#2E58A6"/><g><path fill="#FFF" d="M111.953,93.229h-0.664v-5.711h3.184v0.59h-2.52v2.09h2.367v0.59h-2.367V93.229z"/><path fill="#FFF" d="M117.273,88.869c0.19,0,0.361,0.016,0.512,0.047l-0.09,0.602c-0.177-0.039-0.333-0.059-0.469-0.059 c-0.346,0-0.643,0.141-0.889,0.422s-0.369,0.631-0.369,1.051v2.297h-0.648v-4.281h0.535l0.074,0.793h0.031 c0.159-0.279,0.35-0.494,0.574-0.645S117.005,88.869,117.273,88.869z"/><path fill="#FFF" d="M121.219,93.229l-0.129-0.609h-0.031c-0.213,0.268-0.426,0.45-0.639,0.545s-0.477,0.143-0.795,0.143 c-0.424,0-0.757-0.109-0.998-0.328s-0.361-0.53-0.361-0.934c0-0.865,0.691-1.318,2.074-1.359l0.727-0.023v-0.266 c0-0.336-0.072-0.584-0.217-0.744s-0.375-0.24-0.693-0.24c-0.357,0-0.76,0.109-1.211,0.328l-0.199-0.496 c0.211-0.115,0.442-0.205,0.693-0.27s0.503-0.098,0.756-0.098c0.51,0,0.889,0.113,1.135,0.34s0.369,0.59,0.369,1.09v2.922H121.219 z M119.754,92.771c0.404,0,0.721-0.111,0.951-0.332s0.346-0.531,0.346-0.93v-0.387l-0.648,0.027 c-0.516,0.018-0.887,0.098-1.115,0.24s-0.342,0.363-0.342,0.662c0,0.234,0.071,0.413,0.213,0.535S119.499,92.771,119.754,92.771z"/><path fill="#FFF" d="M125.965,93.229v-2.77c0-0.349-0.08-0.609-0.238-0.781s-0.408-0.258-0.746-0.258 c-0.448,0-0.776,0.121-0.984,0.363s-0.312,0.642-0.312,1.199v2.246h-0.648v-4.281h0.527l0.105,0.586h0.031 c0.133-0.211,0.319-0.375,0.559-0.49s0.506-0.174,0.801-0.174c0.516,0,0.904,0.125,1.164,0.373s0.391,0.646,0.391,1.193v2.793 H125.965z"/><path fill="#FFF" d="M129.656,93.307c-0.62,0-1.1-0.191-1.439-0.572s-0.51-0.921-0.51-1.619c0-0.716,0.172-1.27,0.518-1.66 s0.836-0.586,1.475-0.586c0.206,0,0.412,0.022,0.617,0.066s0.367,0.096,0.484,0.156l-0.199,0.551 c-0.143-0.057-0.299-0.105-0.469-0.143s-0.319-0.057-0.449-0.057c-0.87,0-1.305,0.555-1.305,1.664c0,0.526,0.106,0.93,0.318,1.211 s0.527,0.422,0.943,0.422c0.357,0,0.723-0.077,1.098-0.23v0.574C130.452,93.232,130.091,93.307,129.656,93.307z"/><path fill="#FFF" d="M133.562,93.307c-0.633,0-1.132-0.193-1.498-0.578s-0.549-0.92-0.549-1.605c0-0.69,0.17-1.238,0.51-1.645 s0.796-0.609,1.369-0.609c0.537,0,0.961,0.176,1.273,0.529s0.469,0.818,0.469,1.396v0.41h-2.949 c0.013,0.502,0.14,0.884,0.381,1.145s0.58,0.391,1.018,0.391c0.461,0,0.917-0.096,1.367-0.289v0.578 c-0.229,0.099-0.446,0.17-0.65,0.213S133.852,93.307,133.562,93.307z M133.387,89.412c-0.344,0-0.618,0.112-0.822,0.336 s-0.325,0.534-0.361,0.93h2.238c0-0.409-0.091-0.722-0.273-0.939S133.725,89.412,133.387,89.412z"/></g><rect width="41.129" height="17.01" x="102.465" y="102.537" fill="#2E58A6"/><g><path fill="#FFF" d="M108.588,107.268h1.613c0.758,0,1.306,0.113,1.645,0.34s0.508,0.584,0.508,1.074 c0,0.338-0.094,0.618-0.283,0.838s-0.464,0.363-0.826,0.428v0.039c0.867,0.148,1.301,0.604,1.301,1.367 c0,0.51-0.172,0.909-0.518,1.195s-0.828,0.43-1.447,0.43h-1.992V107.268z M109.252,109.713h1.094c0.469,0,0.806-0.074,1.012-0.221 s0.309-0.395,0.309-0.744c0-0.32-0.115-0.551-0.344-0.693s-0.594-0.213-1.094-0.213h-0.977V109.713z M109.252,110.275v2.137h1.191 c0.461,0,0.808-0.089,1.041-0.268s0.35-0.458,0.35-0.838c0-0.354-0.119-0.615-0.357-0.781s-0.601-0.25-1.088-0.25H109.252z"/><path fill="#FFF" d="M115.482,113.057c-0.633,0-1.132-0.193-1.498-0.578s-0.549-0.92-0.549-1.605c0-0.69,0.17-1.238,0.51-1.645 s0.796-0.609,1.369-0.609c0.537,0,0.961,0.176,1.273,0.529s0.469,0.818,0.469,1.396v0.41h-2.949 c0.013,0.502,0.14,0.884,0.381,1.145s0.58,0.391,1.018,0.391c0.461,0,0.917-0.096,1.367-0.289v0.578 c-0.229,0.099-0.446,0.17-0.65,0.213S115.771,113.057,115.482,113.057z M115.307,109.162c-0.344,0-0.618,0.112-0.822,0.336 s-0.325,0.534-0.361,0.93h2.238c0-0.409-0.091-0.722-0.273-0.939S115.645,109.162,115.307,109.162z"/><path fill="#FFF" d="M118.811,112.979h-0.648V106.9h0.648V112.979z"/><path fill="#FFF" d="M123.689,108.697v0.41l-0.793,0.094c0.073,0.091,0.138,0.21,0.195,0.357s0.086,0.313,0.086,0.498 c0,0.419-0.143,0.754-0.43,1.004s-0.68,0.375-1.18,0.375c-0.127,0-0.248-0.01-0.359-0.031c-0.276,0.146-0.414,0.33-0.414,0.551 c0,0.117,0.048,0.204,0.145,0.26s0.262,0.084,0.496,0.084h0.758c0.463,0,0.82,0.098,1.068,0.293s0.373,0.479,0.373,0.852 c0,0.474-0.19,0.835-0.57,1.084s-0.935,0.373-1.664,0.373c-0.56,0-0.992-0.104-1.295-0.312s-0.455-0.502-0.455-0.883 c0-0.26,0.083-0.486,0.25-0.676s0.401-0.319,0.703-0.387c-0.109-0.049-0.201-0.126-0.275-0.23s-0.111-0.225-0.111-0.363 c0-0.156,0.042-0.293,0.125-0.41s0.215-0.23,0.395-0.34c-0.221-0.091-0.402-0.246-0.541-0.465s-0.209-0.469-0.209-0.75 c0-0.469,0.141-0.83,0.422-1.084s0.68-0.381,1.195-0.381c0.224,0,0.426,0.026,0.605,0.078H123.689z M120.275,113.697 c0,0.232,0.098,0.408,0.293,0.527s0.475,0.18,0.84,0.18c0.544,0,0.947-0.082,1.209-0.244s0.393-0.383,0.393-0.662 c0-0.232-0.072-0.393-0.215-0.482s-0.413-0.135-0.809-0.135h-0.777c-0.294,0-0.523,0.07-0.688,0.211 S120.275,113.434,120.275,113.697z M120.627,110.068c0,0.299,0.084,0.526,0.254,0.68s0.405,0.23,0.707,0.23 c0.633,0,0.949-0.307,0.949-0.922c0-0.643-0.32-0.965-0.961-0.965c-0.305,0-0.539,0.082-0.703,0.246 S120.627,109.746,120.627,110.068z"/><path fill="#FFF" d="M124.514,107.537c0-0.148,0.037-0.257,0.109-0.326s0.164-0.104,0.273-0.104 c0.104,0,0.194,0.035,0.27,0.105s0.113,0.178,0.113,0.324s-0.038,0.254-0.113,0.326s-0.166,0.107-0.27,0.107 c-0.109,0-0.201-0.036-0.273-0.107S124.514,107.683,124.514,107.537z M125.217,112.979h-0.648v-4.281h0.648V112.979z"/><path fill="#FFF" d="M127.201,108.697v2.777c0,0.349,0.08,0.609,0.238,0.781s0.408,0.258,0.746,0.258 c0.448,0,0.775-0.123,0.982-0.367s0.311-0.645,0.311-1.199v-2.25h0.648v4.281h-0.535l-0.094-0.574h-0.035 c-0.133,0.211-0.317,0.373-0.553,0.484s-0.504,0.168-0.807,0.168c-0.521,0-0.911-0.124-1.17-0.371s-0.389-0.643-0.389-1.188 v-2.801H127.201z"/><path fill="#FFF" d="M136.959,112.979v-2.785c0-0.341-0.073-0.597-0.219-0.768s-0.373-0.256-0.68-0.256 c-0.404,0-0.702,0.116-0.895,0.348s-0.289,0.588-0.289,1.07v2.391h-0.648v-2.785c0-0.341-0.073-0.597-0.219-0.768 s-0.374-0.256-0.684-0.256c-0.406,0-0.704,0.122-0.893,0.365s-0.283,0.643-0.283,1.197v2.246h-0.648v-4.281h0.527l0.105,0.586 h0.031c0.123-0.208,0.295-0.371,0.518-0.488s0.472-0.176,0.748-0.176c0.669,0,1.107,0.242,1.312,0.727h0.031 c0.127-0.224,0.312-0.401,0.555-0.531s0.518-0.195,0.828-0.195c0.484,0,0.847,0.125,1.088,0.373s0.361,0.646,0.361,1.193v2.793 H136.959z"/></g><rect width="41.129" height="17.01" x="102.465" y="122.537" fill="#2E58A6"/><g><path fill="#FFF" d="M109.121,129.986h1.941v2.777c-0.302,0.096-0.609,0.169-0.922,0.219s-0.674,0.074-1.086,0.074 c-0.865,0-1.538-0.257-2.02-0.771s-0.723-1.235-0.723-2.162c0-0.594,0.119-1.114,0.357-1.561s0.582-0.788,1.029-1.023 s0.973-0.354,1.574-0.354c0.609,0,1.177,0.112,1.703,0.336l-0.258,0.586c-0.516-0.219-1.012-0.328-1.488-0.328 c-0.695,0-1.238,0.207-1.629,0.621s-0.586,0.988-0.586,1.723c0,0.771,0.188,1.355,0.564,1.754s0.929,0.598,1.658,0.598 c0.396,0,0.783-0.045,1.16-0.137v-1.758h-1.277V129.986z"/><path fill="#FFF" d="M114.145,133.057c-0.633,0-1.132-0.193-1.498-0.578s-0.549-0.92-0.549-1.605c0-0.69,0.17-1.238,0.51-1.645 s0.796-0.609,1.369-0.609c0.537,0,0.961,0.176,1.273,0.529s0.469,0.818,0.469,1.396v0.41h-2.949 c0.013,0.502,0.14,0.884,0.381,1.145s0.58,0.391,1.018,0.391c0.461,0,0.917-0.096,1.367-0.289v0.578 c-0.229,0.099-0.446,0.17-0.65,0.213S114.434,133.057,114.145,133.057z M113.969,129.162c-0.344,0-0.618,0.112-0.822,0.336 s-0.325,0.534-0.361,0.93h2.238c0-0.409-0.091-0.722-0.273-0.939S114.307,129.162,113.969,129.162z"/><path fill="#FFF" d="M118.777,128.619c0.19,0,0.361,0.016,0.512,0.047l-0.09,0.602c-0.177-0.039-0.333-0.059-0.469-0.059 c-0.346,0-0.643,0.141-0.889,0.422s-0.369,0.631-0.369,1.051v2.297h-0.648v-4.281h0.535l0.074,0.793h0.031 c0.159-0.279,0.35-0.494,0.574-0.645S118.509,128.619,118.777,128.619z"/><path fill="#FFF" d="M125.547,132.979v-2.785c0-0.341-0.073-0.597-0.219-0.768s-0.373-0.256-0.68-0.256 c-0.404,0-0.702,0.116-0.895,0.348s-0.289,0.588-0.289,1.07v2.391h-0.648v-2.785c0-0.341-0.073-0.597-0.219-0.768 s-0.374-0.256-0.684-0.256c-0.406,0-0.704,0.122-0.893,0.365s-0.283,0.643-0.283,1.197v2.246h-0.648v-4.281h0.527l0.105,0.586 h0.031c0.123-0.208,0.295-0.371,0.518-0.488s0.472-0.176,0.748-0.176c0.669,0,1.107,0.242,1.312,0.727h0.031 c0.127-0.224,0.312-0.401,0.555-0.531s0.518-0.195,0.828-0.195c0.484,0,0.847,0.125,1.088,0.373s0.361,0.646,0.361,1.193v2.793 H125.547z"/><path fill="#FFF" d="M130.164,132.979l-0.129-0.609h-0.031c-0.213,0.268-0.426,0.45-0.639,0.545s-0.477,0.143-0.795,0.143 c-0.424,0-0.757-0.109-0.998-0.328s-0.361-0.53-0.361-0.934c0-0.865,0.691-1.318,2.074-1.359l0.727-0.023v-0.266 c0-0.336-0.072-0.584-0.217-0.744s-0.375-0.24-0.693-0.24c-0.357,0-0.76,0.109-1.211,0.328l-0.199-0.496 c0.211-0.115,0.442-0.205,0.693-0.27s0.503-0.098,0.756-0.098c0.51,0,0.889,0.113,1.135,0.34s0.369,0.59,0.369,1.09v2.922H130.164 z M128.699,132.521c0.404,0,0.721-0.111,0.951-0.332s0.346-0.531,0.346-0.93v-0.387l-0.648,0.027 c-0.516,0.018-0.887,0.098-1.115,0.24s-0.342,0.363-0.342,0.662c0,0.234,0.071,0.413,0.213,0.535S128.444,132.521,128.699,132.521 z"/><path fill="#FFF" d="M134.91,132.979v-2.77c0-0.349-0.08-0.609-0.238-0.781s-0.408-0.258-0.746-0.258 c-0.448,0-0.776,0.121-0.984,0.363s-0.312,0.642-0.312,1.199v2.246h-0.648v-4.281h0.527l0.105,0.586h0.031 c0.133-0.211,0.319-0.375,0.559-0.49s0.506-0.174,0.801-0.174c0.516,0,0.904,0.125,1.164,0.373s0.391,0.646,0.391,1.193v2.793 H134.91z"/><path fill="#FFF" d="M136.211,128.697h0.695l0.938,2.441c0.206,0.557,0.333,0.959,0.383,1.207h0.031 c0.034-0.133,0.105-0.36,0.213-0.682s0.461-1.311,1.061-2.967h0.695l-1.84,4.875c-0.182,0.482-0.395,0.824-0.639,1.025 s-0.542,0.303-0.896,0.303c-0.198,0-0.393-0.022-0.586-0.066v-0.52c0.143,0.031,0.303,0.047,0.48,0.047 c0.445,0,0.763-0.25,0.953-0.75l0.238-0.609L136.211,128.697z"/></g><rect width="54.5" height="82.427" x="95.167" y="64.537" fill="none" stroke="#4D4D4D" stroke-miterlimit="10"/><g><path d="M102.841,69.655c0,0.723-0.247,1.278-0.74,1.667s-1.199,0.583-2.117,0.583h-0.84v2.808h-0.83v-7.139h1.851 C101.949,67.575,102.841,68.268,102.841,69.655z M99.145,71.193h0.747c0.736,0,1.268-0.119,1.597-0.356s0.493-0.619,0.493-1.143 c0-0.472-0.155-0.824-0.464-1.055s-0.791-0.347-1.445-0.347h-0.928V71.193z"/><path d="M107.875,74.713v-3.462c0-0.436-0.099-0.762-0.298-0.977s-0.509-0.322-0.933-0.322c-0.563,0-0.974,0.153-1.233,0.459 s-0.388,0.807-0.388,1.504v2.798h-0.811v-7.598h0.811v2.3c0,0.277-0.013,0.506-0.039,0.688h0.049 c0.16-0.257,0.387-0.46,0.681-0.608s0.631-0.222,1.008-0.222c0.654,0,1.145,0.155,1.472,0.466s0.491,0.805,0.491,1.482v3.491 H107.875z"/><path d="M114.97,72.033c0,0.873-0.22,1.554-0.659,2.043s-1.046,0.735-1.821,0.735c-0.479,0-0.903-0.112-1.274-0.337 s-0.658-0.547-0.859-0.967s-0.303-0.912-0.303-1.475c0-0.873,0.218-1.552,0.654-2.039s1.042-0.73,1.816-0.73 c0.749,0,1.344,0.249,1.785,0.747S114.97,71.183,114.97,72.033z M110.893,72.033c0,0.684,0.137,1.205,0.41,1.562 s0.675,0.537,1.206,0.537s0.934-0.178,1.208-0.535s0.413-0.878,0.413-1.565c0-0.68-0.138-1.197-0.413-1.55s-0.681-0.53-1.218-0.53 c-0.531,0-0.931,0.174-1.201,0.522S110.893,71.343,110.893,72.033z"/><path d="M118.119,74.142c0.143,0,0.282-0.011,0.415-0.032s0.239-0.043,0.317-0.066v0.62c-0.088,0.042-0.217,0.077-0.388,0.105 s-0.325,0.042-0.461,0.042c-1.035,0-1.553-0.545-1.553-1.636v-3.184h-0.767v-0.391l0.767-0.337l0.342-1.143h0.469v1.24h1.553v0.63 h-1.553v3.149c0,0.322,0.077,0.57,0.229,0.742S117.852,74.142,118.119,74.142z"/><path d="M124.54,72.033c0,0.873-0.22,1.554-0.659,2.043s-1.046,0.735-1.821,0.735c-0.479,0-0.903-0.112-1.274-0.337 s-0.658-0.547-0.859-0.967s-0.303-0.912-0.303-1.475c0-0.873,0.218-1.552,0.654-2.039s1.042-0.73,1.816-0.73 c0.749,0,1.344,0.249,1.785,0.747S124.54,71.183,124.54,72.033z M120.463,72.033c0,0.684,0.137,1.205,0.41,1.562 s0.675,0.537,1.206,0.537s0.934-0.178,1.208-0.535s0.413-0.878,0.413-1.565c0-0.68-0.138-1.197-0.413-1.55s-0.681-0.53-1.218-0.53 c-0.531,0-0.931,0.174-1.201,0.522S120.463,71.343,120.463,72.033z"/><path d="M129.413,73.253c0,0.498-0.186,0.882-0.557,1.152s-0.892,0.405-1.562,0.405c-0.709,0-1.263-0.112-1.66-0.337v-0.752 c0.257,0.13,0.533,0.233,0.828,0.308s0.579,0.112,0.852,0.112c0.423,0,0.749-0.067,0.977-0.203s0.342-0.341,0.342-0.618 c0-0.208-0.09-0.387-0.271-0.535s-0.533-0.323-1.057-0.525c-0.498-0.186-0.852-0.348-1.062-0.486s-0.366-0.295-0.469-0.471 s-0.154-0.386-0.154-0.63c0-0.436,0.177-0.78,0.532-1.033s0.841-0.378,1.46-0.378c0.576,0,1.139,0.117,1.689,0.352l-0.288,0.659 c-0.537-0.221-1.024-0.332-1.46-0.332c-0.384,0-0.674,0.06-0.869,0.181s-0.293,0.287-0.293,0.498c0,0.143,0.037,0.265,0.11,0.366 s0.191,0.197,0.354,0.288s0.475,0.223,0.938,0.396c0.635,0.231,1.063,0.464,1.287,0.698S129.413,72.898,129.413,73.253z"/></g></g><g><path fill="#4D4D4D" d="M14.877,9.85c2.109,0,3.164,0.82,3.164,2.461c0,0.688-0.212,1.27-0.637,1.743s-1.023,0.781-1.794,0.923 v0.073c0.562,0.156,0.992,0.426,1.293,0.81c0.3,0.383,0.45,0.843,0.45,1.38c0,1.035-0.371,1.847-1.113,2.435 c-0.742,0.589-1.736,0.883-2.981,0.883H9.868L12.131,9.85H14.877z M11.34,19.496h1.948c0.884,0,1.562-0.196,2.036-0.589 s0.71-0.949,0.71-1.667c0-0.566-0.182-1-0.546-1.3c-0.364-0.3-0.887-0.45-1.571-0.45h-1.729L11.34,19.496z M12.417,14.435h1.816 c0.762,0,1.37-0.178,1.824-0.535s0.681-0.842,0.681-1.458c0-0.508-0.163-0.887-0.487-1.139s-0.836-0.377-1.534-0.377h-1.545 L12.417,14.435z"/><path fill="#4D4D4D" d="M22.919,12.428c0.928,0,1.66,0.274,2.197,0.824c0.537,0.549,0.806,1.305,0.806,2.267 c0,0.918-0.176,1.785-0.527,2.6s-0.828,1.445-1.428,1.89s-1.279,0.667-2.036,0.667c-0.938,0-1.672-0.276-2.205-0.828 s-0.798-1.306-0.798-2.263c0-0.928,0.178-1.8,0.535-2.618s0.837-1.445,1.443-1.883C21.511,12.647,22.182,12.428,22.919,12.428z M24.648,15.351c0-0.562-0.153-1.017-0.458-1.366c-0.306-0.349-0.719-0.524-1.242-0.524c-0.532,0-1.01,0.181-1.432,0.542 s-0.75,0.863-0.981,1.505s-0.348,1.356-0.348,2.142c0,0.64,0.155,1.134,0.465,1.483c0.31,0.35,0.756,0.524,1.337,0.524 c0.508,0,0.964-0.178,1.37-0.535s0.721-0.863,0.949-1.52C24.534,16.946,24.648,16.195,24.648,15.351z"/><path fill="#4D4D4D" d="M30.617,20.705c-0.474,0-0.89-0.125-1.249-0.374c-0.359-0.249-0.629-0.588-0.81-1.018h-0.073l-0.513,1.245 h-0.916l2.417-11.396h1.23c-0.249,1.182-0.441,2.086-0.575,2.714c-0.135,0.627-0.319,1.361-0.553,2.201h0.066 c0.454-0.576,0.902-1,1.344-1.271c0.442-0.271,0.897-0.406,1.366-0.406c0.688,0,1.226,0.242,1.611,0.725s0.579,1.147,0.579,1.992 c0,1.021-0.167,1.964-0.501,2.831c-0.335,0.867-0.801,1.543-1.399,2.029S31.369,20.705,30.617,20.705z M31.979,13.417 c-0.469,0-0.946,0.232-1.432,0.696s-0.871,1.047-1.157,1.75c-0.285,0.703-0.428,1.423-0.428,2.161c0,0.537,0.135,0.948,0.407,1.234 c0.271,0.285,0.663,0.428,1.175,0.428c0.483,0,0.934-0.198,1.351-0.593c0.418-0.396,0.753-0.958,1.007-1.688 c0.254-0.729,0.381-1.505,0.381-2.325C33.283,13.971,32.849,13.417,31.979,13.417z"/><path fill="#4D4D4D" d="M39.062,9.85l0.059,0.161c-0.195,0.444-0.466,0.978-0.813,1.601c-0.347,0.622-0.735,1.258-1.165,1.908 h-0.945c0.654-1.455,1.15-2.678,1.487-3.669H39.062z"/><path fill="#4D4D4D" d="M43.215,18.28c0,0.762-0.27,1.356-0.809,1.784c-0.54,0.427-1.3,0.641-2.282,0.641 c-0.825,0-1.57-0.168-2.234-0.505v-1.157c0.342,0.205,0.71,0.364,1.106,0.476s0.762,0.168,1.099,0.168 c0.615,0,1.079-0.122,1.392-0.366s0.469-0.557,0.469-0.938c0-0.278-0.085-0.513-0.256-0.703s-0.54-0.452-1.106-0.784 c-0.635-0.356-1.084-0.706-1.348-1.047s-0.396-0.747-0.396-1.216c0-0.674,0.247-1.217,0.74-1.629s1.143-0.619,1.948-0.619 c0.835,0,1.641,0.181,2.417,0.542l-0.396,1.003l-0.41-0.183c-0.493-0.21-1.03-0.315-1.611-0.315c-0.454,0-0.811,0.106-1.069,0.319 c-0.259,0.212-0.388,0.487-0.388,0.824c0,0.273,0.086,0.508,0.26,0.703c0.173,0.195,0.531,0.447,1.073,0.754 c0.522,0.293,0.897,0.544,1.125,0.754c0.227,0.21,0.396,0.436,0.509,0.677C43.159,17.706,43.215,17.978,43.215,18.28z"/><path fill="#4D4D4D" d="M49.785,20.558l-0.916-8.027h1.23l0.469,4.49c0.117,1.26,0.176,2.144,0.176,2.651h0.044 c0.62-1.343,1.057-2.249,1.311-2.717l2.38-4.424h1.304l-4.329,8.027H49.785z"/><path fill="#4D4D4D" d="M59.76,12.384c0.449,0,0.85,0.121,1.201,0.362c0.352,0.242,0.625,0.59,0.82,1.044h0.081l0.491-1.26h0.93 l-1.707,8.027h-0.974l0.19-1.531h-0.059c-0.874,1.118-1.794,1.677-2.761,1.677c-0.679,0-1.211-0.242-1.597-0.725 s-0.579-1.145-0.579-1.985c0-1.016,0.173-1.958,0.52-2.827s0.825-1.55,1.436-2.043S59.033,12.384,59.76,12.384z M58.369,19.687 c0.474,0,0.945-0.226,1.414-0.677s0.85-1.04,1.143-1.766c0.293-0.725,0.439-1.451,0.439-2.179c0-0.503-0.137-0.903-0.41-1.201 s-0.632-0.447-1.077-0.447c-0.508,0-0.98,0.21-1.417,0.63s-0.78,0.989-1.029,1.707s-0.374,1.475-0.374,2.271 c0,0.557,0.115,0.973,0.344,1.249S57.954,19.687,58.369,19.687z"/><path fill="#4D4D4D" d="M66.857,12.531l-1.099,5.09c-0.088,0.435-0.132,0.774-0.132,1.018c0,0.698,0.359,1.047,1.077,1.047 c0.43,0,0.852-0.146,1.267-0.439s0.781-0.713,1.099-1.26s0.559-1.206,0.725-1.978l0.732-3.479h1.216l-1.692,8.027h-1.018 l0.161-1.487h-0.088c-0.479,0.61-0.935,1.035-1.37,1.274s-0.884,0.359-1.348,0.359c-0.625,0-1.116-0.169-1.472-0.509 s-0.535-0.824-0.535-1.454c0-0.303,0.054-0.723,0.161-1.26l1.069-4.951H66.857z"/><path fill="#4D4D4D" d="M73.859,20.558h-1.23l2.432-11.396h1.23L73.859,20.558z"/><path fill="#4D4D4D" d="M78.913,19.701c0.269,0,0.62-0.063,1.055-0.19v0.945c-0.166,0.068-0.371,0.127-0.615,0.176 s-0.439,0.073-0.586,0.073c-0.61,0-1.078-0.146-1.403-0.436c-0.325-0.291-0.487-0.724-0.487-1.3c0-0.322,0.044-0.688,0.132-1.099 l0.93-4.409h-1.26l0.103-0.535l1.355-0.571l0.916-1.67h0.718l-0.403,1.846h2.007l-0.19,0.93h-2l-0.945,4.424 c-0.088,0.425-0.132,0.747-0.132,0.967c0,0.273,0.071,0.483,0.212,0.63S78.659,19.701,78.913,19.701z"/></g><rect width="41.129" height="38.646" x="143.594" y="154.677" fill="#2E58A6"/><rect width="41.129" height="38.646" x="36.609" y="81.362" fill="#2E58A6"/><rect width="41.129" height="38.646" x="48.038" y="32.248" fill="#2E58A6"/><rect width="41.129" height="38.646" x="184.11" y="100.851" fill="#2E58A6"/><rect width="10.457" height="9.826" x="120" y="171.673" fill="#2E58A6"/><rect width="10.457" height="9.826" x="24" y="41.744" fill="#2E58A6"/><rect width="10.457" height="9.826" x="42.809" y="129.836" fill="#2E58A6"/><rect width="10.457" height="9.826" x="167.87" y="88.315" fill="#2E58A6"/><rect width="10.457" height="9.826" x="167.87" y="22.421" fill="#2E58A6"/><rect width="41.129" height="38.646" x="170.784" y="38.744" fill="#2E58A6"/><rect width="41.129" height="38.646" x="32.702" y="147.439" fill="#2E58A6"/><rect width="10.457" height="9.826" x="196.62" y="171.674" fill="#2E58A6"/><rect width="10.457" height="9.826" x="82.967" y="166.762" fill="#2E58A6"/><rect width="41.129" height="38.646" x="109.893" y="12.924" fill="#2E58A6"/></svg>