<svg xmlns="http://www.w3.org/2000/svg" xmlns:xlink="http://www.w3.org/1999/xlink" id="Layer_1" width="241.666" height="215.666" x="0" y="0" enable-background="new 0 0 241.666 215.666" version="1.1" viewBox="0 0 241.666 215.666" xml:space="preserve"><rect width="229.88" height="203.459" x="6.454" y="5.874" fill="#C7D468" stroke="#4D4D4D" stroke-miterlimit="10"/><g><path fill="#4D4D4D" d="M16.91,11.779c2.109,0,3.164,0.82,3.164,2.461c0,0.688-0.212,1.27-0.637,1.743s-1.023,0.781-1.794,0.923 v0.073c0.562,0.156,0.992,0.426,1.293,0.81c0.3,0.383,0.45,0.843,0.45,1.38c0,1.035-0.371,1.847-1.113,2.435 c-0.742,0.589-1.736,0.883-2.981,0.883H11.9l2.263-10.708H16.91z M13.372,21.425h1.948c0.884,0,1.562-0.196,2.036-0.589 s0.71-0.949,0.71-1.667c0-0.566-0.182-1-0.546-1.3c-0.364-0.3-0.887-0.45-1.571-0.45h-1.729L13.372,21.425z M14.449,16.364h1.816 c0.762,0,1.37-0.178,1.824-0.535s0.681-0.842,0.681-1.458c0-0.508-0.163-0.887-0.487-1.139s-0.836-0.377-1.534-0.377h-1.545 L14.449,16.364z"/><path fill="#4D4D4D" d="M24.952,14.357c0.928,0,1.66,0.274,2.197,0.824c0.537,0.549,0.806,1.305,0.806,2.267 c0,0.918-0.176,1.785-0.527,2.6s-0.828,1.445-1.428,1.89s-1.279,0.667-2.036,0.667c-0.938,0-1.672-0.276-2.205-0.828 s-0.798-1.306-0.798-2.263c0-0.928,0.178-1.8,0.535-2.618s0.837-1.445,1.443-1.883C23.543,14.576,24.214,14.357,24.952,14.357z M26.68,17.279c0-0.562-0.153-1.017-0.458-1.366c-0.306-0.349-0.719-0.524-1.242-0.524c-0.532,0-1.01,0.181-1.432,0.542 s-0.75,0.863-0.981,1.505s-0.348,1.356-0.348,2.142c0,0.64,0.155,1.134,0.465,1.483c0.31,0.35,0.756,0.524,1.337,0.524 c0.508,0,0.964-0.178,1.37-0.535s0.721-0.863,0.949-1.52C26.566,18.875,26.68,18.124,26.68,17.279z"/><path fill="#4D4D4D" d="M32.649,22.633c-0.474,0-0.89-0.125-1.249-0.374c-0.359-0.249-0.629-0.588-0.81-1.018h-0.073l-0.513,1.245 H29.09l2.417-11.396h1.23c-0.249,1.182-0.441,2.086-0.575,2.714c-0.135,0.627-0.319,1.361-0.553,2.201h0.066 c0.454-0.576,0.902-1,1.344-1.271c0.442-0.271,0.897-0.406,1.366-0.406c0.688,0,1.226,0.242,1.611,0.725s0.579,1.147,0.579,1.992 c0,1.021-0.167,1.964-0.501,2.831c-0.335,0.867-0.801,1.543-1.399,2.029S33.401,22.633,32.649,22.633z M34.012,15.346 c-0.469,0-0.946,0.232-1.432,0.696s-0.871,1.047-1.157,1.75c-0.285,0.703-0.428,1.423-0.428,2.161c0,0.537,0.135,0.948,0.407,1.234 c0.271,0.285,0.663,0.428,1.175,0.428c0.483,0,0.934-0.198,1.351-0.593c0.418-0.396,0.753-0.958,1.007-1.688 c0.254-0.729,0.381-1.505,0.381-2.325C35.315,15.9,34.881,15.346,34.012,15.346z"/><path fill="#4D4D4D" d="M41.094,11.779l0.059,0.161c-0.195,0.444-0.466,0.978-0.813,1.601c-0.347,0.622-0.735,1.258-1.165,1.908 H38.23c0.654-1.455,1.15-2.678,1.487-3.669H41.094z"/><path fill="#4D4D4D" d="M45.247,20.209c0,0.762-0.27,1.356-0.809,1.784c-0.54,0.427-1.3,0.641-2.282,0.641 c-0.825,0-1.57-0.168-2.234-0.505v-1.157c0.342,0.205,0.71,0.364,1.106,0.476s0.762,0.168,1.099,0.168 c0.615,0,1.079-0.122,1.392-0.366s0.469-0.557,0.469-0.938c0-0.278-0.085-0.513-0.256-0.703s-0.54-0.452-1.106-0.784 c-0.635-0.356-1.084-0.706-1.348-1.047s-0.396-0.747-0.396-1.216c0-0.674,0.247-1.217,0.74-1.629s1.143-0.619,1.948-0.619 c0.835,0,1.641,0.181,2.417,0.542l-0.396,1.003l-0.41-0.183c-0.493-0.21-1.03-0.315-1.611-0.315c-0.454,0-0.811,0.106-1.069,0.319 c-0.259,0.212-0.388,0.487-0.388,0.824c0,0.273,0.086,0.508,0.26,0.703c0.173,0.195,0.531,0.447,1.073,0.754 c0.522,0.293,0.897,0.544,1.125,0.754c0.227,0.21,0.396,0.436,0.509,0.677C45.191,19.634,45.247,19.906,45.247,20.209z"/><path fill="#4D4D4D" d="M51.817,22.487l-0.916-8.027h1.23l0.469,4.49c0.117,1.26,0.176,2.144,0.176,2.651h0.044 c0.62-1.343,1.057-2.249,1.311-2.717l2.38-4.424h1.304l-4.329,8.027H51.817z"/><path fill="#4D4D4D" d="M61.792,14.313c0.449,0,0.85,0.121,1.201,0.362c0.352,0.242,0.625,0.59,0.82,1.044h0.081l0.491-1.26h0.93 l-1.707,8.027h-0.974l0.19-1.531h-0.059c-0.874,1.118-1.794,1.677-2.761,1.677c-0.679,0-1.211-0.242-1.597-0.725 s-0.579-1.145-0.579-1.985c0-1.016,0.173-1.958,0.52-2.827s0.825-1.55,1.436-2.043S61.065,14.313,61.792,14.313z M60.401,21.615 c0.474,0,0.945-0.226,1.414-0.677s0.85-1.04,1.143-1.766c0.293-0.725,0.439-1.451,0.439-2.179c0-0.503-0.137-0.903-0.41-1.201 s-0.632-0.447-1.077-0.447c-0.508,0-0.98,0.21-1.417,0.63s-0.78,0.989-1.029,1.707s-0.374,1.475-0.374,2.271 c0,0.557,0.115,0.973,0.344,1.249S59.986,21.615,60.401,21.615z"/><path fill="#4D4D4D" d="M68.89,14.459l-1.099,5.09c-0.088,0.435-0.132,0.774-0.132,1.018c0,0.698,0.359,1.047,1.077,1.047 c0.43,0,0.852-0.146,1.267-0.439s0.781-0.713,1.099-1.26s0.559-1.206,0.725-1.978l0.732-3.479h1.216l-1.692,8.027h-1.018L71.226,21 h-0.088c-0.479,0.61-0.935,1.035-1.37,1.274s-0.884,0.359-1.348,0.359c-0.625,0-1.116-0.169-1.472-0.509s-0.535-0.824-0.535-1.454 c0-0.303,0.054-0.723,0.161-1.26l1.069-4.951H68.89z"/><path fill="#4D4D4D" d="M75.892,22.487h-1.23l2.432-11.396h1.23L75.892,22.487z"/><path fill="#4D4D4D" d="M80.945,21.63c0.269,0,0.62-0.063,1.055-0.19v0.945c-0.166,0.068-0.371,0.127-0.615,0.176 s-0.439,0.073-0.586,0.073c-0.61,0-1.078-0.146-1.403-0.436c-0.325-0.291-0.487-0.724-0.487-1.3c0-0.322,0.044-0.688,0.132-1.099 l0.93-4.409h-1.26l0.103-0.535l1.355-0.571l0.916-1.67h0.718l-0.403,1.846h2.007l-0.19,0.93h-2l-0.945,4.424 c-0.088,0.425-0.132,0.747-0.132,0.967c0,0.273,0.071,0.483,0.212,0.63S80.691,21.63,80.945,21.63z"/></g><rect width="41.129" height="38.646" x="14.27" y="33.848" fill="#2E58A6"/><rect width="41.129" height="38.646" x="25.584" y="83.291" fill="#2E58A6"/><rect width="41.129" height="38.646" x="87.491" y="43.673" fill="#2E58A6"/><rect width="41.129" height="38.646" x="79.72" y="118.438" fill="#2E58A6"/><rect width="41.129" height="38.646" x="143.816" y="71.301" fill="#2E58A6"/><rect width="10.457" height="9.826" x="89.827" y="95.659" fill="#2E58A6"/><rect width="10.457" height="9.826" x="66.713" y="33.848" fill="#2E58A6"/><rect width="10.457" height="9.826" x="38.641" y="137.76" fill="#2E58A6"/><rect width="10.457" height="9.826" x="133.359" y="126.851" fill="#2E58A6"/><rect width="10.457" height="9.826" x="153.923" y="38.759" fill="#2E58A6"/><rect width="63.641" height="59.797" x="164.38" y="140.203" fill="#C2000B"/><g><path fill="#FFF" d="M175.201,166.861c0,1.008-0.179,1.853-0.536,2.534s-0.882,1.181-1.573,1.497l2.062,2.303h-2.326 l-1.57-1.922h-0.135c-1.312,0-2.32-0.381-3.023-1.143s-1.055-1.855-1.055-3.281s0.353-2.515,1.058-3.267s1.716-1.128,3.032-1.128 s2.323,0.379,3.021,1.137S175.201,165.439,175.201,166.861z M168.949,166.861c0,0.957,0.182,1.678,0.545,2.162 s0.906,0.727,1.629,0.727c1.449,0,2.174-0.963,2.174-2.889c0-1.93-0.721-2.895-2.162-2.895c-0.723,0-1.268,0.243-1.635,0.729 S168.949,165.904,168.949,166.861z"/><path fill="#FFF" d="M181.476,171.156l-0.24-0.838h-0.094c-0.191,0.305-0.463,0.54-0.814,0.706s-0.752,0.249-1.201,0.249 c-0.77,0-1.35-0.206-1.74-0.618s-0.586-1.005-0.586-1.778v-4.271h1.787v3.826c0,0.473,0.084,0.827,0.252,1.063 s0.436,0.354,0.803,0.354c0.5,0,0.861-0.167,1.084-0.501s0.334-0.888,0.334-1.661v-3.082h1.787v6.551H181.476z"/><path fill="#FFF" d="M187.687,171.273c-1.055,0-1.879-0.291-2.473-0.873s-0.891-1.406-0.891-2.473 c0-1.098,0.274-1.946,0.823-2.546s1.308-0.899,2.276-0.899c0.926,0,1.646,0.264,2.162,0.791s0.773,1.256,0.773,2.186v0.867h-4.225 c0.02,0.508,0.17,0.904,0.451,1.189s0.676,0.428,1.184,0.428c0.395,0,0.768-0.041,1.119-0.123s0.719-0.213,1.102-0.393v1.383 c-0.312,0.156-0.646,0.272-1.002,0.349S188.199,171.273,187.687,171.273z M187.435,165.754c-0.379,0-0.676,0.12-0.891,0.36 s-0.338,0.581-0.369,1.022h2.508c-0.008-0.441-0.123-0.782-0.346-1.022S187.814,165.754,187.435,165.754z"/><path fill="#FFF" d="M195.468,164.482c0.242,0,0.443,0.018,0.604,0.053l-0.135,1.676c-0.145-0.039-0.32-0.059-0.527-0.059 c-0.57,0-1.015,0.146-1.333,0.439s-0.478,0.703-0.478,1.23v3.334h-1.787v-6.551h1.354l0.264,1.102h0.088 c0.203-0.367,0.478-0.663,0.823-0.888S195.062,164.482,195.468,164.482z"/><path fill="#FFF" d="M196.324,164.605h1.957l1.236,3.686c0.105,0.32,0.178,0.699,0.217,1.137h0.035 c0.043-0.402,0.127-0.781,0.252-1.137l1.213-3.686h1.916l-2.771,7.389c-0.254,0.684-0.616,1.195-1.087,1.535 s-1.021,0.51-1.649,0.51c-0.309,0-0.611-0.033-0.908-0.1v-1.418c0.215,0.051,0.449,0.076,0.703,0.076 c0.316,0,0.593-0.097,0.829-0.29s0.421-0.485,0.554-0.876l0.105-0.322L196.324,164.605z"/><path fill="#FFF" d="M212.589,171.156l-0.621-2.039h-3.123l-0.621,2.039h-1.957l3.023-8.602h2.221l3.035,8.602H212.589z M211.535,167.594c-0.574-1.848-0.897-2.893-0.97-3.135s-0.124-0.434-0.155-0.574c-0.129,0.5-0.498,1.736-1.107,3.709H211.535z"/><path fill="#FFF" d="M221.542,165.262c0,0.922-0.288,1.627-0.864,2.115s-1.396,0.732-2.458,0.732h-0.779v3.047h-1.816v-8.566 h2.736c1.039,0,1.829,0.224,2.37,0.671S221.542,164.375,221.542,165.262z M217.441,166.621h0.598c0.559,0,0.977-0.11,1.254-0.331 s0.416-0.542,0.416-0.964c0-0.426-0.116-0.74-0.349-0.943s-0.597-0.305-1.093-0.305h-0.826V166.621z"/><path fill="#FFF" d="M223.16,171.156v-8.566h1.816v8.566H223.16z"/></g><rect width="41.129" height="38.646" x="190.816" y="26.301" fill="#2E58A6"/><rect width="41.129" height="38.646" x="46.149" y="164.104" fill="#2E58A6"/><rect width="10.457" height="9.826" x="121.394" y="175.426" fill="#2E58A6"/></svg>